<ttFont>
    <TTGlyph name="A" xMin="5" yMin="0" xMax="734" yMax="700">
      <contour>
        <pt x="179" y="685" on="0"/>
        <pt x="339" y="700" on="0"/>
        <pt x="470" y="700" on="0"/>
        <pt x="506" y="694" on="1"/>
        <pt x="507" y="690" on="0"/>
        <pt x="507" y="679" on="0"/>
        <pt x="496" y="639" on="0"/>
        <pt x="493" y="633" on="1"/>
        <pt x="485" y="625" on="0"/>
        <pt x="448" y="621" on="1"/>
        <pt x="639" y="68" on="1"/>
        <pt x="734" y="60" on="1"/>
        <pt x="734" y="32" on="0"/>
        <pt x="717" y="0" on="1"/>
        <pt x="487" y="0" on="1"/>
        <pt x="484" y="35" on="1"/>
        <pt x="507" y="47" on="0"/>
        <pt x="551" y="56" on="1"/>
        <pt x="500" y="199" on="1"/>
        <pt x="221" y="199" on="1"/>
        <pt x="174" y="68" on="1"/>
        <pt x="255" y="60" on="1"/>
        <pt x="255" y="32" on="0"/>
        <pt x="238" y="0" on="1"/>
        <pt x="8" y="0" on="1"/>
        <pt x="5" y="35" on="1"/>
        <pt x="44" y="49" on="0"/>
        <pt x="88" y="57" on="1"/>
        <pt x="282" y="624" on="1"/>
        <pt x="193" y="634" on="0"/>
        <pt x="157" y="648" on="1"/>
        <pt x="161" y="679" on="1"/>
      </contour>
      <contour>
        <pt x="421" y="422" on="1"/>
        <pt x="368" y="618" on="1"/>
        <pt x="362" y="619" on="0"/>
        <pt x="351" y="619" on="1"/>
        <pt x="297" y="415" on="1"/>
        <pt x="239" y="263" on="1"/>
        <pt x="482" y="263" on="1"/>
      </contour>
    </TTGlyph>
    <TTGlyph name="AE" xMin="-30" yMin="0" xMax="858" yMax="699">
      <contour>
        <pt x="448" y="263" on="1"/>
        <pt x="442" y="629" on="1"/>
        <pt x="243" y="263" on="1"/>
      </contour>
      <contour>
        <pt x="452" y="58" on="1"/>
        <pt x="452" y="121" on="0"/>
        <pt x="449" y="199" on="1"/>
        <pt x="212" y="199" on="1"/>
        <pt x="139" y="68" on="1"/>
        <pt x="220" y="60" on="1"/>
        <pt x="220" y="32" on="0"/>
        <pt x="203" y="0" on="1"/>
        <pt x="-27" y="0" on="1"/>
        <pt x="-30" y="35" on="1"/>
        <pt x="9" y="49" on="0"/>
        <pt x="53" y="57" on="1"/>
        <pt x="361" y="638" on="1"/>
        <pt x="277" y="662" on="1"/>
        <pt x="282" y="699" on="1"/>
        <pt x="841" y="699" on="1"/>
        <pt x="843" y="686" on="0"/>
        <pt x="843" y="660" on="1"/>
        <pt x="843" y="605" on="0"/>
        <pt x="829" y="541" on="1"/>
        <pt x="807" y="536" on="0"/>
        <pt x="771" y="536" on="1"/>
        <pt x="747" y="631" on="1"/>
        <pt x="542" y="631" on="1"/>
        <pt x="542" y="631" on="0"/>
        <pt x="537" y="390" on="1"/>
        <pt x="695" y="390" on="1"/>
        <pt x="703" y="462" on="1"/>
        <pt x="731" y="462" on="0"/>
        <pt x="763" y="445" on="1"/>
        <pt x="763" y="255" on="1"/>
        <pt x="728" y="252" on="1"/>
        <pt x="713" y="295" on="0"/>
        <pt x="708" y="324" on="1"/>
        <pt x="537" y="324" on="1"/>
        <pt x="535" y="237" on="0"/>
        <pt x="533" y="67" on="1"/>
        <pt x="762" y="67" on="1"/>
        <pt x="786" y="161" on="1"/>
        <pt x="844" y="157" on="1"/>
        <pt x="858" y="100" on="0"/>
        <pt x="858" y="13" on="0"/>
        <pt x="856" y="0" on="1"/>
        <pt x="370" y="0" on="1"/>
        <pt x="367" y="35" on="1"/>
        <pt x="411" y="51" on="0"/>
      </contour>
    </TTGlyph>
    <TTGlyph name="Aacute" xMin="5" yMin="0" xMax="734" yMax="928">
      <component glyphName="A" x="0" y="0" flags="0x1004"/>
      <component glyphName="acute" x="234" y="192" flags="0x1004"/>
    </TTGlyph>
    <TTGlyph name="Abreve" xMin="5" yMin="0" xMax="734" yMax="931">
      <component glyphName="A" x="0" y="0" flags="0x1004"/>
      <component glyphName="breve" x="169" y="192" flags="0x1004"/>
    </TTGlyph>
    <TTGlyph name="Acircumflex" xMin="5" yMin="0" xMax="734" yMax="928">
      <component glyphName="A" x="0" y="0" flags="0x1004"/>
      <component glyphName="circumflex" x="132" y="192" flags="0x1004"/>
    </TTGlyph>
    <TTGlyph name="Adieresis" xMin="5" yMin="0" xMax="734" yMax="878">
      <component glyphName="A" x="0" y="0" flags="0x1004"/>
      <component glyphName="dieresis" x="29" y="192" flags="0x1004"/>
    </TTGlyph>
    <TTGlyph name="Agrave" xMin="5" yMin="0" xMax="734" yMax="928">
      <component glyphName="A" x="0" y="0" flags="0x1004"/>
      <component glyphName="grave" x="52" y="192" flags="0x1004"/>
    </TTGlyph>
    <TTGlyph name="Amacron" xMin="5" yMin="0" xMax="734" yMax="897">
      <contour>
        <pt x="179" y="685" on="0"/>
        <pt x="339" y="700" on="0"/>
        <pt x="470" y="700" on="0"/>
        <pt x="506" y="694" on="1"/>
        <pt x="507" y="690" on="0"/>
        <pt x="507" y="679" on="0"/>
        <pt x="496" y="639" on="0"/>
        <pt x="493" y="633" on="1"/>
        <pt x="485" y="625" on="0"/>
        <pt x="448" y="621" on="1"/>
        <pt x="639" y="68" on="1"/>
        <pt x="734" y="60" on="1"/>
        <pt x="734" y="32" on="0"/>
        <pt x="717" y="0" on="1"/>
        <pt x="487" y="0" on="1"/>
        <pt x="484" y="35" on="1"/>
        <pt x="507" y="47" on="0"/>
        <pt x="551" y="56" on="1"/>
        <pt x="500" y="199" on="1"/>
        <pt x="221" y="199" on="1"/>
        <pt x="174" y="68" on="1"/>
        <pt x="255" y="60" on="1"/>
        <pt x="255" y="32" on="0"/>
        <pt x="238" y="0" on="1"/>
        <pt x="8" y="0" on="1"/>
        <pt x="5" y="35" on="1"/>
        <pt x="44" y="49" on="0"/>
        <pt x="88" y="57" on="1"/>
        <pt x="282" y="624" on="1"/>
        <pt x="193" y="634" on="0"/>
        <pt x="157" y="648" on="1"/>
        <pt x="161" y="679" on="1"/>
      </contour>
      <contour>
        <pt x="421" y="422" on="1"/>
        <pt x="368" y="618" on="1"/>
        <pt x="362" y="619" on="0"/>
        <pt x="351" y="619" on="1"/>
        <pt x="297" y="415" on="1"/>
        <pt x="239" y="263" on="1"/>
        <pt x="482" y="263" on="1"/>
      </contour>
      <contour>
        <pt x="479" y="892" on="1"/>
        <pt x="481" y="876" on="0"/>
        <pt x="481" y="866" on="1"/>
        <pt x="479" y="831" on="1"/>
        <pt x="427" y="826" on="0"/>
        <pt x="381" y="826" on="1"/>
        <pt x="260" y="831" on="1"/>
        <pt x="258" y="845" on="0"/>
        <pt x="258" y="857" on="1"/>
        <pt x="260" y="892" on="1"/>
        <pt x="312" y="897" on="0"/>
        <pt x="358" y="897" on="1"/>
      </contour>
    </TTGlyph>
    <TTGlyph name="Aring" xMin="5" yMin="0" xMax="734" yMax="1006">
      <contour>
        <pt x="332" y="960" on="0"/>
        <pt x="299" y="921" on="0"/>
        <pt x="299" y="856" on="0"/>
        <pt x="332" y="818" on="0"/>
        <pt x="387" y="818" on="0"/>
        <pt x="420" y="856" on="0"/>
        <pt x="420" y="921" on="0"/>
        <pt x="387" y="960" on="0"/>
      </contour>
      <contour>
        <pt x="409" y="1006" on="0"/>
        <pt x="480" y="942" on="0"/>
        <pt x="480" y="833" on="0"/>
        <pt x="410" y="774" on="0"/>
        <pt x="310" y="774" on="0"/>
        <pt x="238" y="834" on="0"/>
        <pt x="238" y="942" on="0"/>
        <pt x="311" y="1006" on="0"/>
      </contour>
      <contour>
        <pt x="179" y="685" on="0"/>
        <pt x="339" y="700" on="0"/>
        <pt x="470" y="700" on="0"/>
        <pt x="506" y="694" on="1"/>
        <pt x="507" y="690" on="0"/>
        <pt x="507" y="679" on="0"/>
        <pt x="496" y="639" on="0"/>
        <pt x="493" y="633" on="1"/>
        <pt x="485" y="625" on="0"/>
        <pt x="448" y="621" on="1"/>
        <pt x="639" y="68" on="1"/>
        <pt x="734" y="60" on="1"/>
        <pt x="734" y="32" on="0"/>
        <pt x="717" y="0" on="1"/>
        <pt x="487" y="0" on="1"/>
        <pt x="484" y="35" on="1"/>
        <pt x="507" y="47" on="0"/>
        <pt x="551" y="56" on="1"/>
        <pt x="500" y="199" on="1"/>
        <pt x="221" y="199" on="1"/>
        <pt x="174" y="68" on="1"/>
        <pt x="255" y="60" on="1"/>
        <pt x="255" y="32" on="0"/>
        <pt x="238" y="0" on="1"/>
        <pt x="8" y="0" on="1"/>
        <pt x="5" y="35" on="1"/>
        <pt x="44" y="49" on="0"/>
        <pt x="88" y="57" on="1"/>
        <pt x="282" y="624" on="1"/>
        <pt x="193" y="634" on="0"/>
        <pt x="157" y="648" on="1"/>
        <pt x="161" y="679" on="1"/>
      </contour>
      <contour>
        <pt x="421" y="422" on="1"/>
        <pt x="368" y="618" on="1"/>
        <pt x="362" y="619" on="0"/>
        <pt x="351" y="619" on="1"/>
        <pt x="297" y="415" on="1"/>
        <pt x="239" y="263" on="1"/>
        <pt x="482" y="263" on="1"/>
      </contour>
    </TTGlyph>
    <TTGlyph name="Atilde" xMin="5" yMin="0" xMax="734" yMax="903">
      <contour>
        <pt x="179" y="685" on="0"/>
        <pt x="339" y="700" on="0"/>
        <pt x="470" y="700" on="0"/>
        <pt x="506" y="694" on="1"/>
        <pt x="507" y="690" on="0"/>
        <pt x="507" y="679" on="0"/>
        <pt x="496" y="639" on="0"/>
        <pt x="493" y="633" on="1"/>
        <pt x="485" y="625" on="0"/>
        <pt x="448" y="621" on="1"/>
        <pt x="639" y="68" on="1"/>
        <pt x="734" y="60" on="1"/>
        <pt x="734" y="32" on="0"/>
        <pt x="717" y="0" on="1"/>
        <pt x="487" y="0" on="1"/>
        <pt x="484" y="35" on="1"/>
        <pt x="507" y="47" on="0"/>
        <pt x="551" y="56" on="1"/>
        <pt x="500" y="199" on="1"/>
        <pt x="221" y="199" on="1"/>
        <pt x="174" y="68" on="1"/>
        <pt x="255" y="60" on="1"/>
        <pt x="255" y="32" on="0"/>
        <pt x="238" y="0" on="1"/>
        <pt x="8" y="0" on="1"/>
        <pt x="5" y="35" on="1"/>
        <pt x="44" y="49" on="0"/>
        <pt x="88" y="57" on="1"/>
        <pt x="282" y="624" on="1"/>
        <pt x="193" y="634" on="0"/>
        <pt x="157" y="648" on="1"/>
        <pt x="161" y="679" on="1"/>
      </contour>
      <contour>
        <pt x="421" y="422" on="1"/>
        <pt x="368" y="618" on="1"/>
        <pt x="362" y="619" on="0"/>
        <pt x="351" y="619" on="1"/>
        <pt x="297" y="415" on="1"/>
        <pt x="239" y="263" on="1"/>
        <pt x="482" y="263" on="1"/>
      </contour>
      <contour>
        <pt x="286" y="828" on="1"/>
        <pt x="257" y="809" on="0"/>
        <pt x="202" y="791" on="1"/>
        <pt x="185" y="820" on="1"/>
        <pt x="212" y="857" on="0"/>
        <pt x="289" y="903" on="0"/>
        <pt x="296" y="903" on="1"/>
        <pt x="315" y="903" on="0"/>
        <pt x="422" y="857" on="0"/>
        <pt x="433" y="854" on="1"/>
        <pt x="490" y="885" on="0"/>
        <pt x="517" y="894" on="1"/>
        <pt x="534" y="865" on="1"/>
        <pt x="507" y="828" on="0"/>
        <pt x="457" y="798" on="1"/>
        <pt x="453" y="796" on="0"/>
        <pt x="446" y="790" on="1"/>
        <pt x="430" y="779" on="0"/>
        <pt x="423" y="779" on="1"/>
        <pt x="403" y="786" on="0"/>
        <pt x="372" y="799" on="1"/>
        <pt x="303" y="828" on="0"/>
      </contour>
    </TTGlyph>
    <TTGlyph name="B" xMin="30" yMin="0" xMax="580" yMax="700">
      <contour>
        <pt x="491" y="358" on="0"/>
        <pt x="580" y="264" on="0"/>
        <pt x="580" y="95" on="0"/>
        <pt x="447" y="0" on="0"/>
        <pt x="319" y="0" on="1"/>
        <pt x="45" y="0" on="1"/>
        <pt x="42" y="35" on="1"/>
        <pt x="84" y="52" on="0"/>
        <pt x="128" y="59" on="1"/>
        <pt x="122" y="445" on="0"/>
        <pt x="118" y="638" on="1"/>
        <pt x="84" y="644" on="0"/>
        <pt x="30" y="662" on="1"/>
        <pt x="33" y="699" on="0"/>
        <pt x="35" y="700" on="1"/>
        <pt x="286" y="700" on="1"/>
        <pt x="420" y="700" on="0"/>
        <pt x="468" y="677" on="1"/>
        <pt x="491" y="666" on="0"/>
        <pt x="514" y="648" on="1"/>
        <pt x="560" y="612" on="0"/>
        <pt x="560" y="529" on="1"/>
        <pt x="560" y="487" on="0"/>
        <pt x="531" y="420" on="0"/>
        <pt x="508" y="402" on="1"/>
        <pt x="466" y="369" on="0"/>
        <pt x="433" y="365" on="1"/>
      </contour>
      <contour>
        <pt x="324" y="322" on="1"/>
        <pt x="213" y="322" on="1"/>
        <pt x="211" y="236" on="0"/>
        <pt x="209" y="68" on="1"/>
        <pt x="315" y="68" on="1"/>
        <pt x="481" y="68" on="0"/>
        <pt x="481" y="192" on="1"/>
        <pt x="481" y="264" on="0"/>
        <pt x="404" y="322" on="0"/>
      </contour>
      <contour>
        <pt x="276" y="630" on="1"/>
        <pt x="216" y="629" on="1"/>
        <pt x="214" y="537" on="0"/>
        <pt x="214" y="390" on="1"/>
        <pt x="312" y="390" on="1"/>
        <pt x="400" y="390" on="0"/>
        <pt x="459" y="457" on="0"/>
        <pt x="459" y="530" on="1"/>
        <pt x="459" y="630" on="0"/>
      </contour>
    </TTGlyph>
    <TTGlyph name="C" xMin="20" yMin="-13" xMax="545" yMax="713">
      <contour>
        <pt x="314" y="-13" on="1"/>
        <pt x="20" y="-13" on="0"/>
        <pt x="20" y="356" on="1"/>
        <pt x="20" y="531" on="0"/>
        <pt x="163" y="713" on="0"/>
        <pt x="320" y="713" on="1"/>
        <pt x="446" y="713" on="0"/>
        <pt x="544" y="643" on="1"/>
        <pt x="544" y="587" on="0"/>
        <pt x="530" y="501" on="1"/>
        <pt x="516" y="498" on="0"/>
        <pt x="472" y="498" on="1"/>
        <pt x="442" y="622" on="1"/>
        <pt x="371" y="635" on="0"/>
        <pt x="328" y="635" on="1"/>
        <pt x="249" y="635" on="0"/>
        <pt x="189" y="613" on="1"/>
        <pt x="170" y="606" on="1"/>
        <pt x="164" y="596" on="0"/>
        <pt x="146" y="557" on="0"/>
        <pt x="117" y="433" on="0"/>
        <pt x="117" y="368" on="1"/>
        <pt x="117" y="227" on="0"/>
        <pt x="210" y="61" on="0"/>
        <pt x="312" y="61" on="1"/>
        <pt x="385" y="61" on="0"/>
        <pt x="422" y="76" on="1"/>
        <pt x="432" y="81" on="0"/>
        <pt x="451" y="91" on="1"/>
        <pt x="472" y="211" on="1"/>
        <pt x="530" y="208" on="1"/>
        <pt x="545" y="105" on="0"/>
        <pt x="545" y="41" on="1"/>
        <pt x="524" y="25" on="0"/>
        <pt x="385" y="-13" on="0"/>
      </contour>
    </TTGlyph>
    <TTGlyph name="Ccedilla" xMin="20" yMin="-218" xMax="545" yMax="713">
      <component glyphName="C" x="0" y="0" flags="0x1004"/>
      <component glyphName="cedilla" x="94" y="0" flags="0x1004"/>
    </TTGlyph>
    <TTGlyph name="D" xMin="30" yMin="0" xMax="627" yMax="700">
      <contour>
        <pt x="627" y="366" on="1"/>
        <pt x="627" y="140" on="0"/>
        <pt x="524" y="59" on="1"/>
        <pt x="481" y="25" on="0"/>
        <pt x="381" y="0" on="0"/>
        <pt x="300" y="0" on="1"/>
        <pt x="46" y="0" on="1"/>
        <pt x="43" y="35" on="1"/>
        <pt x="47" y="38" on="0"/>
        <pt x="121" y="58" on="0"/>
        <pt x="128" y="58" on="1"/>
        <pt x="122" y="448" on="0"/>
        <pt x="118" y="638" on="1"/>
        <pt x="73" y="644" on="0"/>
        <pt x="30" y="662" on="1"/>
        <pt x="32" y="696" on="0"/>
        <pt x="35" y="700" on="1"/>
        <pt x="287" y="700" on="1"/>
        <pt x="391" y="700" on="0"/>
        <pt x="512" y="662" on="0"/>
        <pt x="557" y="611" on="1"/>
        <pt x="627" y="534" on="0"/>
      </contour>
      <contour>
        <pt x="530" y="358" on="1"/>
        <pt x="530" y="493" on="0"/>
        <pt x="429" y="630" on="0"/>
        <pt x="310" y="630" on="1"/>
        <pt x="208" y="630" on="1"/>
        <pt x="204" y="446" on="0"/>
        <pt x="198" y="68" on="1"/>
        <pt x="303" y="68" on="1"/>
        <pt x="440" y="68" on="0"/>
        <pt x="530" y="191" on="0"/>
      </contour>
    </TTGlyph>
    <TTGlyph name="Delta" xMin="29" yMin="0" xMax="624" yMax="706">
      <contour>
        <pt x="289" y="704" on="1"/>
        <pt x="301" y="706" on="0"/>
        <pt x="351" y="706" on="0"/>
        <pt x="363" y="703" on="1"/>
        <pt x="597" y="124" on="0"/>
        <pt x="624" y="53" on="0"/>
        <pt x="624" y="18" on="0"/>
        <pt x="621" y="0" on="1"/>
        <pt x="32" y="0" on="1"/>
        <pt x="29" y="30" on="0"/>
        <pt x="29" y="51" on="0"/>
        <pt x="39" y="80" on="1"/>
      </contour>
      <contour>
        <pt x="328" y="597" on="1"/>
        <pt x="317" y="597" on="1"/>
        <pt x="102" y="61" on="1"/>
        <pt x="541" y="61" on="1"/>
      </contour>
    </TTGlyph>
    <TTGlyph name="E" xMin="30" yMin="0" xMax="534" yMax="700">
      <contour>
        <pt x="218" y="631" on="1"/>
        <pt x="213" y="390" on="1"/>
        <pt x="371" y="390" on="1"/>
        <pt x="379" y="462" on="1"/>
        <pt x="407" y="462" on="0"/>
        <pt x="439" y="445" on="1"/>
        <pt x="439" y="255" on="1"/>
        <pt x="404" y="252" on="1"/>
        <pt x="389" y="295" on="0"/>
        <pt x="384" y="324" on="1"/>
        <pt x="213" y="324" on="1"/>
        <pt x="211" y="237" on="0"/>
        <pt x="209" y="67" on="1"/>
        <pt x="438" y="67" on="1"/>
        <pt x="462" y="161" on="1"/>
        <pt x="520" y="157" on="1"/>
        <pt x="534" y="100" on="0"/>
        <pt x="534" y="13" on="0"/>
        <pt x="532" y="0" on="1"/>
        <pt x="46" y="0" on="1"/>
        <pt x="43" y="35" on="1"/>
        <pt x="87" y="51" on="0"/>
        <pt x="128" y="58" on="1"/>
        <pt x="122" y="448" on="0"/>
        <pt x="118" y="638" on="1"/>
        <pt x="96" y="640" on="0"/>
        <pt x="30" y="662" on="1"/>
        <pt x="35" y="700" on="1"/>
        <pt x="517" y="700" on="1"/>
        <pt x="519" y="687" on="0"/>
        <pt x="519" y="660" on="1"/>
        <pt x="519" y="605" on="0"/>
        <pt x="505" y="541" on="1"/>
        <pt x="483" y="536" on="0"/>
        <pt x="447" y="536" on="1"/>
        <pt x="423" y="631" on="1"/>
      </contour>
    </TTGlyph>
    <TTGlyph name="Eacute" xMin="30" yMin="0" xMax="534" yMax="928">
      <contour>
        <pt x="226" y="814" on="1"/>
        <pt x="366" y="928" on="1"/>
        <pt x="405" y="898" on="0"/>
        <pt x="408" y="867" on="1"/>
        <pt x="384" y="844" on="0"/>
        <pt x="313" y="797" on="0"/>
        <pt x="266" y="773" on="1"/>
        <pt x="248" y="786" on="0"/>
      </contour>
      <contour>
        <pt x="218" y="631" on="1"/>
        <pt x="213" y="390" on="1"/>
        <pt x="371" y="390" on="1"/>
        <pt x="379" y="462" on="1"/>
        <pt x="407" y="462" on="0"/>
        <pt x="439" y="445" on="1"/>
        <pt x="439" y="255" on="1"/>
        <pt x="404" y="252" on="1"/>
        <pt x="389" y="295" on="0"/>
        <pt x="384" y="324" on="1"/>
        <pt x="213" y="324" on="1"/>
        <pt x="211" y="237" on="0"/>
        <pt x="209" y="67" on="1"/>
        <pt x="438" y="67" on="1"/>
        <pt x="462" y="161" on="1"/>
        <pt x="520" y="157" on="1"/>
        <pt x="534" y="100" on="0"/>
        <pt x="534" y="13" on="0"/>
        <pt x="532" y="0" on="1"/>
        <pt x="46" y="0" on="1"/>
        <pt x="43" y="35" on="1"/>
        <pt x="87" y="51" on="0"/>
        <pt x="128" y="58" on="1"/>
        <pt x="122" y="448" on="0"/>
        <pt x="118" y="638" on="1"/>
        <pt x="96" y="640" on="0"/>
        <pt x="30" y="662" on="1"/>
        <pt x="35" y="700" on="1"/>
        <pt x="517" y="700" on="1"/>
        <pt x="519" y="687" on="0"/>
        <pt x="519" y="660" on="1"/>
        <pt x="519" y="605" on="0"/>
        <pt x="505" y="541" on="1"/>
        <pt x="483" y="536" on="0"/>
        <pt x="447" y="536" on="1"/>
        <pt x="423" y="631" on="1"/>
      </contour>
    </TTGlyph>
    <TTGlyph name="Ebreve" xMin="30" yMin="0" xMax="534" yMax="931">
      <component glyphName="E" x="0" y="0" flags="0x1004"/>
      <component glyphName="breve" x="97" y="192" flags="0x1004"/>
    </TTGlyph>
    <TTGlyph name="Ecircumflex" xMin="30" yMin="0" xMax="534" yMax="928">
      <contour>
        <pt x="218" y="631" on="1"/>
        <pt x="213" y="390" on="1"/>
        <pt x="371" y="390" on="1"/>
        <pt x="379" y="462" on="1"/>
        <pt x="407" y="462" on="0"/>
        <pt x="439" y="445" on="1"/>
        <pt x="439" y="255" on="1"/>
        <pt x="404" y="252" on="1"/>
        <pt x="389" y="295" on="0"/>
        <pt x="384" y="324" on="1"/>
        <pt x="213" y="324" on="1"/>
        <pt x="211" y="237" on="0"/>
        <pt x="209" y="67" on="1"/>
        <pt x="438" y="67" on="1"/>
        <pt x="462" y="161" on="1"/>
        <pt x="520" y="157" on="1"/>
        <pt x="534" y="100" on="0"/>
        <pt x="534" y="13" on="0"/>
        <pt x="532" y="0" on="1"/>
        <pt x="46" y="0" on="1"/>
        <pt x="43" y="35" on="1"/>
        <pt x="87" y="51" on="0"/>
        <pt x="128" y="58" on="1"/>
        <pt x="122" y="448" on="0"/>
        <pt x="118" y="638" on="1"/>
        <pt x="96" y="640" on="0"/>
        <pt x="30" y="662" on="1"/>
        <pt x="35" y="700" on="1"/>
        <pt x="517" y="700" on="1"/>
        <pt x="519" y="687" on="0"/>
        <pt x="519" y="660" on="1"/>
        <pt x="519" y="605" on="0"/>
        <pt x="505" y="541" on="1"/>
        <pt x="483" y="536" on="0"/>
        <pt x="447" y="536" on="1"/>
        <pt x="423" y="631" on="1"/>
      </contour>
      <contour>
        <pt x="282" y="928" on="1"/>
        <pt x="423" y="814" on="1"/>
        <pt x="417" y="805" on="0"/>
        <pt x="390" y="778" on="1"/>
        <pt x="389" y="779" on="0"/>
        <pt x="360" y="792" on="0"/>
        <pt x="347" y="799" on="1"/>
        <pt x="308" y="820" on="0"/>
        <pt x="282" y="844" on="1"/>
        <pt x="247" y="811" on="0"/>
        <pt x="190" y="786" on="1"/>
        <pt x="175" y="779" on="0"/>
        <pt x="174" y="778" on="1"/>
        <pt x="150" y="800" on="0"/>
        <pt x="141" y="814" on="1"/>
      </contour>
    </TTGlyph>
    <TTGlyph name="Edieresis" xMin="30" yMin="0" xMax="534" yMax="878">
      <component glyphName="E" x="0" y="0" flags="0x1004"/>
      <component glyphName="dieresis" x="-45" y="192" flags="0x1004"/>
    </TTGlyph>
    <TTGlyph name="Egrave" xMin="30" yMin="0" xMax="534" yMax="928">
      <contour>
        <pt x="218" y="631" on="1"/>
        <pt x="213" y="390" on="1"/>
        <pt x="371" y="390" on="1"/>
        <pt x="379" y="462" on="1"/>
        <pt x="407" y="462" on="0"/>
        <pt x="439" y="445" on="1"/>
        <pt x="439" y="255" on="1"/>
        <pt x="404" y="252" on="1"/>
        <pt x="389" y="295" on="0"/>
        <pt x="384" y="324" on="1"/>
        <pt x="213" y="324" on="1"/>
        <pt x="211" y="237" on="0"/>
        <pt x="209" y="67" on="1"/>
        <pt x="438" y="67" on="1"/>
        <pt x="462" y="161" on="1"/>
        <pt x="520" y="157" on="1"/>
        <pt x="534" y="100" on="0"/>
        <pt x="534" y="13" on="0"/>
        <pt x="532" y="0" on="1"/>
        <pt x="46" y="0" on="1"/>
        <pt x="43" y="35" on="1"/>
        <pt x="87" y="51" on="0"/>
        <pt x="128" y="58" on="1"/>
        <pt x="122" y="448" on="0"/>
        <pt x="118" y="638" on="1"/>
        <pt x="96" y="640" on="0"/>
        <pt x="30" y="662" on="1"/>
        <pt x="35" y="700" on="1"/>
        <pt x="517" y="700" on="1"/>
        <pt x="519" y="687" on="0"/>
        <pt x="519" y="660" on="1"/>
        <pt x="519" y="605" on="0"/>
        <pt x="505" y="541" on="1"/>
        <pt x="483" y="536" on="0"/>
        <pt x="447" y="536" on="1"/>
        <pt x="423" y="631" on="1"/>
      </contour>
      <contour>
        <pt x="349" y="814" on="1"/>
        <pt x="327" y="787" on="0"/>
        <pt x="309" y="773" on="1"/>
        <pt x="221" y="815" on="0"/>
        <pt x="167" y="867" on="1"/>
        <pt x="168" y="881" on="0"/>
        <pt x="189" y="911" on="0"/>
        <pt x="209" y="928" on="1"/>
      </contour>
    </TTGlyph>
    <TTGlyph name="Emacron" xMin="30" yMin="0" xMax="534" yMax="897">
      <component glyphName="E" x="0" y="0" flags="0x1004"/>
      <component glyphName="macron" x="145" y="192" flags="0x1004"/>
    </TTGlyph>
    <TTGlyph name="Eng" xMin="30" yMin="-241" xMax="760" yMax="700">
      <contour>
        <pt x="218" y="576" on="1"/>
        <pt x="208" y="68" on="1"/>
        <pt x="292" y="60" on="1"/>
        <pt x="292" y="32" on="0"/>
        <pt x="275" y="0" on="1"/>
        <pt x="45" y="0" on="1"/>
        <pt x="42" y="35" on="1"/>
        <pt x="96" y="53" on="0"/>
        <pt x="134" y="59" on="1"/>
        <pt x="132" y="124" on="0"/>
        <pt x="123" y="530" on="0"/>
        <pt x="120" y="641" on="1"/>
        <pt x="82" y="647" on="0"/>
        <pt x="30" y="665" on="1"/>
        <pt x="33" y="700" on="1"/>
        <pt x="231" y="700" on="1"/>
        <pt x="596" y="117" on="1"/>
        <pt x="579" y="641" on="1"/>
        <pt x="542" y="648" on="0"/>
        <pt x="490" y="665" on="1"/>
        <pt x="493" y="700" on="1"/>
        <pt x="743" y="700" on="1"/>
        <pt x="760" y="668" on="0"/>
        <pt x="760" y="640" on="1"/>
        <pt x="710" y="636" on="0"/>
        <pt x="680" y="636" on="1"/>
        <pt x="669" y="-20" on="1"/>
        <pt x="667" y="-133" on="0"/>
        <pt x="595" y="-241" on="0"/>
        <pt x="497" y="-241" on="1"/>
        <pt x="465" y="-241" on="0"/>
        <pt x="372" y="-215" on="0"/>
        <pt x="355" y="-204" on="1"/>
        <pt x="360" y="-114" on="0"/>
        <pt x="374" y="-72" on="1"/>
        <pt x="387" y="-67" on="0"/>
        <pt x="432" y="-67" on="1"/>
        <pt x="457" y="-177" on="1"/>
        <pt x="472" y="-182" on="0"/>
        <pt x="526" y="-182" on="0"/>
        <pt x="553" y="-169" on="0"/>
        <pt x="569" y="-139" on="0"/>
        <pt x="579" y="-113" on="0"/>
        <pt x="581" y="-90" on="1"/>
        <pt x="584" y="-54" on="0"/>
        <pt x="584" y="-13" on="1"/>
      </contour>
    </TTGlyph>
    <TTGlyph name="Eth" xMin="27" yMin="0" xMax="626" yMax="700">
      <contour>
        <pt x="626" y="366" on="1"/>
        <pt x="626" y="140" on="0"/>
        <pt x="523" y="59" on="1"/>
        <pt x="480" y="25" on="0"/>
        <pt x="380" y="0" on="0"/>
        <pt x="299" y="0" on="1"/>
        <pt x="45" y="0" on="1"/>
        <pt x="42" y="35" on="1"/>
        <pt x="46" y="38" on="0"/>
        <pt x="120" y="58" on="0"/>
        <pt x="127" y="58" on="1"/>
        <pt x="125" y="146" on="0"/>
        <pt x="123" y="324" on="1"/>
        <pt x="29" y="327" on="1"/>
        <pt x="27" y="336" on="0"/>
        <pt x="27" y="354" on="1"/>
        <pt x="29" y="386" on="1"/>
        <pt x="77" y="389" on="0"/>
        <pt x="122" y="391" on="1"/>
        <pt x="118" y="554" on="0"/>
        <pt x="117" y="638" on="1"/>
        <pt x="72" y="644" on="0"/>
        <pt x="29" y="662" on="1"/>
        <pt x="31" y="696" on="0"/>
        <pt x="34" y="700" on="1"/>
        <pt x="286" y="700" on="1"/>
        <pt x="390" y="700" on="0"/>
        <pt x="511" y="662" on="0"/>
        <pt x="556" y="611" on="1"/>
        <pt x="626" y="534" on="0"/>
      </contour>
      <contour>
        <pt x="529" y="358" on="1"/>
        <pt x="529" y="493" on="0"/>
        <pt x="428" y="630" on="0"/>
        <pt x="309" y="630" on="1"/>
        <pt x="207" y="630" on="1"/>
        <pt x="203" y="470" on="0"/>
        <pt x="202" y="390" on="1"/>
        <pt x="336" y="386" on="1"/>
        <pt x="338" y="371" on="0"/>
        <pt x="338" y="336" on="0"/>
        <pt x="336" y="327" on="1"/>
        <pt x="284" y="322" on="0"/>
        <pt x="238" y="322" on="1"/>
        <pt x="201" y="322" on="1"/>
        <pt x="199" y="238" on="0"/>
        <pt x="197" y="68" on="1"/>
        <pt x="302" y="68" on="1"/>
        <pt x="439" y="68" on="0"/>
        <pt x="529" y="191" on="0"/>
      </contour>
    </TTGlyph>
    <TTGlyph name="Euro" xMin="15" yMin="-13" xMax="559" yMax="713">
      <contour>
        <pt x="398" y="244" on="1"/>
        <pt x="334" y="232" on="0"/>
        <pt x="239" y="232" on="0"/>
        <pt x="209" y="233" on="1"/>
        <pt x="222" y="149" on="0"/>
        <pt x="290" y="61" on="0"/>
        <pt x="435" y="61" on="0"/>
        <pt x="465" y="77" on="1"/>
        <pt x="486" y="197" on="1"/>
        <pt x="544" y="194" on="1"/>
        <pt x="559" y="91" on="0"/>
        <pt x="559" y="27" on="1"/>
        <pt x="540" y="12" on="0"/>
        <pt x="431" y="-13" on="0"/>
        <pt x="358" y="-13" on="1"/>
        <pt x="252" y="-13" on="0"/>
        <pt x="128" y="105" on="0"/>
        <pt x="111" y="236" on="1"/>
        <pt x="18" y="239" on="1"/>
        <pt x="15" y="252" on="0"/>
        <pt x="15" y="266" on="1"/>
        <pt x="18" y="298" on="1"/>
        <pt x="59" y="306" on="0"/>
        <pt x="105" y="309" on="1"/>
        <pt x="104" y="324" on="0"/>
        <pt x="104" y="356" on="1"/>
        <pt x="104" y="376" on="1"/>
        <pt x="18" y="379" on="1"/>
        <pt x="15" y="392" on="0"/>
        <pt x="15" y="406" on="1"/>
        <pt x="18" y="438" on="1"/>
        <pt x="62" y="446" on="0"/>
        <pt x="109" y="449" on="1"/>
        <pt x="139" y="713" on="0"/>
        <pt x="364" y="713" on="1"/>
        <pt x="426" y="713" on="0"/>
        <pt x="487" y="691" on="0"/>
        <pt x="502" y="682" on="1"/>
        <pt x="521" y="671" on="0"/>
        <pt x="548" y="646" on="1"/>
        <pt x="548" y="590" on="0"/>
        <pt x="534" y="504" on="1"/>
        <pt x="512" y="501" on="0"/>
        <pt x="476" y="501" on="1"/>
        <pt x="446" y="634" on="1"/>
        <pt x="402" y="644" on="0"/>
        <pt x="327" y="644" on="0"/>
        <pt x="267" y="630" on="0"/>
        <pt x="256" y="622" on="1"/>
        <pt x="244" y="615" on="1"/>
        <pt x="216" y="549" on="0"/>
        <pt x="205" y="449" on="1"/>
        <pt x="398" y="443" on="1"/>
        <pt x="400" y="433" on="0"/>
        <pt x="400" y="414" on="1"/>
        <pt x="398" y="384" on="1"/>
        <pt x="334" y="372" on="0"/>
        <pt x="234" y="372" on="0"/>
        <pt x="201" y="373" on="1"/>
        <pt x="201" y="368" on="1"/>
        <pt x="201" y="328" on="0"/>
        <pt x="202" y="309" on="1"/>
        <pt x="398" y="303" on="1"/>
        <pt x="400" y="293" on="0"/>
        <pt x="400" y="274" on="1"/>
      </contour>
    </TTGlyph>
    <TTGlyph name="F" xMin="30" yMin="0" xMax="519" yMax="700">
      <contour>
        <pt x="214" y="313" on="1"/>
        <pt x="209" y="67" on="1"/>
        <pt x="293" y="60" on="1"/>
        <pt x="293" y="32" on="0"/>
        <pt x="276" y="0" on="1"/>
        <pt x="46" y="0" on="1"/>
        <pt x="43" y="35" on="1"/>
        <pt x="87" y="51" on="0"/>
        <pt x="128" y="58" on="1"/>
        <pt x="122" y="448" on="0"/>
        <pt x="118" y="638" on="1"/>
        <pt x="96" y="640" on="0"/>
        <pt x="30" y="662" on="1"/>
        <pt x="35" y="700" on="1"/>
        <pt x="517" y="700" on="1"/>
        <pt x="519" y="687" on="0"/>
        <pt x="519" y="660" on="1"/>
        <pt x="519" y="606" on="0"/>
        <pt x="505" y="540" on="1"/>
        <pt x="483" y="536" on="0"/>
        <pt x="447" y="536" on="1"/>
        <pt x="423" y="631" on="1"/>
        <pt x="218" y="631" on="1"/>
        <pt x="216" y="547" on="0"/>
        <pt x="214" y="379" on="1"/>
        <pt x="372" y="379" on="1"/>
        <pt x="380" y="451" on="1"/>
        <pt x="408" y="451" on="0"/>
        <pt x="440" y="434" on="1"/>
        <pt x="440" y="244" on="1"/>
        <pt x="405" y="241" on="1"/>
        <pt x="390" y="284" on="0"/>
        <pt x="385" y="313" on="1"/>
      </contour>
    </TTGlyph>
    <TTGlyph name="G" xMin="20" yMin="-13" xMax="636" yMax="713">
      <contour>
        <pt x="314" y="-13" on="1"/>
        <pt x="180" y="-13" on="0"/>
        <pt x="20" y="171" on="0"/>
        <pt x="20" y="532" on="0"/>
        <pt x="159" y="713" on="0"/>
        <pt x="454" y="713" on="0"/>
        <pt x="555" y="639" on="1"/>
        <pt x="555" y="588" on="0"/>
        <pt x="541" y="518" on="1"/>
        <pt x="519" y="514" on="0"/>
        <pt x="483" y="514" on="1"/>
        <pt x="461" y="617" on="1"/>
        <pt x="404" y="636" on="0"/>
        <pt x="321" y="636" on="1"/>
        <pt x="266" y="636" on="0"/>
        <pt x="170" y="606" on="1"/>
        <pt x="164" y="595" on="0"/>
        <pt x="146" y="556" on="0"/>
        <pt x="117" y="431" on="0"/>
        <pt x="117" y="368" on="1"/>
        <pt x="117" y="61" on="0"/>
        <pt x="316" y="61" on="1"/>
        <pt x="421" y="61" on="0"/>
        <pt x="478" y="99" on="1"/>
        <pt x="482" y="225" on="0"/>
        <pt x="483" y="288" on="1"/>
        <pt x="386" y="312" on="1"/>
        <pt x="389" y="347" on="1"/>
        <pt x="619" y="347" on="1"/>
        <pt x="636" y="315" on="0"/>
        <pt x="636" y="287" on="1"/>
        <pt x="597" y="281" on="0"/>
        <pt x="552" y="279" on="1"/>
        <pt x="558" y="111" on="0"/>
        <pt x="558" y="47" on="1"/>
        <pt x="533" y="30" on="0"/>
        <pt x="384" y="-13" on="0"/>
      </contour>
    </TTGlyph>
    <TTGlyph name="Gbreve" xMin="20" yMin="-13" xMax="636" yMax="931">
      <contour>
        <pt x="314" y="-13" on="1"/>
        <pt x="180" y="-13" on="0"/>
        <pt x="20" y="171" on="0"/>
        <pt x="20" y="532" on="0"/>
        <pt x="159" y="713" on="0"/>
        <pt x="454" y="713" on="0"/>
        <pt x="555" y="639" on="1"/>
        <pt x="555" y="588" on="0"/>
        <pt x="541" y="518" on="1"/>
        <pt x="519" y="514" on="0"/>
        <pt x="483" y="514" on="1"/>
        <pt x="461" y="617" on="1"/>
        <pt x="404" y="636" on="0"/>
        <pt x="321" y="636" on="1"/>
        <pt x="266" y="636" on="0"/>
        <pt x="170" y="606" on="1"/>
        <pt x="164" y="595" on="0"/>
        <pt x="146" y="556" on="0"/>
        <pt x="117" y="431" on="0"/>
        <pt x="117" y="368" on="1"/>
        <pt x="117" y="61" on="0"/>
        <pt x="316" y="61" on="1"/>
        <pt x="421" y="61" on="0"/>
        <pt x="478" y="99" on="1"/>
        <pt x="482" y="225" on="0"/>
        <pt x="483" y="288" on="1"/>
        <pt x="386" y="312" on="1"/>
        <pt x="389" y="347" on="1"/>
        <pt x="619" y="347" on="1"/>
        <pt x="636" y="315" on="0"/>
        <pt x="636" y="287" on="1"/>
        <pt x="597" y="281" on="0"/>
        <pt x="552" y="279" on="1"/>
        <pt x="558" y="111" on="0"/>
        <pt x="558" y="47" on="1"/>
        <pt x="533" y="30" on="0"/>
        <pt x="384" y="-13" on="0"/>
      </contour>
      <contour>
        <pt x="465" y="929" on="1"/>
        <pt x="465" y="873" on="0"/>
        <pt x="391" y="787" on="0"/>
        <pt x="266" y="787" on="0"/>
        <pt x="195" y="873" on="0"/>
        <pt x="195" y="929" on="1"/>
        <pt x="247" y="931" on="1"/>
        <pt x="247" y="899" on="0"/>
        <pt x="287" y="850" on="0"/>
        <pt x="329" y="850" on="1"/>
        <pt x="402" y="850" on="0"/>
        <pt x="402" y="929" on="1"/>
      </contour>
    </TTGlyph>
    <TTGlyph name="H" xMin="30" yMin="0" xMax="714" yMax="700">
      <contour>
        <pt x="213" y="401" on="1"/>
        <pt x="539" y="400" on="1"/>
        <pt x="537" y="522" on="0"/>
        <pt x="533" y="641" on="1"/>
        <pt x="496" y="648" on="0"/>
        <pt x="444" y="665" on="1"/>
        <pt x="447" y="700" on="1"/>
        <pt x="697" y="700" on="1"/>
        <pt x="714" y="668" on="0"/>
        <pt x="714" y="640" on="1"/>
        <pt x="664" y="636" on="0"/>
        <pt x="634" y="636" on="1"/>
        <pt x="623" y="68" on="1"/>
        <pt x="707" y="60" on="1"/>
        <pt x="707" y="32" on="0"/>
        <pt x="690" y="0" on="1"/>
        <pt x="460" y="0" on="1"/>
        <pt x="457" y="35" on="1"/>
        <pt x="504" y="51" on="0"/>
        <pt x="549" y="59" on="1"/>
        <pt x="541" y="337" on="1"/>
        <pt x="211" y="337" on="1"/>
        <pt x="209" y="157" on="0"/>
        <pt x="209" y="68" on="1"/>
        <pt x="293" y="60" on="1"/>
        <pt x="293" y="32" on="0"/>
        <pt x="276" y="0" on="1"/>
        <pt x="46" y="0" on="1"/>
        <pt x="43" y="35" on="1"/>
        <pt x="90" y="51" on="0"/>
        <pt x="135" y="59" on="1"/>
        <pt x="125" y="447" on="0"/>
        <pt x="119" y="641" on="1"/>
        <pt x="82" y="648" on="0"/>
        <pt x="30" y="665" on="1"/>
        <pt x="33" y="700" on="1"/>
        <pt x="283" y="700" on="1"/>
        <pt x="300" y="668" on="0"/>
        <pt x="300" y="640" on="1"/>
        <pt x="250" y="636" on="0"/>
        <pt x="220" y="636" on="1"/>
        <pt x="217" y="560" on="0"/>
      </contour>
    </TTGlyph>
    <TTGlyph name="I" xMin="55" yMin="0" xMax="325" yMax="700">
      <contour>
        <pt x="244" y="636" on="1"/>
        <pt x="234" y="68" on="1"/>
        <pt x="318" y="60" on="1"/>
        <pt x="318" y="32" on="0"/>
        <pt x="301" y="0" on="1"/>
        <pt x="71" y="0" on="1"/>
        <pt x="68" y="35" on="1"/>
        <pt x="114" y="51" on="0"/>
        <pt x="159" y="59" on="1"/>
        <pt x="157" y="124" on="0"/>
        <pt x="148" y="530" on="0"/>
        <pt x="145" y="641" on="1"/>
        <pt x="105" y="649" on="0"/>
        <pt x="55" y="665" on="1"/>
        <pt x="58" y="700" on="1"/>
        <pt x="308" y="700" on="1"/>
        <pt x="325" y="668" on="0"/>
        <pt x="325" y="640" on="1"/>
        <pt x="274" y="636" on="0"/>
      </contour>
    </TTGlyph>
    <TTGlyph name="IJ" xMin="55" yMin="-13" xMax="814" yMax="700">
      <contour>
        <pt x="244" y="636" on="1"/>
        <pt x="234" y="68" on="1"/>
        <pt x="318" y="60" on="1"/>
        <pt x="318" y="32" on="0"/>
        <pt x="301" y="0" on="1"/>
        <pt x="71" y="0" on="1"/>
        <pt x="68" y="35" on="1"/>
        <pt x="114" y="51" on="0"/>
        <pt x="159" y="59" on="1"/>
        <pt x="157" y="124" on="0"/>
        <pt x="148" y="530" on="0"/>
        <pt x="145" y="641" on="1"/>
        <pt x="105" y="649" on="0"/>
        <pt x="55" y="665" on="1"/>
        <pt x="58" y="700" on="1"/>
        <pt x="308" y="700" on="1"/>
        <pt x="325" y="668" on="0"/>
        <pt x="325" y="640" on="1"/>
        <pt x="274" y="636" on="0"/>
      </contour>
      <contour>
        <pt x="480" y="73" on="1"/>
        <pt x="507" y="63" on="0"/>
        <pt x="595" y="63" on="0"/>
        <pt x="646" y="114" on="0"/>
        <pt x="646" y="247" on="0"/>
        <pt x="642" y="397" on="0"/>
        <pt x="634" y="588" on="0"/>
        <pt x="632" y="641" on="1"/>
        <pt x="602" y="645" on="0"/>
        <pt x="544" y="665" on="1"/>
        <pt x="547" y="700" on="1"/>
        <pt x="797" y="700" on="1"/>
        <pt x="814" y="668" on="0"/>
        <pt x="814" y="640" on="1"/>
        <pt x="802" y="636" on="0"/>
        <pt x="734" y="636" on="1"/>
        <pt x="732" y="547" on="0"/>
        <pt x="727" y="219" on="0"/>
        <pt x="726" y="167" on="1"/>
        <pt x="724" y="82" on="0"/>
        <pt x="647" y="-13" on="0"/>
        <pt x="573" y="-13" on="1"/>
        <pt x="519" y="-13" on="0"/>
        <pt x="405" y="17" on="0"/>
        <pt x="385" y="32" on="1"/>
        <pt x="386" y="108" on="0"/>
        <pt x="401" y="196" on="1"/>
        <pt x="417" y="203" on="0"/>
        <pt x="460" y="203" on="1"/>
      </contour>
    </TTGlyph>
    <TTGlyph name="Iacute" xMin="55" yMin="0" xMax="331" yMax="928">
      <contour>
        <pt x="234" y="68" on="1"/>
        <pt x="279" y="66" on="0"/>
        <pt x="318" y="60" on="1"/>
        <pt x="318" y="32" on="0"/>
        <pt x="301" y="0" on="1"/>
        <pt x="71" y="0" on="1"/>
        <pt x="68" y="35" on="1"/>
        <pt x="116" y="50" on="0"/>
        <pt x="159" y="59" on="1"/>
        <pt x="157" y="124" on="0"/>
        <pt x="148" y="530" on="0"/>
        <pt x="145" y="641" on="1"/>
        <pt x="101" y="649" on="0"/>
        <pt x="55" y="665" on="1"/>
        <pt x="58" y="700" on="1"/>
        <pt x="308" y="700" on="1"/>
        <pt x="325" y="668" on="0"/>
        <pt x="325" y="640" on="1"/>
        <pt x="244" y="636" on="1"/>
      </contour>
      <contour>
        <pt x="149" y="814" on="1"/>
        <pt x="289" y="928" on="1"/>
        <pt x="328" y="898" on="0"/>
        <pt x="331" y="867" on="1"/>
        <pt x="307" y="844" on="0"/>
        <pt x="236" y="797" on="0"/>
        <pt x="189" y="773" on="1"/>
        <pt x="171" y="786" on="0"/>
      </contour>
    </TTGlyph>
    <TTGlyph name="Ibreve" xMin="55" yMin="0" xMax="325" yMax="931">
      <contour>
        <pt x="234" y="68" on="1"/>
        <pt x="279" y="66" on="0"/>
        <pt x="318" y="60" on="1"/>
        <pt x="318" y="32" on="0"/>
        <pt x="301" y="0" on="1"/>
        <pt x="71" y="0" on="1"/>
        <pt x="68" y="35" on="1"/>
        <pt x="116" y="50" on="0"/>
        <pt x="159" y="59" on="1"/>
        <pt x="157" y="124" on="0"/>
        <pt x="148" y="530" on="0"/>
        <pt x="145" y="641" on="1"/>
        <pt x="101" y="649" on="0"/>
        <pt x="55" y="665" on="1"/>
        <pt x="58" y="700" on="1"/>
        <pt x="308" y="700" on="1"/>
        <pt x="325" y="668" on="0"/>
        <pt x="325" y="640" on="1"/>
        <pt x="244" y="636" on="1"/>
      </contour>
      <contour>
        <pt x="325" y="929" on="1"/>
        <pt x="325" y="873" on="0"/>
        <pt x="251" y="787" on="0"/>
        <pt x="126" y="787" on="0"/>
        <pt x="55" y="873" on="0"/>
        <pt x="55" y="929" on="1"/>
        <pt x="107" y="931" on="1"/>
        <pt x="107" y="899" on="0"/>
        <pt x="147" y="850" on="0"/>
        <pt x="189" y="850" on="1"/>
        <pt x="262" y="850" on="0"/>
        <pt x="262" y="929" on="1"/>
      </contour>
    </TTGlyph>
    <TTGlyph name="Icircumflex" xMin="55" yMin="0" xMax="337" yMax="928">
      <contour>
        <pt x="240" y="68" on="1"/>
        <pt x="285" y="66" on="0"/>
        <pt x="324" y="60" on="1"/>
        <pt x="324" y="32" on="0"/>
        <pt x="307" y="0" on="1"/>
        <pt x="77" y="0" on="1"/>
        <pt x="74" y="35" on="1"/>
        <pt x="122" y="50" on="0"/>
        <pt x="165" y="59" on="1"/>
        <pt x="163" y="124" on="0"/>
        <pt x="154" y="530" on="0"/>
        <pt x="151" y="641" on="1"/>
        <pt x="107" y="649" on="0"/>
        <pt x="61" y="665" on="1"/>
        <pt x="64" y="700" on="1"/>
        <pt x="314" y="700" on="1"/>
        <pt x="331" y="668" on="0"/>
        <pt x="331" y="640" on="1"/>
        <pt x="250" y="636" on="1"/>
      </contour>
      <contour>
        <pt x="196" y="928" on="1"/>
        <pt x="337" y="814" on="1"/>
        <pt x="331" y="805" on="0"/>
        <pt x="304" y="778" on="1"/>
        <pt x="303" y="779" on="0"/>
        <pt x="274" y="792" on="0"/>
        <pt x="261" y="799" on="1"/>
        <pt x="222" y="820" on="0"/>
        <pt x="196" y="844" on="1"/>
        <pt x="161" y="811" on="0"/>
        <pt x="104" y="786" on="1"/>
        <pt x="89" y="779" on="0"/>
        <pt x="88" y="778" on="1"/>
        <pt x="64" y="800" on="0"/>
        <pt x="55" y="814" on="1"/>
      </contour>
    </TTGlyph>
    <TTGlyph name="Idieresis" xMin="55" yMin="0" xMax="325" yMax="878">
      <contour>
        <pt x="234" y="68" on="1"/>
        <pt x="279" y="66" on="0"/>
        <pt x="318" y="60" on="1"/>
        <pt x="318" y="32" on="0"/>
        <pt x="301" y="0" on="1"/>
        <pt x="71" y="0" on="1"/>
        <pt x="68" y="35" on="1"/>
        <pt x="116" y="50" on="0"/>
        <pt x="159" y="59" on="1"/>
        <pt x="157" y="124" on="0"/>
        <pt x="148" y="530" on="0"/>
        <pt x="145" y="641" on="1"/>
        <pt x="101" y="649" on="0"/>
        <pt x="55" y="665" on="1"/>
        <pt x="58" y="700" on="1"/>
        <pt x="308" y="700" on="1"/>
        <pt x="325" y="668" on="0"/>
        <pt x="325" y="640" on="1"/>
        <pt x="244" y="636" on="1"/>
      </contour>
      <contour>
        <pt x="149" y="798" on="1"/>
        <pt x="129" y="794" on="0"/>
        <pt x="84" y="794" on="0"/>
        <pt x="70" y="796" on="1"/>
        <pt x="65" y="814" on="0"/>
        <pt x="65" y="851" on="0"/>
        <pt x="67" y="875" on="1"/>
        <pt x="82" y="878" on="0"/>
        <pt x="134" y="878" on="0"/>
        <pt x="146" y="877" on="1"/>
        <pt x="150" y="855" on="0"/>
        <pt x="150" y="808" on="0"/>
      </contour>
      <contour>
        <pt x="314" y="798" on="1"/>
        <pt x="294" y="794" on="0"/>
        <pt x="249" y="794" on="0"/>
        <pt x="235" y="796" on="1"/>
        <pt x="230" y="814" on="0"/>
        <pt x="230" y="851" on="0"/>
        <pt x="232" y="875" on="1"/>
        <pt x="247" y="878" on="0"/>
        <pt x="299" y="878" on="0"/>
        <pt x="311" y="877" on="1"/>
        <pt x="315" y="855" on="0"/>
        <pt x="315" y="808" on="0"/>
      </contour>
    </TTGlyph>
    <TTGlyph name="Igrave" xMin="55" yMin="0" xMax="325" yMax="928">
      <component glyphName="I" x="0" y="0" flags="0x1004"/>
      <component glyphName="grave" x="-126" y="192" flags="0x1004"/>
    </TTGlyph>
    <TTGlyph name="Imacron" xMin="55" yMin="0" xMax="325" yMax="897">
      <contour>
        <pt x="234" y="68" on="1"/>
        <pt x="279" y="66" on="0"/>
        <pt x="318" y="60" on="1"/>
        <pt x="318" y="32" on="0"/>
        <pt x="301" y="0" on="1"/>
        <pt x="71" y="0" on="1"/>
        <pt x="68" y="35" on="1"/>
        <pt x="116" y="50" on="0"/>
        <pt x="159" y="59" on="1"/>
        <pt x="157" y="124" on="0"/>
        <pt x="148" y="530" on="0"/>
        <pt x="145" y="641" on="1"/>
        <pt x="101" y="649" on="0"/>
        <pt x="55" y="665" on="1"/>
        <pt x="58" y="700" on="1"/>
        <pt x="308" y="700" on="1"/>
        <pt x="325" y="668" on="0"/>
        <pt x="325" y="640" on="1"/>
        <pt x="244" y="636" on="1"/>
      </contour>
      <contour>
        <pt x="300" y="892" on="1"/>
        <pt x="302" y="876" on="0"/>
        <pt x="302" y="866" on="1"/>
        <pt x="300" y="831" on="1"/>
        <pt x="248" y="826" on="0"/>
        <pt x="202" y="826" on="1"/>
        <pt x="81" y="831" on="1"/>
        <pt x="79" y="845" on="0"/>
        <pt x="79" y="857" on="1"/>
        <pt x="81" y="892" on="1"/>
        <pt x="133" y="897" on="0"/>
        <pt x="179" y="897" on="1"/>
      </contour>
    </TTGlyph>
    <TTGlyph name="Itilde" xMin="55" yMin="0" xMax="404" yMax="903">
      <contour>
        <pt x="272" y="68" on="1"/>
        <pt x="317" y="66" on="0"/>
        <pt x="356" y="60" on="1"/>
        <pt x="356" y="32" on="0"/>
        <pt x="339" y="0" on="1"/>
        <pt x="109" y="0" on="1"/>
        <pt x="106" y="35" on="1"/>
        <pt x="160" y="52" on="0"/>
        <pt x="197" y="59" on="1"/>
        <pt x="195" y="124" on="0"/>
        <pt x="186" y="530" on="0"/>
        <pt x="183" y="641" on="1"/>
        <pt x="139" y="649" on="0"/>
        <pt x="93" y="665" on="1"/>
        <pt x="96" y="700" on="1"/>
        <pt x="346" y="700" on="1"/>
        <pt x="363" y="668" on="0"/>
        <pt x="363" y="640" on="1"/>
        <pt x="282" y="636" on="1"/>
      </contour>
      <contour>
        <pt x="156" y="828" on="1"/>
        <pt x="127" y="809" on="0"/>
        <pt x="72" y="791" on="1"/>
        <pt x="55" y="820" on="1"/>
        <pt x="82" y="857" on="0"/>
        <pt x="159" y="903" on="0"/>
        <pt x="166" y="903" on="1"/>
        <pt x="185" y="903" on="0"/>
        <pt x="292" y="857" on="0"/>
        <pt x="303" y="854" on="1"/>
        <pt x="360" y="885" on="0"/>
        <pt x="387" y="894" on="1"/>
        <pt x="404" y="865" on="1"/>
        <pt x="377" y="828" on="0"/>
        <pt x="327" y="798" on="1"/>
        <pt x="323" y="796" on="0"/>
        <pt x="316" y="790" on="1"/>
        <pt x="300" y="779" on="0"/>
        <pt x="293" y="779" on="1"/>
        <pt x="273" y="786" on="0"/>
        <pt x="242" y="799" on="1"/>
        <pt x="173" y="828" on="0"/>
      </contour>
    </TTGlyph>
    <TTGlyph name="J" xMin="5" yMin="-13" xMax="434" yMax="700">
      <contour>
        <pt x="100" y="73" on="1"/>
        <pt x="127" y="63" on="0"/>
        <pt x="215" y="63" on="0"/>
        <pt x="266" y="114" on="0"/>
        <pt x="266" y="247" on="0"/>
        <pt x="262" y="397" on="0"/>
        <pt x="254" y="588" on="0"/>
        <pt x="252" y="641" on="1"/>
        <pt x="222" y="645" on="0"/>
        <pt x="164" y="665" on="1"/>
        <pt x="167" y="700" on="1"/>
        <pt x="417" y="700" on="1"/>
        <pt x="434" y="668" on="0"/>
        <pt x="434" y="640" on="1"/>
        <pt x="422" y="636" on="0"/>
        <pt x="354" y="636" on="1"/>
        <pt x="352" y="547" on="0"/>
        <pt x="347" y="219" on="0"/>
        <pt x="346" y="167" on="1"/>
        <pt x="344" y="82" on="0"/>
        <pt x="267" y="-13" on="0"/>
        <pt x="193" y="-13" on="1"/>
        <pt x="139" y="-13" on="0"/>
        <pt x="25" y="17" on="0"/>
        <pt x="5" y="32" on="1"/>
        <pt x="6" y="108" on="0"/>
        <pt x="21" y="196" on="1"/>
        <pt x="37" y="203" on="0"/>
        <pt x="80" y="203" on="1"/>
      </contour>
    </TTGlyph>
    <TTGlyph name="Jcircumflex" xMin="5" yMin="-13" xMax="445" yMax="928">
      <component glyphName="J" x="0" y="0" flags="0x1004"/>
      <component glyphName="circumflex" x="67" y="192" flags="0x1004"/>
    </TTGlyph>
    <TTGlyph name="K" xMin="30" yMin="0" xMax="674" yMax="700">
      <contour>
        <pt x="212" y="215" on="1"/>
        <pt x="209" y="68" on="1"/>
        <pt x="293" y="60" on="1"/>
        <pt x="293" y="32" on="0"/>
        <pt x="276" y="0" on="1"/>
        <pt x="46" y="0" on="1"/>
        <pt x="43" y="35" on="1"/>
        <pt x="90" y="51" on="0"/>
        <pt x="135" y="59" on="1"/>
        <pt x="125" y="447" on="0"/>
        <pt x="119" y="641" on="1"/>
        <pt x="82" y="648" on="0"/>
        <pt x="30" y="665" on="1"/>
        <pt x="33" y="700" on="1"/>
        <pt x="283" y="700" on="1"/>
        <pt x="300" y="668" on="0"/>
        <pt x="300" y="640" on="1"/>
        <pt x="250" y="636" on="0"/>
        <pt x="220" y="636" on="1"/>
        <pt x="218" y="532" on="0"/>
        <pt x="215" y="364" on="0"/>
        <pt x="214" y="330" on="1"/>
        <pt x="453" y="632" on="1"/>
        <pt x="373" y="640" on="1"/>
        <pt x="373" y="668" on="0"/>
        <pt x="390" y="700" on="1"/>
        <pt x="644" y="700" on="1"/>
        <pt x="647" y="656" on="1"/>
        <pt x="601" y="640" on="0"/>
        <pt x="557" y="632" on="1"/>
        <pt x="360" y="395" on="1"/>
        <pt x="590" y="68" on="1"/>
        <pt x="674" y="60" on="1"/>
        <pt x="674" y="32" on="0"/>
        <pt x="657" y="0" on="1"/>
        <pt x="532" y="0" on="1"/>
        <pt x="305" y="327" on="1"/>
      </contour>
    </TTGlyph>
    <TTGlyph name="L" xMin="69" yMin="0" xMax="563" yMax="700">
      <contour>
        <pt x="552" y="151" on="0"/>
        <pt x="563" y="71" on="0"/>
        <pt x="563" y="16" on="0"/>
        <pt x="560" y="0" on="1"/>
        <pt x="85" y="0" on="1"/>
        <pt x="82" y="35" on="1"/>
        <pt x="129" y="52" on="0"/>
        <pt x="167" y="58" on="1"/>
        <pt x="161" y="452" on="0"/>
        <pt x="157" y="639" on="1"/>
        <pt x="131" y="643" on="0"/>
        <pt x="69" y="663" on="1"/>
        <pt x="74" y="700" on="1"/>
        <pt x="315" y="700" on="1"/>
        <pt x="332" y="672" on="0"/>
        <pt x="332" y="641" on="1"/>
        <pt x="278" y="639" on="0"/>
        <pt x="254" y="638" on="1"/>
        <pt x="252" y="446" on="0"/>
        <pt x="249" y="131" on="0"/>
        <pt x="248" y="67" on="1"/>
        <pt x="467" y="67" on="1"/>
        <pt x="491" y="162" on="1"/>
        <pt x="541" y="162" on="0"/>
        <pt x="549" y="157" on="1"/>
      </contour>
    </TTGlyph>
    <TTGlyph name="Ldotaccent" xMin="69" yMin="0" xMax="563" yMax="700">
      <component glyphName="L" x="0" y="0" flags="0x1004"/>
      <component glyphName="dotaccent" x="401" y="-328" flags="0x1004"/>
    </TTGlyph>
    <TTGlyph name="Ll" xMin="55" yMin="0" xMax="770" yMax="700">
      <contour>
        <pt x="685" y="187" on="1"/>
        <pt x="694" y="188" on="0"/>
        <pt x="708" y="188" on="1"/>
        <pt x="736" y="188" on="0"/>
        <pt x="746" y="183" on="1"/>
        <pt x="768" y="103" on="0"/>
        <pt x="769" y="0" on="1"/>
        <pt x="59" y="0" on="1"/>
        <pt x="55" y="40" on="1"/>
        <pt x="128" y="58" on="0"/>
        <pt x="169" y="63" on="1"/>
        <pt x="159" y="443" on="0"/>
        <pt x="153" y="641" on="1"/>
        <pt x="125" y="645" on="0"/>
        <pt x="64" y="665" on="1"/>
        <pt x="67" y="700" on="1"/>
        <pt x="317" y="700" on="1"/>
        <pt x="334" y="669" on="0"/>
        <pt x="334" y="640" on="1"/>
        <pt x="278" y="637" on="0"/>
        <pt x="254" y="636" on="1"/>
        <pt x="249" y="469" on="0"/>
        <pt x="243" y="68" on="1"/>
        <pt x="672" y="68" on="1"/>
      </contour>
      <contour>
        <pt x="686" y="420" on="1"/>
        <pt x="695" y="421" on="0"/>
        <pt x="708" y="421" on="1"/>
        <pt x="732" y="421" on="0"/>
        <pt x="747" y="416" on="1"/>
        <pt x="769" y="336" on="0"/>
        <pt x="770" y="233" on="1"/>
        <pt x="357" y="233" on="1"/>
        <pt x="353" y="273" on="1"/>
        <pt x="426" y="291" on="0"/>
        <pt x="467" y="296" on="1"/>
        <pt x="451" y="641" on="1"/>
        <pt x="423" y="645" on="0"/>
        <pt x="362" y="665" on="1"/>
        <pt x="365" y="700" on="1"/>
        <pt x="615" y="700" on="1"/>
        <pt x="632" y="669" on="0"/>
        <pt x="632" y="640" on="1"/>
        <pt x="576" y="637" on="0"/>
        <pt x="552" y="636" on="1"/>
        <pt x="541" y="301" on="1"/>
        <pt x="673" y="301" on="1"/>
      </contour>
    </TTGlyph>
    <TTGlyph name="Lslash" xMin="63" yMin="0" xMax="563" yMax="700">
      <contour>
        <pt x="63" y="314" on="1"/>
        <pt x="108" y="337" on="0"/>
        <pt x="162" y="355" on="1"/>
        <pt x="161" y="448" on="0"/>
        <pt x="157" y="639" on="1"/>
        <pt x="131" y="643" on="0"/>
        <pt x="69" y="663" on="1"/>
        <pt x="74" y="700" on="1"/>
        <pt x="315" y="700" on="1"/>
        <pt x="332" y="672" on="0"/>
        <pt x="332" y="641" on="1"/>
        <pt x="278" y="639" on="0"/>
        <pt x="254" y="638" on="1"/>
        <pt x="251" y="524" on="0"/>
        <pt x="251" y="384" on="1"/>
        <pt x="334" y="410" on="1"/>
        <pt x="349" y="381" on="0"/>
        <pt x="353" y="354" on="1"/>
        <pt x="311" y="334" on="0"/>
        <pt x="250" y="314" on="1"/>
        <pt x="248" y="220" on="0"/>
        <pt x="248" y="67" on="1"/>
        <pt x="467" y="67" on="1"/>
        <pt x="491" y="162" on="1"/>
        <pt x="541" y="162" on="0"/>
        <pt x="549" y="157" on="1"/>
        <pt x="552" y="151" on="0"/>
        <pt x="563" y="71" on="0"/>
        <pt x="563" y="16" on="0"/>
        <pt x="560" y="0" on="1"/>
        <pt x="85" y="0" on="1"/>
        <pt x="82" y="35" on="1"/>
        <pt x="129" y="52" on="0"/>
        <pt x="167" y="58" on="1"/>
        <pt x="165" y="210" on="0"/>
        <pt x="163" y="286" on="1"/>
        <pt x="82" y="261" on="1"/>
        <pt x="71" y="279" on="0"/>
      </contour>
    </TTGlyph>
    <TTGlyph name="Lu" xMin="55" yMin="0" xMax="895" yMax="700">
      <contour>
        <pt x="686" y="301" on="0"/>
        <pt x="724" y="369" on="0"/>
        <pt x="724" y="511" on="0"/>
        <pt x="710" y="700" on="1"/>
        <pt x="878" y="700" on="1"/>
        <pt x="895" y="666" on="0"/>
        <pt x="895" y="646" on="1"/>
        <pt x="895" y="640" on="1"/>
        <pt x="837" y="637" on="0"/>
        <pt x="815" y="636" on="1"/>
        <pt x="806" y="383" on="1"/>
        <pt x="803" y="309" on="0"/>
        <pt x="706" y="232" on="0"/>
        <pt x="623" y="232" on="1"/>
        <pt x="573" y="232" on="0"/>
        <pt x="520" y="262" on="1"/>
        <pt x="493" y="277" on="0"/>
        <pt x="457" y="341" on="0"/>
        <pt x="457" y="384" on="1"/>
        <pt x="458" y="641" on="1"/>
        <pt x="426" y="645" on="0"/>
        <pt x="362" y="665" on="1"/>
        <pt x="365" y="700" on="1"/>
        <pt x="615" y="700" on="1"/>
        <pt x="632" y="668" on="0"/>
        <pt x="632" y="640" on="1"/>
        <pt x="587" y="637" on="0"/>
        <pt x="552" y="636" on="1"/>
        <pt x="551" y="609" on="0"/>
        <pt x="545" y="461" on="0"/>
        <pt x="545" y="375" on="0"/>
        <pt x="588" y="301" on="0"/>
      </contour>
      <contour>
        <pt x="685" y="187" on="1"/>
        <pt x="694" y="188" on="0"/>
        <pt x="708" y="188" on="1"/>
        <pt x="736" y="188" on="0"/>
        <pt x="746" y="183" on="1"/>
        <pt x="768" y="103" on="0"/>
        <pt x="769" y="0" on="1"/>
        <pt x="59" y="0" on="1"/>
        <pt x="55" y="40" on="1"/>
        <pt x="128" y="58" on="0"/>
        <pt x="169" y="63" on="1"/>
        <pt x="159" y="443" on="0"/>
        <pt x="153" y="641" on="1"/>
        <pt x="125" y="645" on="0"/>
        <pt x="64" y="665" on="1"/>
        <pt x="67" y="700" on="1"/>
        <pt x="317" y="700" on="1"/>
        <pt x="334" y="669" on="0"/>
        <pt x="334" y="640" on="1"/>
        <pt x="278" y="637" on="0"/>
        <pt x="254" y="636" on="1"/>
        <pt x="249" y="469" on="0"/>
        <pt x="243" y="68" on="1"/>
        <pt x="672" y="68" on="1"/>
      </contour>
    </TTGlyph>
    <TTGlyph name="M" xMin="15" yMin="0" xMax="957" yMax="700">
      <contour>
        <pt x="761" y="631" on="1"/>
        <pt x="866" y="68" on="1"/>
        <pt x="957" y="59" on="1"/>
        <pt x="957" y="32" on="0"/>
        <pt x="940" y="0" on="1"/>
        <pt x="710" y="0" on="1"/>
        <pt x="707" y="35" on="1"/>
        <pt x="737" y="48" on="0"/>
        <pt x="781" y="56" on="1"/>
        <pt x="674" y="617" on="1"/>
        <pt x="542" y="48" on="1"/>
        <pt x="443" y="48" on="1"/>
        <pt x="261" y="619" on="1"/>
        <pt x="180" y="68" on="1"/>
        <pt x="265" y="60" on="1"/>
        <pt x="265" y="32" on="0"/>
        <pt x="248" y="0" on="1"/>
        <pt x="18" y="0" on="1"/>
        <pt x="15" y="35" on="1"/>
        <pt x="59" y="51" on="0"/>
        <pt x="103" y="59" on="1"/>
        <pt x="191" y="639" on="1"/>
        <pt x="130" y="648" on="0"/>
        <pt x="94" y="660" on="1"/>
        <pt x="98" y="700" on="1"/>
        <pt x="331" y="700" on="1"/>
        <pt x="490" y="152" on="1"/>
        <pt x="494" y="152" on="1"/>
        <pt x="618" y="700" on="1"/>
        <pt x="841" y="700" on="1"/>
        <pt x="858" y="668" on="0"/>
        <pt x="858" y="638" on="1"/>
        <pt x="793" y="631" on="0"/>
      </contour>
    </TTGlyph>
    <TTGlyph name="N" xMin="30" yMin="0" xMax="760" yMax="700">
      <contour>
        <pt x="218" y="576" on="1"/>
        <pt x="208" y="68" on="1"/>
        <pt x="292" y="60" on="1"/>
        <pt x="292" y="32" on="0"/>
        <pt x="275" y="0" on="1"/>
        <pt x="45" y="0" on="1"/>
        <pt x="42" y="35" on="1"/>
        <pt x="96" y="53" on="0"/>
        <pt x="134" y="59" on="1"/>
        <pt x="132" y="124" on="0"/>
        <pt x="123" y="530" on="0"/>
        <pt x="120" y="641" on="1"/>
        <pt x="82" y="647" on="0"/>
        <pt x="30" y="665" on="1"/>
        <pt x="33" y="700" on="1"/>
        <pt x="231" y="700" on="1"/>
        <pt x="596" y="117" on="1"/>
        <pt x="579" y="641" on="1"/>
        <pt x="542" y="648" on="0"/>
        <pt x="490" y="665" on="1"/>
        <pt x="493" y="700" on="1"/>
        <pt x="743" y="700" on="1"/>
        <pt x="760" y="668" on="0"/>
        <pt x="760" y="640" on="1"/>
        <pt x="710" y="636" on="0"/>
        <pt x="680" y="636" on="1"/>
        <pt x="670" y="0" on="1"/>
        <pt x="573" y="0" on="1"/>
      </contour>
    </TTGlyph>
    <TTGlyph name="Nacute" xMin="30" yMin="0" xMax="760" yMax="928">
      <contour>
        <pt x="344" y="814" on="1"/>
        <pt x="484" y="928" on="1"/>
        <pt x="523" y="898" on="0"/>
        <pt x="526" y="867" on="1"/>
        <pt x="502" y="844" on="0"/>
        <pt x="431" y="797" on="0"/>
        <pt x="384" y="773" on="1"/>
        <pt x="366" y="786" on="0"/>
      </contour>
      <contour>
        <pt x="670" y="0" on="1"/>
        <pt x="573" y="0" on="1"/>
        <pt x="218" y="576" on="1"/>
        <pt x="217" y="479" on="0"/>
        <pt x="209" y="124" on="0"/>
        <pt x="208" y="68" on="1"/>
        <pt x="253" y="66" on="0"/>
        <pt x="292" y="60" on="1"/>
        <pt x="292" y="32" on="0"/>
        <pt x="275" y="0" on="1"/>
        <pt x="45" y="0" on="1"/>
        <pt x="42" y="35" on="1"/>
        <pt x="96" y="53" on="0"/>
        <pt x="134" y="59" on="1"/>
        <pt x="132" y="124" on="0"/>
        <pt x="123" y="530" on="0"/>
        <pt x="120" y="641" on="1"/>
        <pt x="78" y="647" on="0"/>
        <pt x="30" y="665" on="1"/>
        <pt x="30" y="680" on="0"/>
        <pt x="33" y="700" on="1"/>
        <pt x="231" y="700" on="1"/>
        <pt x="596" y="117" on="1"/>
        <pt x="579" y="641" on="1"/>
        <pt x="535" y="649" on="0"/>
        <pt x="490" y="665" on="1"/>
        <pt x="493" y="700" on="1"/>
        <pt x="743" y="700" on="1"/>
        <pt x="760" y="668" on="0"/>
        <pt x="760" y="640" on="1"/>
        <pt x="680" y="636" on="1"/>
      </contour>
    </TTGlyph>
    <TTGlyph name="Ntilde" xMin="30" yMin="0" xMax="760" yMax="903">
      <component glyphName="N" x="0" y="0" flags="0x1004"/>
      <component glyphName="tilde" x="179" y="192" flags="0x1004"/>
    </TTGlyph>
    <TTGlyph name="O" xMin="20" yMin="-12" xMax="627" yMax="713">
      <contour>
        <pt x="327" y="65" on="1"/>
        <pt x="529" y="65" on="0"/>
        <pt x="529" y="634" on="0"/>
        <pt x="327" y="634" on="1"/>
        <pt x="232" y="634" on="0"/>
        <pt x="172" y="606" on="1"/>
        <pt x="118" y="499" on="0"/>
        <pt x="118" y="220" on="0"/>
        <pt x="211" y="65" on="0"/>
      </contour>
      <contour>
        <pt x="20" y="522" on="0"/>
        <pt x="165" y="713" on="0"/>
        <pt x="492" y="713" on="0"/>
        <pt x="627" y="538" on="0"/>
        <pt x="627" y="184" on="0"/>
        <pt x="482" y="-12" on="0"/>
        <pt x="165" y="-12" on="0"/>
        <pt x="20" y="170" on="0"/>
      </contour>
    </TTGlyph>
    <TTGlyph name="OE" xMin="20" yMin="-4" xMax="827" yMax="702">
      <contour>
        <pt x="412" y="620" on="1"/>
        <pt x="375" y="634" on="0"/>
        <pt x="279" y="634" on="0"/>
        <pt x="203" y="620" on="0"/>
        <pt x="173" y="606" on="1"/>
        <pt x="167" y="596" on="0"/>
        <pt x="149" y="557" on="0"/>
        <pt x="120" y="421" on="0"/>
        <pt x="120" y="344" on="1"/>
        <pt x="120" y="200" on="0"/>
        <pt x="224" y="66" on="0"/>
        <pt x="326" y="66" on="1"/>
        <pt x="379" y="66" on="0"/>
        <pt x="422" y="86" on="1"/>
      </contour>
      <contour>
        <pt x="810" y="699" on="1"/>
        <pt x="812" y="686" on="0"/>
        <pt x="812" y="660" on="1"/>
        <pt x="812" y="605" on="0"/>
        <pt x="798" y="541" on="1"/>
        <pt x="776" y="536" on="0"/>
        <pt x="740" y="536" on="1"/>
        <pt x="716" y="631" on="1"/>
        <pt x="511" y="631" on="1"/>
        <pt x="507" y="472" on="0"/>
        <pt x="506" y="390" on="1"/>
        <pt x="664" y="390" on="1"/>
        <pt x="672" y="462" on="1"/>
        <pt x="700" y="462" on="0"/>
        <pt x="732" y="445" on="1"/>
        <pt x="732" y="255" on="1"/>
        <pt x="697" y="252" on="1"/>
        <pt x="682" y="295" on="0"/>
        <pt x="677" y="324" on="1"/>
        <pt x="506" y="324" on="1"/>
        <pt x="504" y="237" on="0"/>
        <pt x="502" y="67" on="1"/>
        <pt x="731" y="67" on="1"/>
        <pt x="755" y="161" on="1"/>
        <pt x="813" y="156" on="1"/>
        <pt x="827" y="100" on="0"/>
        <pt x="827" y="13" on="0"/>
        <pt x="825" y="0" on="1"/>
        <pt x="423" y="0" on="1"/>
        <pt x="384" y="-4" on="0"/>
        <pt x="326" y="-4" on="1"/>
        <pt x="174" y="-4" on="0"/>
        <pt x="20" y="162" on="0"/>
        <pt x="20" y="517" on="0"/>
        <pt x="162" y="702" on="0"/>
        <pt x="320" y="702" on="1"/>
        <pt x="382" y="702" on="0"/>
        <pt x="430" y="699" on="1"/>
      </contour>
    </TTGlyph>
    <TTGlyph name="Oacute" xMin="20" yMin="-12" xMax="627" yMax="928">
      <contour>
        <pt x="327" y="65" on="1"/>
        <pt x="529" y="65" on="0"/>
        <pt x="529" y="634" on="0"/>
        <pt x="327" y="634" on="1"/>
        <pt x="232" y="634" on="0"/>
        <pt x="172" y="606" on="1"/>
        <pt x="118" y="499" on="0"/>
        <pt x="118" y="220" on="0"/>
        <pt x="211" y="65" on="0"/>
      </contour>
      <contour>
        <pt x="20" y="522" on="0"/>
        <pt x="165" y="713" on="0"/>
        <pt x="492" y="713" on="0"/>
        <pt x="627" y="538" on="0"/>
        <pt x="627" y="184" on="0"/>
        <pt x="482" y="-12" on="0"/>
        <pt x="165" y="-12" on="0"/>
        <pt x="20" y="170" on="0"/>
      </contour>
      <contour>
        <pt x="263" y="814" on="1"/>
        <pt x="403" y="928" on="1"/>
        <pt x="442" y="898" on="0"/>
        <pt x="445" y="867" on="1"/>
        <pt x="421" y="844" on="0"/>
        <pt x="350" y="797" on="0"/>
        <pt x="303" y="773" on="1"/>
        <pt x="285" y="786" on="0"/>
      </contour>
    </TTGlyph>
    <TTGlyph name="Obreve" xMin="20" yMin="-12" xMax="627" yMax="931">
      <component glyphName="O" x="0" y="0" flags="0x1004"/>
      <component glyphName="breve" x="124" y="192" flags="0x1004"/>
    </TTGlyph>
    <TTGlyph name="Ocircumflex" xMin="20" yMin="-12" xMax="627" yMax="928">
      <component glyphName="O" x="0" y="0" flags="0x1004"/>
      <component glyphName="circumflex" x="87" y="192" flags="0x1004"/>
    </TTGlyph>
    <TTGlyph name="Odieresis" xMin="20" yMin="-12" xMax="627" yMax="878">
      <component glyphName="O" x="0" y="0" flags="0x1004"/>
      <component glyphName="dieresis" x="-9" y="192" flags="0x1004"/>
    </TTGlyph>
    <TTGlyph name="Ograve" xMin="20" yMin="-12" xMax="627" yMax="928">
      <contour>
        <pt x="327" y="65" on="1"/>
        <pt x="529" y="65" on="0"/>
        <pt x="529" y="634" on="0"/>
        <pt x="327" y="634" on="1"/>
        <pt x="232" y="634" on="0"/>
        <pt x="172" y="606" on="1"/>
        <pt x="118" y="499" on="0"/>
        <pt x="118" y="220" on="0"/>
        <pt x="211" y="65" on="0"/>
      </contour>
      <contour>
        <pt x="20" y="522" on="0"/>
        <pt x="165" y="713" on="0"/>
        <pt x="492" y="713" on="0"/>
        <pt x="627" y="538" on="0"/>
        <pt x="627" y="184" on="0"/>
        <pt x="482" y="-12" on="0"/>
        <pt x="165" y="-12" on="0"/>
        <pt x="20" y="170" on="0"/>
      </contour>
      <contour>
        <pt x="394" y="814" on="1"/>
        <pt x="371" y="787" on="0"/>
        <pt x="354" y="773" on="1"/>
        <pt x="266" y="815" on="0"/>
        <pt x="212" y="867" on="1"/>
        <pt x="213" y="881" on="0"/>
        <pt x="234" y="911" on="0"/>
        <pt x="254" y="928" on="1"/>
      </contour>
    </TTGlyph>
    <TTGlyph name="Omacron" xMin="20" yMin="-12" xMax="627" yMax="897">
      <component glyphName="O" x="0" y="0" flags="0x1004"/>
      <component glyphName="macron" x="180" y="192" flags="0x1004"/>
    </TTGlyph>
    <TTGlyph name="Omega" xMin="65" yMin="0" xMax="672" yMax="712">
      <contour>
        <pt x="512" y="109" on="0"/>
        <pt x="576" y="232" on="0"/>
        <pt x="576" y="486" on="0"/>
        <pt x="476" y="634" on="0"/>
        <pt x="367" y="634" on="1"/>
        <pt x="329" y="634" on="0"/>
        <pt x="254" y="620" on="0"/>
        <pt x="217" y="606" on="1"/>
        <pt x="211" y="596" on="0"/>
        <pt x="193" y="559" on="0"/>
        <pt x="164" y="434" on="0"/>
        <pt x="164" y="366" on="1"/>
        <pt x="164" y="245" on="0"/>
        <pt x="213" y="123" on="0"/>
        <pt x="289" y="71" on="1"/>
        <pt x="289" y="32" on="0"/>
        <pt x="272" y="0" on="1"/>
        <pt x="89" y="0" on="1"/>
        <pt x="86" y="37" on="1"/>
        <pt x="150" y="62" on="0"/>
        <pt x="195" y="70" on="1"/>
        <pt x="132" y="119" on="0"/>
        <pt x="65" y="283" on="0"/>
        <pt x="65" y="363" on="1"/>
        <pt x="65" y="526" on="0"/>
        <pt x="211" y="712" on="0"/>
        <pt x="532" y="712" on="0"/>
        <pt x="672" y="543" on="0"/>
        <pt x="672" y="373" on="1"/>
        <pt x="672" y="292" on="0"/>
        <pt x="592" y="119" on="0"/>
        <pt x="529" y="70" on="1"/>
        <pt x="580" y="60" on="0"/>
        <pt x="650" y="37" on="1"/>
        <pt x="647" y="0" on="1"/>
        <pt x="456" y="0" on="1"/>
        <pt x="439" y="32" on="0"/>
        <pt x="439" y="71" on="1"/>
      </contour>
    </TTGlyph>
    <TTGlyph name="Oslash" xMin="20" yMin="-101" xMax="627" yMax="800">
      <contour>
        <pt x="327" y="713" on="1"/>
        <pt x="378" y="713" on="0"/>
        <pt x="418" y="704" on="1"/>
        <pt x="452" y="800" on="1"/>
        <pt x="493" y="791" on="0"/>
        <pt x="517" y="775" on="1"/>
        <pt x="483" y="684" on="1"/>
        <pt x="560" y="648" on="0"/>
        <pt x="627" y="487" on="0"/>
        <pt x="627" y="358" on="1"/>
        <pt x="627" y="184" on="0"/>
        <pt x="482" y="-12" on="0"/>
        <pt x="327" y="-12" on="1"/>
        <pt x="276" y="-12" on="0"/>
        <pt x="230" y="-1" on="1"/>
        <pt x="194" y="-101" on="1"/>
        <pt x="158" y="-96" on="0"/>
        <pt x="141" y="-79" on="1"/>
        <pt x="175" y="17" on="1"/>
        <pt x="20" y="88" on="0"/>
        <pt x="20" y="344" on="1"/>
        <pt x="20" y="522" on="0"/>
        <pt x="165" y="713" on="0"/>
      </contour>
      <contour>
        <pt x="118" y="358" on="1"/>
        <pt x="118" y="164" on="0"/>
        <pt x="204" y="100" on="1"/>
        <pt x="390" y="625" on="1"/>
        <pt x="362" y="634" on="0"/>
        <pt x="327" y="634" on="1"/>
        <pt x="232" y="634" on="0"/>
        <pt x="172" y="606" on="1"/>
        <pt x="118" y="499" on="0"/>
      </contour>
      <contour>
        <pt x="327" y="65" on="1"/>
        <pt x="529" y="65" on="0"/>
        <pt x="529" y="346" on="1"/>
        <pt x="529" y="525" on="0"/>
        <pt x="450" y="593" on="1"/>
        <pt x="258" y="74" on="1"/>
        <pt x="288" y="65" on="0"/>
      </contour>
    </TTGlyph>
    <TTGlyph name="Otilde" xMin="20" yMin="-12" xMax="627" yMax="903">
      <component glyphName="O" x="0" y="0" flags="0x1004"/>
      <component glyphName="tilde" x="103" y="192" flags="0x1004"/>
    </TTGlyph>
    <TTGlyph name="P" xMin="31" yMin="0" xMax="555" yMax="700">
      <contour>
        <pt x="305" y="700" on="1"/>
        <pt x="432" y="700" on="0"/>
        <pt x="555" y="617" on="0"/>
        <pt x="555" y="407" on="0"/>
        <pt x="433" y="284" on="0"/>
        <pt x="297" y="284" on="1"/>
        <pt x="213" y="284" on="1"/>
        <pt x="210" y="67" on="1"/>
        <pt x="288" y="60" on="1"/>
        <pt x="288" y="32" on="0"/>
        <pt x="271" y="0" on="1"/>
        <pt x="46" y="0" on="1"/>
        <pt x="43" y="34" on="1"/>
        <pt x="85" y="50" on="0"/>
        <pt x="129" y="58" on="1"/>
        <pt x="123" y="448" on="0"/>
        <pt x="119" y="638" on="1"/>
        <pt x="92" y="643" on="0"/>
        <pt x="31" y="662" on="1"/>
        <pt x="36" y="700" on="1"/>
      </contour>
      <contour>
        <pt x="373" y="350" on="0"/>
        <pt x="463" y="435" on="0"/>
        <pt x="463" y="575" on="0"/>
        <pt x="375" y="630" on="0"/>
        <pt x="278" y="630" on="1"/>
        <pt x="260" y="630" on="0"/>
        <pt x="217" y="629" on="1"/>
        <pt x="217" y="628" on="0"/>
        <pt x="214" y="348" on="1"/>
        <pt x="287" y="349" on="1"/>
      </contour>
    </TTGlyph>
    <TTGlyph name="Q" xMin="20" yMin="-201" xMax="638" yMax="713">
      <contour>
        <pt x="362" y="-127" on="0"/>
        <pt x="297" y="-109" on="0"/>
        <pt x="248" y="-109" on="0"/>
        <pt x="143" y="-134" on="0"/>
        <pt x="138" y="-134" on="1"/>
        <pt x="116" y="-116" on="0"/>
        <pt x="114" y="-88" on="1"/>
        <pt x="223" y="-34" on="0"/>
        <pt x="281" y="-34" on="1"/>
        <pt x="336" y="-34" on="0"/>
        <pt x="438" y="-74" on="1"/>
        <pt x="479" y="-91" on="0"/>
        <pt x="550" y="-108" on="0"/>
        <pt x="638" y="-110" on="1"/>
        <pt x="638" y="-153" on="0"/>
        <pt x="601" y="-201" on="1"/>
        <pt x="548" y="-198" on="0"/>
        <pt x="485" y="-175" on="1"/>
        <pt x="468" y="-169" on="0"/>
      </contour>
      <contour>
        <pt x="327" y="65" on="1"/>
        <pt x="529" y="65" on="0"/>
        <pt x="529" y="634" on="0"/>
        <pt x="327" y="634" on="1"/>
        <pt x="232" y="634" on="0"/>
        <pt x="172" y="606" on="1"/>
        <pt x="118" y="499" on="0"/>
        <pt x="118" y="220" on="0"/>
        <pt x="211" y="65" on="0"/>
      </contour>
      <contour>
        <pt x="20" y="522" on="0"/>
        <pt x="165" y="713" on="0"/>
        <pt x="492" y="713" on="0"/>
        <pt x="627" y="538" on="0"/>
        <pt x="627" y="184" on="0"/>
        <pt x="482" y="-13" on="0"/>
        <pt x="165" y="-13" on="0"/>
        <pt x="20" y="170" on="0"/>
      </contour>
    </TTGlyph>
    <TTGlyph name="R" xMin="30" yMin="0" xMax="636" yMax="700">
      <contour>
        <pt x="384" y="620" on="1"/>
        <pt x="352" y="630" on="0"/>
        <pt x="299" y="630" on="1"/>
        <pt x="216" y="630" on="1"/>
        <pt x="213" y="378" on="1"/>
        <pt x="289" y="379" on="1"/>
        <pt x="363" y="380" on="0"/>
        <pt x="451" y="438" on="0"/>
        <pt x="451" y="601" on="0"/>
      </contour>
      <contour>
        <pt x="212" y="314" on="1"/>
        <pt x="209" y="67" on="1"/>
        <pt x="292" y="60" on="1"/>
        <pt x="292" y="32" on="0"/>
        <pt x="275" y="0" on="1"/>
        <pt x="45" y="0" on="1"/>
        <pt x="42" y="35" on="1"/>
        <pt x="84" y="50" on="0"/>
        <pt x="128" y="58" on="1"/>
        <pt x="122" y="438" on="0"/>
        <pt x="118" y="638" on="1"/>
        <pt x="90" y="642" on="0"/>
        <pt x="30" y="662" on="1"/>
        <pt x="30" y="675" on="0"/>
        <pt x="35" y="700" on="1"/>
        <pt x="260" y="700" on="1"/>
        <pt x="443" y="700" on="0"/>
        <pt x="498" y="655" on="1"/>
        <pt x="552" y="612" on="0"/>
        <pt x="552" y="520" on="1"/>
        <pt x="552" y="365" on="0"/>
        <pt x="382" y="319" on="1"/>
        <pt x="553" y="66" on="1"/>
        <pt x="636" y="59" on="1"/>
        <pt x="636" y="32" on="0"/>
        <pt x="619" y="0" on="1"/>
        <pt x="496" y="0" on="1"/>
        <pt x="286" y="314" on="1"/>
      </contour>
    </TTGlyph>
    <TTGlyph name="Racute" xMin="30" yMin="0" xMax="636" yMax="928">
      <contour>
        <pt x="256" y="814" on="1"/>
        <pt x="396" y="928" on="1"/>
        <pt x="435" y="898" on="0"/>
        <pt x="438" y="867" on="1"/>
        <pt x="414" y="844" on="0"/>
        <pt x="343" y="797" on="0"/>
        <pt x="296" y="773" on="1"/>
        <pt x="278" y="786" on="0"/>
      </contour>
      <contour>
        <pt x="384" y="620" on="1"/>
        <pt x="352" y="630" on="0"/>
        <pt x="299" y="630" on="1"/>
        <pt x="216" y="630" on="1"/>
        <pt x="213" y="378" on="1"/>
        <pt x="289" y="379" on="1"/>
        <pt x="363" y="380" on="0"/>
        <pt x="451" y="438" on="0"/>
        <pt x="451" y="601" on="0"/>
      </contour>
      <contour>
        <pt x="212" y="314" on="1"/>
        <pt x="209" y="67" on="1"/>
        <pt x="292" y="60" on="1"/>
        <pt x="292" y="32" on="0"/>
        <pt x="275" y="0" on="1"/>
        <pt x="45" y="0" on="1"/>
        <pt x="42" y="35" on="1"/>
        <pt x="84" y="50" on="0"/>
        <pt x="128" y="58" on="1"/>
        <pt x="122" y="438" on="0"/>
        <pt x="118" y="638" on="1"/>
        <pt x="90" y="642" on="0"/>
        <pt x="30" y="662" on="1"/>
        <pt x="30" y="675" on="0"/>
        <pt x="35" y="700" on="1"/>
        <pt x="260" y="700" on="1"/>
        <pt x="443" y="700" on="0"/>
        <pt x="498" y="655" on="1"/>
        <pt x="552" y="612" on="0"/>
        <pt x="552" y="520" on="1"/>
        <pt x="552" y="365" on="0"/>
        <pt x="382" y="319" on="1"/>
        <pt x="553" y="66" on="1"/>
        <pt x="636" y="59" on="1"/>
        <pt x="636" y="32" on="0"/>
        <pt x="619" y="0" on="1"/>
        <pt x="496" y="0" on="1"/>
        <pt x="286" y="314" on="1"/>
      </contour>
    </TTGlyph>
    <TTGlyph name="Rcaron" xMin="30" yMin="0" xMax="636" yMax="928">
      <component glyphName="R" x="0" y="0" flags="0x1004"/>
      <component glyphName="caron" x="46" y="192" flags="0x1004"/>
    </TTGlyph>
    <TTGlyph name="Rcommaaccent" xMin="30" yMin="-215" xMax="636" yMax="700">
      <contour>
        <pt x="419" y="-27" on="1"/>
        <pt x="424" y="-45" on="0"/>
        <pt x="424" y="-119" on="0"/>
        <pt x="369" y="-201" on="0"/>
        <pt x="346" y="-215" on="1"/>
        <pt x="332" y="-209" on="0"/>
        <pt x="320" y="-197" on="1"/>
        <pt x="329" y="-172" on="0"/>
        <pt x="382" y="-110" on="1"/>
        <pt x="354" y="-110" on="0"/>
        <pt x="343" y="-108" on="1"/>
        <pt x="339" y="-95" on="0"/>
        <pt x="339" y="-40" on="0"/>
        <pt x="340" y="-29" on="1"/>
        <pt x="362" y="-25" on="0"/>
        <pt x="397" y="-25" on="0"/>
      </contour>
      <contour>
        <pt x="384" y="620" on="1"/>
        <pt x="352" y="630" on="0"/>
        <pt x="299" y="630" on="1"/>
        <pt x="216" y="630" on="1"/>
        <pt x="213" y="378" on="1"/>
        <pt x="289" y="379" on="1"/>
        <pt x="363" y="380" on="0"/>
        <pt x="451" y="438" on="0"/>
        <pt x="451" y="601" on="0"/>
      </contour>
      <contour>
        <pt x="212" y="314" on="1"/>
        <pt x="209" y="67" on="1"/>
        <pt x="292" y="60" on="1"/>
        <pt x="292" y="32" on="0"/>
        <pt x="275" y="0" on="1"/>
        <pt x="45" y="0" on="1"/>
        <pt x="42" y="35" on="1"/>
        <pt x="84" y="50" on="0"/>
        <pt x="128" y="58" on="1"/>
        <pt x="122" y="438" on="0"/>
        <pt x="118" y="638" on="1"/>
        <pt x="90" y="642" on="0"/>
        <pt x="30" y="662" on="1"/>
        <pt x="30" y="675" on="0"/>
        <pt x="35" y="700" on="1"/>
        <pt x="260" y="700" on="1"/>
        <pt x="443" y="700" on="0"/>
        <pt x="498" y="655" on="1"/>
        <pt x="552" y="612" on="0"/>
        <pt x="552" y="520" on="1"/>
        <pt x="552" y="365" on="0"/>
        <pt x="382" y="319" on="1"/>
        <pt x="553" y="66" on="1"/>
        <pt x="636" y="59" on="1"/>
        <pt x="636" y="32" on="0"/>
        <pt x="619" y="0" on="1"/>
        <pt x="496" y="0" on="1"/>
        <pt x="286" y="314" on="1"/>
      </contour>
    </TTGlyph>
    <TTGlyph name="S" xMin="45" yMin="-13" xMax="528" yMax="714">
      <contour>
        <pt x="286" y="67" on="1"/>
        <pt x="435" y="67" on="0"/>
        <pt x="435" y="188" on="1"/>
        <pt x="435" y="247" on="0"/>
        <pt x="362" y="288" on="1"/>
        <pt x="329" y="307" on="0"/>
        <pt x="250" y="341" on="0"/>
        <pt x="170" y="381" on="0"/>
        <pt x="105" y="427" on="0"/>
        <pt x="64" y="497" on="0"/>
        <pt x="64" y="541" on="1"/>
        <pt x="64" y="613" on="0"/>
        <pt x="181" y="714" on="0"/>
        <pt x="385" y="714" on="0"/>
        <pt x="498" y="652" on="1"/>
        <pt x="498" y="595" on="0"/>
        <pt x="484" y="509" on="1"/>
        <pt x="462" y="506" on="0"/>
        <pt x="426" y="506" on="1"/>
        <pt x="396" y="622" on="1"/>
        <pt x="384" y="628" on="0"/>
        <pt x="313" y="640" on="0"/>
        <pt x="286" y="640" on="1"/>
        <pt x="228" y="640" on="0"/>
        <pt x="164" y="591" on="0"/>
        <pt x="164" y="504" on="0"/>
        <pt x="239" y="435" on="0"/>
        <pt x="346" y="386" on="0"/>
        <pt x="453" y="334" on="0"/>
        <pt x="528" y="251" on="0"/>
        <pt x="528" y="196" on="1"/>
        <pt x="528" y="96" on="0"/>
        <pt x="394" y="-13" on="0"/>
        <pt x="286" y="-13" on="1"/>
        <pt x="227" y="-13" on="0"/>
        <pt x="90" y="24" on="0"/>
        <pt x="45" y="53" on="1"/>
        <pt x="47" y="120" on="0"/>
        <pt x="60" y="208" on="1"/>
        <pt x="82" y="211" on="0"/>
        <pt x="118" y="211" on="1"/>
        <pt x="139" y="91" on="1"/>
        <pt x="161" y="82" on="0"/>
        <pt x="250" y="67" on="0"/>
      </contour>
    </TTGlyph>
    <TTGlyph name="Scaron" xMin="35" yMin="-13" xMax="518" yMax="928">
      <contour>
        <pt x="436" y="892" on="1"/>
        <pt x="295" y="778" on="1"/>
        <pt x="154" y="892" on="1"/>
        <pt x="164" y="906" on="0"/>
        <pt x="187" y="928" on="1"/>
        <pt x="188" y="927" on="0"/>
        <pt x="217" y="914" on="0"/>
        <pt x="230" y="907" on="1"/>
        <pt x="269" y="886" on="0"/>
        <pt x="295" y="862" on="1"/>
        <pt x="330" y="895" on="0"/>
        <pt x="388" y="920" on="1"/>
        <pt x="402" y="927" on="0"/>
        <pt x="403" y="928" on="1"/>
        <pt x="427" y="906" on="0"/>
      </contour>
      <contour>
        <pt x="276" y="67" on="1"/>
        <pt x="425" y="67" on="0"/>
        <pt x="425" y="188" on="1"/>
        <pt x="425" y="247" on="0"/>
        <pt x="352" y="288" on="1"/>
        <pt x="319" y="307" on="0"/>
        <pt x="240" y="341" on="0"/>
        <pt x="160" y="381" on="0"/>
        <pt x="95" y="427" on="0"/>
        <pt x="54" y="497" on="0"/>
        <pt x="54" y="541" on="1"/>
        <pt x="54" y="613" on="0"/>
        <pt x="171" y="714" on="0"/>
        <pt x="375" y="714" on="0"/>
        <pt x="488" y="652" on="1"/>
        <pt x="488" y="595" on="0"/>
        <pt x="474" y="509" on="1"/>
        <pt x="452" y="506" on="0"/>
        <pt x="416" y="506" on="1"/>
        <pt x="386" y="622" on="1"/>
        <pt x="374" y="628" on="0"/>
        <pt x="303" y="640" on="0"/>
        <pt x="276" y="640" on="1"/>
        <pt x="218" y="640" on="0"/>
        <pt x="154" y="591" on="0"/>
        <pt x="154" y="504" on="0"/>
        <pt x="229" y="435" on="0"/>
        <pt x="336" y="386" on="0"/>
        <pt x="443" y="334" on="0"/>
        <pt x="518" y="251" on="0"/>
        <pt x="518" y="196" on="1"/>
        <pt x="518" y="96" on="0"/>
        <pt x="384" y="-13" on="0"/>
        <pt x="276" y="-13" on="1"/>
        <pt x="217" y="-13" on="0"/>
        <pt x="80" y="24" on="0"/>
        <pt x="35" y="53" on="1"/>
        <pt x="37" y="120" on="0"/>
        <pt x="50" y="208" on="1"/>
        <pt x="72" y="211" on="0"/>
        <pt x="108" y="211" on="1"/>
        <pt x="129" y="91" on="1"/>
        <pt x="151" y="82" on="0"/>
        <pt x="240" y="67" on="0"/>
      </contour>
    </TTGlyph>
    <TTGlyph name="T" xMin="20" yMin="0" xMax="600" yMax="700">
      <contour>
        <pt x="364" y="638" on="1"/>
        <pt x="359" y="470" on="0"/>
        <pt x="353" y="68" on="1"/>
        <pt x="437" y="60" on="1"/>
        <pt x="437" y="32" on="0"/>
        <pt x="420" y="0" on="1"/>
        <pt x="190" y="0" on="1"/>
        <pt x="187" y="35" on="1"/>
        <pt x="245" y="56" on="0"/>
        <pt x="279" y="59" on="1"/>
        <pt x="269" y="445" on="0"/>
        <pt x="263" y="638" on="1"/>
        <pt x="117" y="638" on="1"/>
        <pt x="93" y="536" on="1"/>
        <pt x="35" y="540" on="1"/>
        <pt x="20" y="601" on="0"/>
        <pt x="20" y="664" on="1"/>
        <pt x="20" y="676" on="0"/>
        <pt x="22" y="700" on="1"/>
        <pt x="598" y="700" on="1"/>
        <pt x="600" y="687" on="0"/>
        <pt x="600" y="660" on="1"/>
        <pt x="600" y="606" on="0"/>
        <pt x="586" y="542" on="1"/>
        <pt x="564" y="536" on="0"/>
        <pt x="528" y="536" on="1"/>
        <pt x="503" y="638" on="1"/>
      </contour>
    </TTGlyph>
    <TTGlyph name="Thorn" xMin="20" yMin="0" xMax="549" yMax="700">
      <contour>
        <pt x="337" y="569" on="1"/>
        <pt x="549" y="569" on="0"/>
        <pt x="549" y="359" on="1"/>
        <pt x="549" y="284" on="0"/>
        <pt x="499" y="220" on="1"/>
        <pt x="474" y="188" on="0"/>
        <pt x="387" y="147" on="0"/>
        <pt x="297" y="147" on="0"/>
        <pt x="201" y="180" on="1"/>
        <pt x="199" y="106" on="0"/>
        <pt x="199" y="68" on="1"/>
        <pt x="283" y="60" on="1"/>
        <pt x="283" y="32" on="0"/>
        <pt x="266" y="0" on="1"/>
        <pt x="36" y="0" on="1"/>
        <pt x="33" y="35" on="1"/>
        <pt x="80" y="51" on="0"/>
        <pt x="125" y="59" on="1"/>
        <pt x="115" y="447" on="0"/>
        <pt x="109" y="641" on="1"/>
        <pt x="72" y="648" on="0"/>
        <pt x="20" y="665" on="1"/>
        <pt x="23" y="700" on="1"/>
        <pt x="273" y="700" on="1"/>
        <pt x="290" y="668" on="0"/>
        <pt x="290" y="640" on="1"/>
        <pt x="240" y="636" on="0"/>
        <pt x="210" y="636" on="1"/>
        <pt x="208" y="602" on="0"/>
        <pt x="208" y="545" on="1"/>
        <pt x="310" y="569" on="0"/>
      </contour>
      <contour>
        <pt x="325" y="215" on="1"/>
        <pt x="387" y="215" on="0"/>
        <pt x="461" y="289" on="0"/>
        <pt x="461" y="354" on="1"/>
        <pt x="461" y="495" on="0"/>
        <pt x="330" y="495" on="1"/>
        <pt x="274" y="495" on="0"/>
        <pt x="207" y="483" on="1"/>
        <pt x="205" y="438" on="0"/>
        <pt x="203" y="273" on="0"/>
        <pt x="202" y="247" on="1"/>
        <pt x="287" y="215" on="0"/>
      </contour>
    </TTGlyph>
    <TTGlyph name="U" xMin="24" yMin="-12" xMax="730" yMax="700">
      <contour>
        <pt x="388" y="-12" on="1"/>
        <pt x="331" y="-12" on="0"/>
        <pt x="247" y="6" on="0"/>
        <pt x="208" y="30" on="1"/>
        <pt x="127" y="78" on="0"/>
        <pt x="122" y="364" on="0"/>
        <pt x="114" y="641" on="1"/>
        <pt x="74" y="649" on="0"/>
        <pt x="24" y="665" on="1"/>
        <pt x="27" y="700" on="1"/>
        <pt x="278" y="700" on="1"/>
        <pt x="295" y="668" on="0"/>
        <pt x="295" y="640" on="1"/>
        <pt x="266" y="638" on="0"/>
        <pt x="212" y="636" on="1"/>
        <pt x="210" y="520" on="0"/>
        <pt x="210" y="288" on="1"/>
        <pt x="210" y="163" on="0"/>
        <pt x="303" y="65" on="0"/>
        <pt x="389" y="65" on="1"/>
        <pt x="426" y="65" on="0"/>
        <pt x="481" y="81" on="0"/>
        <pt x="508" y="104" on="1"/>
        <pt x="562" y="150" on="0"/>
        <pt x="562" y="290" on="1"/>
        <pt x="562" y="291" on="0"/>
        <pt x="553" y="636" on="1"/>
        <pt x="475" y="659" on="0"/>
        <pt x="463" y="665" on="1"/>
        <pt x="466" y="700" on="1"/>
        <pt x="714" y="700" on="1"/>
        <pt x="730" y="659" on="0"/>
        <pt x="730" y="641" on="1"/>
        <pt x="667" y="641" on="0"/>
        <pt x="649" y="640" on="1"/>
        <pt x="647" y="560" on="0"/>
        <pt x="642" y="267" on="0"/>
        <pt x="641" y="221" on="1"/>
        <pt x="638" y="107" on="0"/>
        <pt x="504" y="-12" on="0"/>
      </contour>
    </TTGlyph>
    <TTGlyph name="Uacute" xMin="24" yMin="-12" xMax="730" yMax="928">
      <component glyphName="U" x="0" y="0" flags="0x1004"/>
      <component glyphName="acute" x="261" y="192" flags="0x1004"/>
    </TTGlyph>
    <TTGlyph name="Ubreve" xMin="24" yMin="-12" xMax="730" yMax="931">
      <contour>
        <pt x="730" y="641" on="1"/>
        <pt x="667" y="641" on="0"/>
        <pt x="649" y="640" on="1"/>
        <pt x="647" y="560" on="0"/>
        <pt x="642" y="267" on="0"/>
        <pt x="641" y="221" on="1"/>
        <pt x="638" y="107" on="0"/>
        <pt x="504" y="-12" on="0"/>
        <pt x="388" y="-12" on="1"/>
        <pt x="331" y="-12" on="0"/>
        <pt x="247" y="6" on="0"/>
        <pt x="208" y="30" on="1"/>
        <pt x="127" y="78" on="0"/>
        <pt x="125" y="220" on="1"/>
        <pt x="122" y="364" on="0"/>
        <pt x="114" y="641" on="1"/>
        <pt x="70" y="649" on="0"/>
        <pt x="24" y="665" on="1"/>
        <pt x="27" y="700" on="1"/>
        <pt x="278" y="700" on="1"/>
        <pt x="295" y="668" on="0"/>
        <pt x="295" y="640" on="1"/>
        <pt x="295" y="640" on="0"/>
        <pt x="212" y="636" on="1"/>
        <pt x="210" y="520" on="0"/>
        <pt x="210" y="288" on="1"/>
        <pt x="210" y="163" on="0"/>
        <pt x="303" y="65" on="0"/>
        <pt x="389" y="65" on="1"/>
        <pt x="426" y="65" on="0"/>
        <pt x="481" y="81" on="0"/>
        <pt x="508" y="104" on="1"/>
        <pt x="562" y="150" on="0"/>
        <pt x="562" y="290" on="1"/>
        <pt x="562" y="291" on="0"/>
        <pt x="553" y="636" on="1"/>
        <pt x="475" y="659" on="0"/>
        <pt x="463" y="665" on="1"/>
        <pt x="466" y="700" on="1"/>
        <pt x="714" y="700" on="1"/>
        <pt x="730" y="659" on="0"/>
      </contour>
      <contour>
        <pt x="521" y="929" on="1"/>
        <pt x="521" y="873" on="0"/>
        <pt x="447" y="787" on="0"/>
        <pt x="322" y="787" on="0"/>
        <pt x="251" y="873" on="0"/>
        <pt x="251" y="929" on="1"/>
        <pt x="303" y="931" on="1"/>
        <pt x="303" y="899" on="0"/>
        <pt x="343" y="850" on="0"/>
        <pt x="385" y="850" on="1"/>
        <pt x="458" y="850" on="0"/>
        <pt x="458" y="929" on="1"/>
      </contour>
    </TTGlyph>
    <TTGlyph name="Ucircumflex" xMin="24" yMin="-12" xMax="730" yMax="928">
      <contour>
        <pt x="730" y="641" on="1"/>
        <pt x="667" y="641" on="0"/>
        <pt x="649" y="640" on="1"/>
        <pt x="647" y="560" on="0"/>
        <pt x="642" y="267" on="0"/>
        <pt x="641" y="221" on="1"/>
        <pt x="638" y="107" on="0"/>
        <pt x="504" y="-12" on="0"/>
        <pt x="388" y="-12" on="1"/>
        <pt x="331" y="-12" on="0"/>
        <pt x="247" y="6" on="0"/>
        <pt x="208" y="30" on="1"/>
        <pt x="127" y="78" on="0"/>
        <pt x="125" y="220" on="1"/>
        <pt x="122" y="364" on="0"/>
        <pt x="114" y="641" on="1"/>
        <pt x="70" y="649" on="0"/>
        <pt x="24" y="665" on="1"/>
        <pt x="27" y="700" on="1"/>
        <pt x="278" y="700" on="1"/>
        <pt x="295" y="668" on="0"/>
        <pt x="295" y="640" on="1"/>
        <pt x="295" y="640" on="0"/>
        <pt x="212" y="636" on="1"/>
        <pt x="210" y="520" on="0"/>
        <pt x="210" y="288" on="1"/>
        <pt x="210" y="163" on="0"/>
        <pt x="303" y="65" on="0"/>
        <pt x="389" y="65" on="1"/>
        <pt x="426" y="65" on="0"/>
        <pt x="481" y="81" on="0"/>
        <pt x="508" y="104" on="1"/>
        <pt x="562" y="150" on="0"/>
        <pt x="562" y="290" on="1"/>
        <pt x="562" y="291" on="0"/>
        <pt x="553" y="636" on="1"/>
        <pt x="475" y="659" on="0"/>
        <pt x="463" y="665" on="1"/>
        <pt x="466" y="700" on="1"/>
        <pt x="714" y="700" on="1"/>
        <pt x="730" y="659" on="0"/>
      </contour>
      <contour>
        <pt x="379" y="928" on="1"/>
        <pt x="520" y="814" on="1"/>
        <pt x="514" y="805" on="0"/>
        <pt x="487" y="778" on="1"/>
        <pt x="486" y="779" on="0"/>
        <pt x="457" y="792" on="0"/>
        <pt x="444" y="799" on="1"/>
        <pt x="405" y="820" on="0"/>
        <pt x="379" y="844" on="1"/>
        <pt x="344" y="811" on="0"/>
        <pt x="286" y="786" on="1"/>
        <pt x="272" y="779" on="0"/>
        <pt x="271" y="778" on="1"/>
        <pt x="247" y="800" on="0"/>
        <pt x="238" y="814" on="1"/>
      </contour>
    </TTGlyph>
    <TTGlyph name="Udieresis" xMin="24" yMin="-12" xMax="730" yMax="878">
      <contour>
        <pt x="730" y="641" on="1"/>
        <pt x="667" y="641" on="0"/>
        <pt x="649" y="640" on="1"/>
        <pt x="647" y="560" on="0"/>
        <pt x="642" y="267" on="0"/>
        <pt x="641" y="221" on="1"/>
        <pt x="638" y="107" on="0"/>
        <pt x="504" y="-12" on="0"/>
        <pt x="388" y="-12" on="1"/>
        <pt x="331" y="-12" on="0"/>
        <pt x="247" y="6" on="0"/>
        <pt x="208" y="30" on="1"/>
        <pt x="127" y="78" on="0"/>
        <pt x="125" y="220" on="1"/>
        <pt x="122" y="364" on="0"/>
        <pt x="114" y="641" on="1"/>
        <pt x="70" y="649" on="0"/>
        <pt x="24" y="665" on="1"/>
        <pt x="27" y="700" on="1"/>
        <pt x="278" y="700" on="1"/>
        <pt x="295" y="668" on="0"/>
        <pt x="295" y="640" on="1"/>
        <pt x="295" y="640" on="0"/>
        <pt x="212" y="636" on="1"/>
        <pt x="210" y="520" on="0"/>
        <pt x="210" y="288" on="1"/>
        <pt x="210" y="163" on="0"/>
        <pt x="303" y="65" on="0"/>
        <pt x="389" y="65" on="1"/>
        <pt x="426" y="65" on="0"/>
        <pt x="481" y="81" on="0"/>
        <pt x="508" y="104" on="1"/>
        <pt x="562" y="150" on="0"/>
        <pt x="562" y="290" on="1"/>
        <pt x="562" y="291" on="0"/>
        <pt x="553" y="636" on="1"/>
        <pt x="475" y="659" on="0"/>
        <pt x="463" y="665" on="1"/>
        <pt x="466" y="700" on="1"/>
        <pt x="714" y="700" on="1"/>
        <pt x="730" y="659" on="0"/>
      </contour>
      <contour>
        <pt x="345" y="798" on="1"/>
        <pt x="325" y="794" on="0"/>
        <pt x="280" y="794" on="0"/>
        <pt x="266" y="796" on="1"/>
        <pt x="261" y="814" on="0"/>
        <pt x="261" y="851" on="0"/>
        <pt x="263" y="875" on="1"/>
        <pt x="278" y="878" on="0"/>
        <pt x="330" y="878" on="0"/>
        <pt x="342" y="877" on="1"/>
        <pt x="346" y="855" on="0"/>
        <pt x="346" y="808" on="0"/>
      </contour>
      <contour>
        <pt x="510" y="798" on="1"/>
        <pt x="490" y="794" on="0"/>
        <pt x="445" y="794" on="0"/>
        <pt x="431" y="796" on="1"/>
        <pt x="426" y="814" on="0"/>
        <pt x="426" y="851" on="0"/>
        <pt x="428" y="875" on="1"/>
        <pt x="443" y="878" on="0"/>
        <pt x="495" y="878" on="0"/>
        <pt x="507" y="877" on="1"/>
        <pt x="511" y="855" on="0"/>
        <pt x="511" y="808" on="0"/>
      </contour>
    </TTGlyph>
    <TTGlyph name="Ugrave" xMin="24" yMin="-12" xMax="730" yMax="928">
      <component glyphName="U" x="0" y="0" flags="0x1004"/>
      <component glyphName="grave" x="72" y="192" flags="0x1004"/>
    </TTGlyph>
    <TTGlyph name="Umacron" xMin="24" yMin="-12" xMax="730" yMax="897">
      <contour>
        <pt x="730" y="641" on="1"/>
        <pt x="667" y="641" on="0"/>
        <pt x="649" y="640" on="1"/>
        <pt x="647" y="560" on="0"/>
        <pt x="642" y="267" on="0"/>
        <pt x="641" y="221" on="1"/>
        <pt x="638" y="107" on="0"/>
        <pt x="504" y="-12" on="0"/>
        <pt x="388" y="-12" on="1"/>
        <pt x="331" y="-12" on="0"/>
        <pt x="247" y="6" on="0"/>
        <pt x="208" y="30" on="1"/>
        <pt x="127" y="78" on="0"/>
        <pt x="125" y="220" on="1"/>
        <pt x="122" y="364" on="0"/>
        <pt x="114" y="641" on="1"/>
        <pt x="70" y="649" on="0"/>
        <pt x="24" y="665" on="1"/>
        <pt x="27" y="700" on="1"/>
        <pt x="278" y="700" on="1"/>
        <pt x="295" y="668" on="0"/>
        <pt x="295" y="640" on="1"/>
        <pt x="295" y="640" on="0"/>
        <pt x="212" y="636" on="1"/>
        <pt x="210" y="520" on="0"/>
        <pt x="210" y="288" on="1"/>
        <pt x="210" y="163" on="0"/>
        <pt x="303" y="65" on="0"/>
        <pt x="389" y="65" on="1"/>
        <pt x="426" y="65" on="0"/>
        <pt x="481" y="81" on="0"/>
        <pt x="508" y="104" on="1"/>
        <pt x="562" y="150" on="0"/>
        <pt x="562" y="290" on="1"/>
        <pt x="562" y="291" on="0"/>
        <pt x="553" y="636" on="1"/>
        <pt x="475" y="659" on="0"/>
        <pt x="463" y="665" on="1"/>
        <pt x="466" y="700" on="1"/>
        <pt x="714" y="700" on="1"/>
        <pt x="730" y="659" on="0"/>
      </contour>
      <contour>
        <pt x="496" y="892" on="1"/>
        <pt x="498" y="876" on="0"/>
        <pt x="498" y="866" on="1"/>
        <pt x="496" y="831" on="1"/>
        <pt x="444" y="826" on="0"/>
        <pt x="398" y="826" on="1"/>
        <pt x="277" y="831" on="1"/>
        <pt x="275" y="845" on="0"/>
        <pt x="275" y="857" on="1"/>
        <pt x="277" y="892" on="1"/>
        <pt x="329" y="897" on="0"/>
        <pt x="375" y="897" on="1"/>
      </contour>
    </TTGlyph>
    <TTGlyph name="Uring" xMin="24" yMin="-12" xMax="730" yMax="995">
      <contour>
        <pt x="730" y="641" on="1"/>
        <pt x="667" y="641" on="0"/>
        <pt x="649" y="640" on="1"/>
        <pt x="647" y="560" on="0"/>
        <pt x="642" y="267" on="0"/>
        <pt x="641" y="221" on="1"/>
        <pt x="638" y="107" on="0"/>
        <pt x="504" y="-12" on="0"/>
        <pt x="388" y="-12" on="1"/>
        <pt x="331" y="-12" on="0"/>
        <pt x="247" y="6" on="0"/>
        <pt x="208" y="30" on="1"/>
        <pt x="127" y="78" on="0"/>
        <pt x="125" y="220" on="1"/>
        <pt x="122" y="364" on="0"/>
        <pt x="114" y="641" on="1"/>
        <pt x="70" y="649" on="0"/>
        <pt x="24" y="665" on="1"/>
        <pt x="27" y="700" on="1"/>
        <pt x="278" y="700" on="1"/>
        <pt x="295" y="668" on="0"/>
        <pt x="295" y="640" on="1"/>
        <pt x="295" y="640" on="0"/>
        <pt x="212" y="636" on="1"/>
        <pt x="210" y="520" on="0"/>
        <pt x="210" y="288" on="1"/>
        <pt x="210" y="163" on="0"/>
        <pt x="303" y="65" on="0"/>
        <pt x="389" y="65" on="1"/>
        <pt x="426" y="65" on="0"/>
        <pt x="481" y="81" on="0"/>
        <pt x="508" y="104" on="1"/>
        <pt x="562" y="150" on="0"/>
        <pt x="562" y="290" on="1"/>
        <pt x="562" y="291" on="0"/>
        <pt x="553" y="636" on="1"/>
        <pt x="475" y="659" on="0"/>
        <pt x="463" y="665" on="1"/>
        <pt x="466" y="700" on="1"/>
        <pt x="714" y="700" on="1"/>
        <pt x="730" y="659" on="0"/>
      </contour>
      <contour>
        <pt x="320" y="949" on="0"/>
        <pt x="287" y="910" on="0"/>
        <pt x="287" y="845" on="0"/>
        <pt x="320" y="807" on="0"/>
        <pt x="375" y="807" on="0"/>
        <pt x="408" y="845" on="0"/>
        <pt x="408" y="910" on="0"/>
        <pt x="375" y="949" on="0"/>
      </contour>
      <contour>
        <pt x="397" y="995" on="0"/>
        <pt x="468" y="931" on="0"/>
        <pt x="468" y="822" on="0"/>
        <pt x="398" y="763" on="0"/>
        <pt x="298" y="763" on="0"/>
        <pt x="226" y="823" on="0"/>
        <pt x="226" y="931" on="0"/>
        <pt x="299" y="995" on="0"/>
      </contour>
    </TTGlyph>
    <TTGlyph name="V" xMin="5" yMin="0" xMax="721" yMax="700">
      <contour>
        <pt x="634" y="634" on="1"/>
        <pt x="428" y="0" on="1"/>
        <pt x="324" y="0" on="1"/>
        <pt x="95" y="641" on="1"/>
        <pt x="55" y="649" on="0"/>
        <pt x="5" y="665" on="1"/>
        <pt x="8" y="700" on="1"/>
        <pt x="268" y="700" on="1"/>
        <pt x="285" y="668" on="0"/>
        <pt x="285" y="640" on="1"/>
        <pt x="236" y="637" on="0"/>
        <pt x="195" y="634" on="1"/>
        <pt x="372" y="105" on="1"/>
        <pt x="377" y="105" on="1"/>
        <pt x="399" y="180" on="0"/>
        <pt x="544" y="641" on="1"/>
        <pt x="504" y="647" on="0"/>
        <pt x="450" y="665" on="1"/>
        <pt x="453" y="700" on="1"/>
        <pt x="704" y="700" on="1"/>
        <pt x="721" y="668" on="0"/>
        <pt x="721" y="640" on="1"/>
        <pt x="675" y="637" on="0"/>
      </contour>
    </TTGlyph>
    <TTGlyph name="W" xMin="5" yMin="0" xMax="1070" yMax="700">
      <contour>
        <pt x="758" y="105" on="1"/>
        <pt x="890" y="641" on="1"/>
        <pt x="850" y="649" on="0"/>
        <pt x="800" y="665" on="1"/>
        <pt x="803" y="700" on="1"/>
        <pt x="1053" y="700" on="1"/>
        <pt x="1070" y="668" on="0"/>
        <pt x="1070" y="640" on="1"/>
        <pt x="1015" y="637" on="0"/>
        <pt x="974" y="634" on="1"/>
        <pt x="800" y="0" on="1"/>
        <pt x="706" y="0" on="1"/>
        <pt x="534" y="587" on="1"/>
        <pt x="378" y="0" on="1"/>
        <pt x="274" y="0" on="1"/>
        <pt x="95" y="641" on="1"/>
        <pt x="55" y="649" on="0"/>
        <pt x="5" y="665" on="1"/>
        <pt x="8" y="700" on="1"/>
        <pt x="268" y="700" on="1"/>
        <pt x="285" y="668" on="0"/>
        <pt x="285" y="640" on="1"/>
        <pt x="236" y="637" on="0"/>
        <pt x="195" y="634" on="1"/>
        <pt x="322" y="105" on="1"/>
        <pt x="326" y="105" on="1"/>
        <pt x="358" y="243" on="0"/>
        <pt x="467" y="633" on="0"/>
        <pt x="485" y="699" on="1"/>
        <pt x="593" y="699" on="1"/>
        <pt x="754" y="105" on="1"/>
      </contour>
    </TTGlyph>
    <TTGlyph name="X" xMin="10" yMin="0" xMax="713" yMax="700">
      <contour>
        <pt x="618" y="641" on="1"/>
        <pt x="412" y="361" on="1"/>
        <pt x="628" y="66" on="1"/>
        <pt x="713" y="60" on="1"/>
        <pt x="713" y="32" on="0"/>
        <pt x="696" y="0" on="1"/>
        <pt x="434" y="0" on="1"/>
        <pt x="431" y="35" on="1"/>
        <pt x="476" y="51" on="0"/>
        <pt x="520" y="59" on="1"/>
        <pt x="357" y="299" on="1"/>
        <pt x="202" y="66" on="1"/>
        <pt x="287" y="60" on="1"/>
        <pt x="287" y="32" on="0"/>
        <pt x="270" y="0" on="1"/>
        <pt x="13" y="0" on="1"/>
        <pt x="10" y="35" on="1"/>
        <pt x="56" y="51" on="0"/>
        <pt x="100" y="59" on="1"/>
        <pt x="311" y="361" on="1"/>
        <pt x="114" y="633" on="1"/>
        <pt x="29" y="639" on="1"/>
        <pt x="29" y="667" on="0"/>
        <pt x="46" y="699" on="1"/>
        <pt x="315" y="699" on="1"/>
        <pt x="318" y="664" on="1"/>
        <pt x="267" y="645" on="0"/>
        <pt x="223" y="637" on="1"/>
        <pt x="371" y="419" on="1"/>
        <pt x="516" y="634" on="1"/>
        <pt x="431" y="640" on="1"/>
        <pt x="431" y="668" on="0"/>
        <pt x="448" y="700" on="1"/>
        <pt x="705" y="700" on="1"/>
        <pt x="708" y="665" on="1"/>
        <pt x="662" y="649" on="0"/>
      </contour>
    </TTGlyph>
    <TTGlyph name="Y" xMin="5" yMin="0" xMax="672" yMax="700">
      <contour>
        <pt x="388" y="250" on="1"/>
        <pt x="384" y="68" on="1"/>
        <pt x="468" y="60" on="1"/>
        <pt x="468" y="30" on="0"/>
        <pt x="452" y="0" on="1"/>
        <pt x="221" y="0" on="1"/>
        <pt x="218" y="35" on="1"/>
        <pt x="279" y="56" on="0"/>
        <pt x="310" y="59" on="1"/>
        <pt x="309" y="121" on="0"/>
        <pt x="305" y="250" on="1"/>
        <pt x="95" y="641" on="1"/>
        <pt x="55" y="649" on="0"/>
        <pt x="5" y="665" on="1"/>
        <pt x="8" y="700" on="1"/>
        <pt x="268" y="700" on="1"/>
        <pt x="285" y="668" on="0"/>
        <pt x="285" y="640" on="1"/>
        <pt x="236" y="637" on="0"/>
        <pt x="195" y="634" on="1"/>
        <pt x="344" y="331" on="1"/>
        <pt x="355" y="331" on="1"/>
        <pt x="504" y="641" on="1"/>
        <pt x="464" y="647" on="0"/>
        <pt x="410" y="665" on="1"/>
        <pt x="413" y="700" on="1"/>
        <pt x="655" y="700" on="1"/>
        <pt x="672" y="668" on="0"/>
        <pt x="672" y="640" on="1"/>
        <pt x="628" y="637" on="0"/>
        <pt x="587" y="634" on="1"/>
      </contour>
    </TTGlyph>
    <TTGlyph name="Yacute" xMin="5" yMin="0" xMax="672" yMax="924">
      <component glyphName="Y" x="0" y="0" flags="0x1004"/>
      <component glyphName="acute" x="259" y="188" flags="0x1004"/>
    </TTGlyph>
    <TTGlyph name="Ydieresis" xMin="5" yMin="0" xMax="672" yMax="878">
      <contour>
        <pt x="384" y="68" on="1"/>
        <pt x="429" y="66" on="0"/>
        <pt x="468" y="60" on="1"/>
        <pt x="468" y="30" on="0"/>
        <pt x="452" y="0" on="1"/>
        <pt x="221" y="0" on="1"/>
        <pt x="218" y="35" on="1"/>
        <pt x="282" y="57" on="0"/>
        <pt x="310" y="59" on="1"/>
        <pt x="309" y="121" on="0"/>
        <pt x="305" y="250" on="1"/>
        <pt x="95" y="641" on="1"/>
        <pt x="51" y="649" on="0"/>
        <pt x="5" y="665" on="1"/>
        <pt x="8" y="700" on="1"/>
        <pt x="268" y="700" on="1"/>
        <pt x="285" y="668" on="0"/>
        <pt x="285" y="640" on="1"/>
        <pt x="195" y="634" on="1"/>
        <pt x="344" y="331" on="1"/>
        <pt x="355" y="331" on="1"/>
        <pt x="504" y="641" on="1"/>
        <pt x="460" y="648" on="0"/>
        <pt x="410" y="665" on="1"/>
        <pt x="413" y="700" on="1"/>
        <pt x="655" y="700" on="1"/>
        <pt x="672" y="668" on="0"/>
        <pt x="672" y="640" on="1"/>
        <pt x="587" y="634" on="1"/>
        <pt x="388" y="250" on="1"/>
      </contour>
      <contour>
        <pt x="301" y="798" on="1"/>
        <pt x="281" y="794" on="0"/>
        <pt x="236" y="794" on="0"/>
        <pt x="222" y="796" on="1"/>
        <pt x="217" y="814" on="0"/>
        <pt x="217" y="851" on="0"/>
        <pt x="219" y="875" on="1"/>
        <pt x="234" y="878" on="0"/>
        <pt x="286" y="878" on="0"/>
        <pt x="298" y="877" on="1"/>
        <pt x="302" y="855" on="0"/>
        <pt x="302" y="808" on="0"/>
      </contour>
      <contour>
        <pt x="466" y="798" on="1"/>
        <pt x="446" y="794" on="0"/>
        <pt x="401" y="794" on="0"/>
        <pt x="387" y="796" on="1"/>
        <pt x="382" y="814" on="0"/>
        <pt x="382" y="851" on="0"/>
        <pt x="384" y="875" on="1"/>
        <pt x="399" y="878" on="0"/>
        <pt x="451" y="878" on="0"/>
        <pt x="463" y="877" on="1"/>
        <pt x="467" y="855" on="0"/>
        <pt x="467" y="808" on="0"/>
      </contour>
    </TTGlyph>
    <TTGlyph name="Z" xMin="45" yMin="0" xMax="556" yMax="700">
      <contour>
        <pt x="76" y="664" on="1"/>
        <pt x="76" y="676" on="0"/>
        <pt x="78" y="700" on="1"/>
        <pt x="533" y="700" on="1"/>
        <pt x="551" y="677" on="0"/>
        <pt x="556" y="639" on="1"/>
        <pt x="166" y="67" on="1"/>
        <pt x="458" y="67" on="1"/>
        <pt x="482" y="181" on="1"/>
        <pt x="514" y="181" on="0"/>
        <pt x="534" y="175" on="1"/>
        <pt x="550" y="104" on="0"/>
        <pt x="550" y="12" on="0"/>
        <pt x="548" y="0" on="1"/>
        <pt x="68" y="0" on="1"/>
        <pt x="50" y="23" on="0"/>
        <pt x="45" y="61" on="1"/>
        <pt x="434" y="632" on="1"/>
        <pt x="171" y="632" on="1"/>
        <pt x="145" y="517" on="1"/>
        <pt x="110" y="517" on="0"/>
        <pt x="93" y="524" on="1"/>
        <pt x="76" y="597" on="0"/>
      </contour>
    </TTGlyph>
    <TTGlyph name="Zcaron" xMin="45" yMin="0" xMax="556" yMax="928">
      <component glyphName="Z" x="0" y="0" flags="0x1004"/>
      <component glyphName="caron" x="91" y="192" flags="0x1004"/>
    </TTGlyph>
    <TTGlyph name="a" xMin="41" yMin="-13" xMax="519" yMax="520">
      <contour>
        <pt x="438" y="327" on="1"/>
        <pt x="433" y="69" on="1"/>
        <pt x="476" y="66" on="0"/>
        <pt x="519" y="55" on="1"/>
        <pt x="517" y="20" on="1"/>
        <pt x="501" y="12" on="0"/>
        <pt x="418" y="-7" on="0"/>
        <pt x="378" y="-7" on="1"/>
        <pt x="360" y="29" on="0"/>
        <pt x="358" y="62" on="1"/>
        <pt x="244" y="-13" on="0"/>
        <pt x="198" y="-13" on="1"/>
        <pt x="127" y="-13" on="0"/>
        <pt x="41" y="63" on="0"/>
        <pt x="41" y="131" on="1"/>
        <pt x="41" y="288" on="0"/>
        <pt x="233" y="293" on="1"/>
        <pt x="345" y="296" on="0"/>
        <pt x="346" y="296" on="1"/>
        <pt x="345" y="330" on="1"/>
        <pt x="343" y="399" on="0"/>
        <pt x="295" y="460" on="0"/>
        <pt x="233" y="460" on="1"/>
        <pt x="207" y="460" on="0"/>
        <pt x="177" y="448" on="1"/>
        <pt x="153" y="348" on="1"/>
        <pt x="148" y="347" on="0"/>
        <pt x="136" y="347" on="1"/>
        <pt x="95" y="350" on="1"/>
        <pt x="79" y="393" on="0"/>
        <pt x="78" y="469" on="1"/>
        <pt x="97" y="479" on="0"/>
        <pt x="233" y="520" on="0"/>
        <pt x="252" y="520" on="1"/>
        <pt x="354" y="520" on="0"/>
        <pt x="438" y="430" on="0"/>
      </contour>
      <contour>
        <pt x="220" y="55" on="1"/>
        <pt x="249" y="55" on="0"/>
        <pt x="354" y="120" on="1"/>
        <pt x="349" y="245" on="1"/>
        <pt x="281" y="239" on="0"/>
        <pt x="189" y="229" on="0"/>
        <pt x="133" y="186" on="0"/>
        <pt x="133" y="140" on="1"/>
        <pt x="133" y="55" on="0"/>
      </contour>
    </TTGlyph>
    <TTGlyph name="aacute" xMin="41" yMin="-13" xMax="519" yMax="736">
      <component glyphName="a" x="0" y="0" flags="0x1004"/>
      <component glyphName="acute" x="149" y="0" flags="0x1004"/>
    </TTGlyph>
    <TTGlyph name="abreve" xMin="41" yMin="-13" xMax="519" yMax="739">
      <contour>
        <pt x="404" y="737" on="1"/>
        <pt x="404" y="681" on="0"/>
        <pt x="330" y="595" on="0"/>
        <pt x="205" y="595" on="0"/>
        <pt x="134" y="681" on="0"/>
        <pt x="134" y="737" on="1"/>
        <pt x="186" y="739" on="1"/>
        <pt x="186" y="707" on="0"/>
        <pt x="226" y="658" on="0"/>
        <pt x="268" y="658" on="1"/>
        <pt x="341" y="658" on="0"/>
        <pt x="341" y="737" on="1"/>
      </contour>
      <contour>
        <pt x="438" y="327" on="1"/>
        <pt x="433" y="69" on="1"/>
        <pt x="476" y="66" on="0"/>
        <pt x="519" y="55" on="1"/>
        <pt x="517" y="20" on="1"/>
        <pt x="501" y="12" on="0"/>
        <pt x="418" y="-7" on="0"/>
        <pt x="378" y="-7" on="1"/>
        <pt x="360" y="29" on="0"/>
        <pt x="358" y="62" on="1"/>
        <pt x="244" y="-13" on="0"/>
        <pt x="198" y="-13" on="1"/>
        <pt x="127" y="-13" on="0"/>
        <pt x="41" y="63" on="0"/>
        <pt x="41" y="131" on="1"/>
        <pt x="41" y="288" on="0"/>
        <pt x="233" y="293" on="1"/>
        <pt x="345" y="296" on="0"/>
        <pt x="346" y="296" on="1"/>
        <pt x="345" y="330" on="1"/>
        <pt x="343" y="399" on="0"/>
        <pt x="295" y="460" on="0"/>
        <pt x="233" y="460" on="1"/>
        <pt x="207" y="460" on="0"/>
        <pt x="177" y="448" on="1"/>
        <pt x="153" y="348" on="1"/>
        <pt x="148" y="347" on="0"/>
        <pt x="136" y="347" on="1"/>
        <pt x="95" y="350" on="1"/>
        <pt x="79" y="393" on="0"/>
        <pt x="78" y="469" on="1"/>
        <pt x="97" y="479" on="0"/>
        <pt x="233" y="520" on="0"/>
        <pt x="252" y="520" on="1"/>
        <pt x="354" y="520" on="0"/>
        <pt x="438" y="430" on="0"/>
      </contour>
      <contour>
        <pt x="220" y="55" on="1"/>
        <pt x="249" y="55" on="0"/>
        <pt x="354" y="120" on="1"/>
        <pt x="349" y="245" on="1"/>
        <pt x="281" y="239" on="0"/>
        <pt x="189" y="229" on="0"/>
        <pt x="133" y="186" on="0"/>
        <pt x="133" y="140" on="1"/>
        <pt x="133" y="55" on="0"/>
      </contour>
    </TTGlyph>
    <TTGlyph name="acircumflex" xMin="41" yMin="-13" xMax="519" yMax="736">
      <contour>
        <pt x="283" y="736" on="1"/>
        <pt x="424" y="622" on="1"/>
        <pt x="414" y="608" on="0"/>
        <pt x="391" y="586" on="1"/>
        <pt x="390" y="587" on="0"/>
        <pt x="361" y="600" on="0"/>
        <pt x="348" y="607" on="1"/>
        <pt x="309" y="628" on="0"/>
        <pt x="283" y="652" on="1"/>
        <pt x="248" y="619" on="0"/>
        <pt x="190" y="594" on="1"/>
        <pt x="176" y="587" on="0"/>
        <pt x="175" y="586" on="1"/>
        <pt x="151" y="608" on="0"/>
        <pt x="142" y="622" on="1"/>
      </contour>
      <contour>
        <pt x="438" y="327" on="1"/>
        <pt x="433" y="69" on="1"/>
        <pt x="476" y="66" on="0"/>
        <pt x="519" y="55" on="1"/>
        <pt x="517" y="20" on="1"/>
        <pt x="501" y="12" on="0"/>
        <pt x="418" y="-7" on="0"/>
        <pt x="378" y="-7" on="1"/>
        <pt x="360" y="29" on="0"/>
        <pt x="358" y="62" on="1"/>
        <pt x="244" y="-13" on="0"/>
        <pt x="198" y="-13" on="1"/>
        <pt x="127" y="-13" on="0"/>
        <pt x="41" y="63" on="0"/>
        <pt x="41" y="131" on="1"/>
        <pt x="41" y="288" on="0"/>
        <pt x="233" y="293" on="1"/>
        <pt x="345" y="296" on="0"/>
        <pt x="346" y="296" on="1"/>
        <pt x="345" y="330" on="1"/>
        <pt x="343" y="399" on="0"/>
        <pt x="295" y="460" on="0"/>
        <pt x="233" y="460" on="1"/>
        <pt x="207" y="460" on="0"/>
        <pt x="177" y="448" on="1"/>
        <pt x="153" y="348" on="1"/>
        <pt x="148" y="347" on="0"/>
        <pt x="136" y="347" on="1"/>
        <pt x="95" y="350" on="1"/>
        <pt x="79" y="393" on="0"/>
        <pt x="78" y="469" on="1"/>
        <pt x="97" y="479" on="0"/>
        <pt x="233" y="520" on="0"/>
        <pt x="252" y="520" on="1"/>
        <pt x="354" y="520" on="0"/>
        <pt x="438" y="430" on="0"/>
      </contour>
      <contour>
        <pt x="220" y="55" on="1"/>
        <pt x="249" y="55" on="0"/>
        <pt x="354" y="120" on="1"/>
        <pt x="349" y="245" on="1"/>
        <pt x="281" y="239" on="0"/>
        <pt x="189" y="229" on="0"/>
        <pt x="133" y="186" on="0"/>
        <pt x="133" y="140" on="1"/>
        <pt x="133" y="55" on="0"/>
      </contour>
    </TTGlyph>
    <TTGlyph name="acute" xMin="64" yMin="581" xMax="246" yMax="736">
      <contour>
        <pt x="64" y="622" on="1"/>
        <pt x="204" y="736" on="1"/>
        <pt x="243" y="706" on="0"/>
        <pt x="246" y="675" on="1"/>
        <pt x="222" y="652" on="0"/>
        <pt x="151" y="605" on="0"/>
        <pt x="104" y="581" on="1"/>
        <pt x="86" y="594" on="0"/>
      </contour>
    </TTGlyph>
    <TTGlyph name="adieresis" xMin="41" yMin="-13" xMax="519" yMax="686">
      <contour>
        <pt x="223" y="606" on="1"/>
        <pt x="203" y="602" on="0"/>
        <pt x="158" y="602" on="0"/>
        <pt x="144" y="604" on="1"/>
        <pt x="139" y="622" on="0"/>
        <pt x="139" y="659" on="0"/>
        <pt x="141" y="683" on="1"/>
        <pt x="156" y="686" on="0"/>
        <pt x="208" y="686" on="0"/>
        <pt x="220" y="685" on="1"/>
        <pt x="224" y="663" on="0"/>
        <pt x="224" y="616" on="0"/>
      </contour>
      <contour>
        <pt x="388" y="606" on="1"/>
        <pt x="368" y="602" on="0"/>
        <pt x="323" y="602" on="0"/>
        <pt x="309" y="604" on="1"/>
        <pt x="304" y="622" on="0"/>
        <pt x="304" y="659" on="0"/>
        <pt x="306" y="683" on="1"/>
        <pt x="321" y="686" on="0"/>
        <pt x="373" y="686" on="0"/>
        <pt x="385" y="685" on="1"/>
        <pt x="389" y="663" on="0"/>
        <pt x="389" y="616" on="0"/>
      </contour>
      <contour>
        <pt x="438" y="327" on="1"/>
        <pt x="433" y="69" on="1"/>
        <pt x="476" y="66" on="0"/>
        <pt x="519" y="55" on="1"/>
        <pt x="517" y="20" on="1"/>
        <pt x="501" y="12" on="0"/>
        <pt x="418" y="-7" on="0"/>
        <pt x="378" y="-7" on="1"/>
        <pt x="360" y="29" on="0"/>
        <pt x="358" y="62" on="1"/>
        <pt x="244" y="-13" on="0"/>
        <pt x="198" y="-13" on="1"/>
        <pt x="127" y="-13" on="0"/>
        <pt x="41" y="63" on="0"/>
        <pt x="41" y="131" on="1"/>
        <pt x="41" y="288" on="0"/>
        <pt x="233" y="293" on="1"/>
        <pt x="345" y="296" on="0"/>
        <pt x="346" y="296" on="1"/>
        <pt x="345" y="330" on="1"/>
        <pt x="343" y="399" on="0"/>
        <pt x="295" y="460" on="0"/>
        <pt x="233" y="460" on="1"/>
        <pt x="207" y="460" on="0"/>
        <pt x="177" y="448" on="1"/>
        <pt x="153" y="348" on="1"/>
        <pt x="148" y="347" on="0"/>
        <pt x="136" y="347" on="1"/>
        <pt x="95" y="350" on="1"/>
        <pt x="79" y="393" on="0"/>
        <pt x="78" y="469" on="1"/>
        <pt x="97" y="479" on="0"/>
        <pt x="233" y="520" on="0"/>
        <pt x="252" y="520" on="1"/>
        <pt x="354" y="520" on="0"/>
        <pt x="438" y="430" on="0"/>
      </contour>
      <contour>
        <pt x="220" y="55" on="1"/>
        <pt x="249" y="55" on="0"/>
        <pt x="354" y="120" on="1"/>
        <pt x="349" y="245" on="1"/>
        <pt x="281" y="239" on="0"/>
        <pt x="189" y="229" on="0"/>
        <pt x="133" y="186" on="0"/>
        <pt x="133" y="140" on="1"/>
        <pt x="133" y="55" on="0"/>
      </contour>
    </TTGlyph>
    <TTGlyph name="ae" xMin="45" yMin="-12" xMax="780" yMax="520">
      <contour>
        <pt x="225" y="56" on="1"/>
        <pt x="255" y="56" on="0"/>
        <pt x="336" y="114" on="1"/>
        <pt x="358" y="130" on="0"/>
        <pt x="359" y="130" on="1"/>
        <pt x="354" y="245" on="1"/>
        <pt x="226" y="232" on="0"/>
        <pt x="205" y="227" on="1"/>
        <pt x="133" y="208" on="0"/>
        <pt x="133" y="140" on="1"/>
        <pt x="133" y="99" on="0"/>
        <pt x="183" y="56" on="0"/>
      </contour>
      <contour>
        <pt x="351" y="296" on="1"/>
        <pt x="350" y="330" on="1"/>
        <pt x="348" y="401" on="0"/>
        <pt x="299" y="460" on="0"/>
        <pt x="238" y="460" on="1"/>
        <pt x="212" y="460" on="0"/>
        <pt x="182" y="448" on="1"/>
        <pt x="158" y="347" on="1"/>
        <pt x="141" y="347" on="1"/>
        <pt x="100" y="350" on="1"/>
        <pt x="84" y="393" on="0"/>
        <pt x="83" y="469" on="1"/>
        <pt x="102" y="479" on="0"/>
        <pt x="238" y="520" on="0"/>
        <pt x="257" y="520" on="1"/>
        <pt x="373" y="520" on="0"/>
        <pt x="415" y="452" on="1"/>
        <pt x="475" y="520" on="0"/>
        <pt x="681" y="520" on="0"/>
        <pt x="780" y="391" on="0"/>
        <pt x="780" y="291" on="1"/>
        <pt x="780" y="276" on="1"/>
        <pt x="773" y="263" on="0"/>
        <pt x="768" y="263" on="1"/>
        <pt x="443" y="263" on="1"/>
        <pt x="443" y="114" on="0"/>
        <pt x="514" y="73" on="1"/>
        <pt x="545" y="55" on="0"/>
        <pt x="626" y="55" on="0"/>
        <pt x="724" y="80" on="0"/>
        <pt x="748" y="91" on="1"/>
        <pt x="766" y="66" on="0"/>
        <pt x="766" y="51" on="1"/>
        <pt x="766" y="43" on="1"/>
        <pt x="675" y="-11" on="0"/>
        <pt x="523" y="-11" on="0"/>
        <pt x="421" y="45" on="0"/>
        <pt x="394" y="91" on="1"/>
        <pt x="369" y="68" on="0"/>
        <pt x="237" y="-12" on="0"/>
        <pt x="203" y="-12" on="1"/>
        <pt x="45" y="-12" on="0"/>
        <pt x="45" y="131" on="1"/>
        <pt x="45" y="187" on="0"/>
        <pt x="99" y="274" on="0"/>
        <pt x="221" y="296" on="0"/>
      </contour>
      <contour>
        <pt x="589" y="460" on="1"/>
        <pt x="528" y="459" on="0"/>
        <pt x="447" y="381" on="0"/>
        <pt x="445" y="315" on="1"/>
        <pt x="524" y="316" on="0"/>
        <pt x="687" y="320" on="1"/>
        <pt x="687" y="460" on="0"/>
      </contour>
    </TTGlyph>
    <TTGlyph name="agrave" xMin="41" yMin="-13" xMax="519" yMax="736">
      <contour>
        <pt x="348" y="622" on="1"/>
        <pt x="325" y="595" on="0"/>
        <pt x="308" y="581" on="1"/>
        <pt x="220" y="623" on="0"/>
        <pt x="166" y="675" on="1"/>
        <pt x="167" y="689" on="0"/>
        <pt x="188" y="719" on="0"/>
        <pt x="208" y="736" on="1"/>
      </contour>
      <contour>
        <pt x="438" y="327" on="1"/>
        <pt x="433" y="69" on="1"/>
        <pt x="476" y="66" on="0"/>
        <pt x="519" y="55" on="1"/>
        <pt x="517" y="20" on="1"/>
        <pt x="501" y="12" on="0"/>
        <pt x="418" y="-7" on="0"/>
        <pt x="378" y="-7" on="1"/>
        <pt x="360" y="29" on="0"/>
        <pt x="358" y="62" on="1"/>
        <pt x="244" y="-13" on="0"/>
        <pt x="198" y="-13" on="1"/>
        <pt x="127" y="-13" on="0"/>
        <pt x="41" y="63" on="0"/>
        <pt x="41" y="131" on="1"/>
        <pt x="41" y="288" on="0"/>
        <pt x="233" y="293" on="1"/>
        <pt x="345" y="296" on="0"/>
        <pt x="346" y="296" on="1"/>
        <pt x="345" y="330" on="1"/>
        <pt x="343" y="399" on="0"/>
        <pt x="295" y="460" on="0"/>
        <pt x="233" y="460" on="1"/>
        <pt x="207" y="460" on="0"/>
        <pt x="177" y="448" on="1"/>
        <pt x="153" y="348" on="1"/>
        <pt x="148" y="347" on="0"/>
        <pt x="136" y="347" on="1"/>
        <pt x="95" y="350" on="1"/>
        <pt x="79" y="393" on="0"/>
        <pt x="78" y="469" on="1"/>
        <pt x="97" y="479" on="0"/>
        <pt x="233" y="520" on="0"/>
        <pt x="252" y="520" on="1"/>
        <pt x="354" y="520" on="0"/>
        <pt x="438" y="430" on="0"/>
      </contour>
      <contour>
        <pt x="220" y="55" on="1"/>
        <pt x="249" y="55" on="0"/>
        <pt x="354" y="120" on="1"/>
        <pt x="349" y="245" on="1"/>
        <pt x="281" y="239" on="0"/>
        <pt x="189" y="229" on="0"/>
        <pt x="133" y="186" on="0"/>
        <pt x="133" y="140" on="1"/>
        <pt x="133" y="55" on="0"/>
      </contour>
    </TTGlyph>
    <TTGlyph name="alternateE" xMin="30" yMin="-6" xMax="514" yMax="699">
      <contour>
        <pt x="512" y="60" on="1"/>
        <pt x="514" y="50" on="0"/>
        <pt x="514" y="33" on="1"/>
        <pt x="512" y="6" on="1"/>
        <pt x="448" y="-6" on="0"/>
        <pt x="392" y="-6" on="1"/>
        <pt x="38" y="1" on="1"/>
        <pt x="35" y="14" on="0"/>
        <pt x="35" y="27" on="1"/>
        <pt x="38" y="55" on="1"/>
        <pt x="102" y="67" on="0"/>
        <pt x="159" y="67" on="1"/>
      </contour>
      <contour>
        <pt x="500" y="273" on="1"/>
        <pt x="514" y="215" on="0"/>
        <pt x="514" y="128" on="0"/>
        <pt x="512" y="116" on="1"/>
        <pt x="46" y="116" on="1"/>
        <pt x="43" y="151" on="1"/>
        <pt x="87" y="167" on="0"/>
        <pt x="128" y="174" on="1"/>
        <pt x="122" y="480" on="0"/>
        <pt x="118" y="638" on="1"/>
        <pt x="96" y="640" on="0"/>
        <pt x="30" y="662" on="1"/>
        <pt x="35" y="699" on="1"/>
        <pt x="497" y="699" on="1"/>
        <pt x="499" y="686" on="0"/>
        <pt x="499" y="660" on="1"/>
        <pt x="499" y="606" on="0"/>
        <pt x="485" y="540" on="1"/>
        <pt x="474" y="540" on="0"/>
        <pt x="427" y="537" on="1"/>
        <pt x="403" y="631" on="1"/>
        <pt x="218" y="631" on="1"/>
        <pt x="217" y="569" on="0"/>
        <pt x="213" y="440" on="1"/>
        <pt x="351" y="440" on="1"/>
        <pt x="359" y="512" on="1"/>
        <pt x="387" y="512" on="0"/>
        <pt x="419" y="495" on="1"/>
        <pt x="419" y="305" on="1"/>
        <pt x="384" y="302" on="1"/>
        <pt x="369" y="345" on="0"/>
        <pt x="364" y="374" on="1"/>
        <pt x="213" y="374" on="1"/>
        <pt x="211" y="309" on="0"/>
        <pt x="209" y="183" on="1"/>
        <pt x="418" y="183" on="1"/>
        <pt x="442" y="276" on="1"/>
      </contour>
    </TTGlyph>
    <TTGlyph name="alternateQ" xMin="38" yMin="-287" xMax="1013" yMax="713">
      <contour>
        <pt x="892" y="-282" on="1"/>
        <pt x="867" y="-287" on="0"/>
        <pt x="761" y="-287" on="0"/>
        <pt x="587" y="-238" on="0"/>
        <pt x="448" y="-178" on="0"/>
        <pt x="289" y="-129" on="0"/>
        <pt x="234" y="-129" on="1"/>
        <pt x="215" y="-129" on="0"/>
        <pt x="110" y="-154" on="0"/>
        <pt x="105" y="-154" on="1"/>
        <pt x="83" y="-136" on="0"/>
        <pt x="81" y="-108" on="1"/>
        <pt x="190" y="-54" on="0"/>
        <pt x="248" y="-54" on="1"/>
        <pt x="307" y="-54" on="0"/>
        <pt x="407" y="-94" on="1"/>
        <pt x="614" y="-175" on="0"/>
        <pt x="763" y="-175" on="1"/>
        <pt x="848" y="-175" on="0"/>
        <pt x="909" y="-140" on="1"/>
        <pt x="944" y="-120" on="0"/>
        <pt x="979" y="-89" on="0"/>
        <pt x="980" y="-89" on="1"/>
        <pt x="1012" y="-101" on="0"/>
        <pt x="1012" y="-121" on="1"/>
        <pt x="1012" y="-126" on="0"/>
        <pt x="984" y="-180" on="0"/>
        <pt x="924" y="-258" on="0"/>
      </contour>
      <contour>
        <pt x="345" y="65" on="1"/>
        <pt x="547" y="65" on="0"/>
        <pt x="547" y="634" on="0"/>
        <pt x="345" y="634" on="1"/>
        <pt x="250" y="634" on="0"/>
        <pt x="190" y="606" on="1"/>
        <pt x="136" y="499" on="0"/>
        <pt x="136" y="220" on="0"/>
        <pt x="229" y="65" on="0"/>
      </contour>
      <contour>
        <pt x="38" y="522" on="0"/>
        <pt x="183" y="713" on="0"/>
        <pt x="510" y="713" on="0"/>
        <pt x="645" y="538" on="0"/>
        <pt x="645" y="184" on="0"/>
        <pt x="500" y="-12" on="0"/>
        <pt x="183" y="-12" on="0"/>
        <pt x="38" y="170" on="0"/>
      </contour>
    </TTGlyph>
    <TTGlyph name="alternatedagger" xMin="21" yMin="-32" xMax="436" yMax="734">
      <contour>
        <pt x="273" y="734" on="1"/>
        <pt x="274" y="713" on="1"/>
        <pt x="274" y="626" on="0"/>
        <pt x="261" y="512" on="1"/>
        <pt x="354" y="520" on="0"/>
        <pt x="436" y="520" on="1"/>
        <pt x="433" y="422" on="1"/>
        <pt x="374" y="422" on="0"/>
        <pt x="259" y="436" on="1"/>
        <pt x="275" y="-30" on="1"/>
        <pt x="249" y="-32" on="0"/>
        <pt x="202" y="-32" on="0"/>
        <pt x="182" y="-27" on="1"/>
        <pt x="199" y="437" on="1"/>
        <pt x="73" y="422" on="0"/>
        <pt x="30" y="422" on="1"/>
        <pt x="24" y="422" on="1"/>
        <pt x="21" y="483" on="0"/>
        <pt x="21" y="509" on="1"/>
        <pt x="21" y="520" on="1"/>
        <pt x="34" y="520" on="1"/>
        <pt x="104" y="520" on="0"/>
        <pt x="195" y="512" on="1"/>
        <pt x="187" y="563" on="0"/>
        <pt x="175" y="713" on="0"/>
        <pt x="175" y="731" on="1"/>
        <pt x="234" y="734" on="0"/>
        <pt x="261" y="734" on="1"/>
      </contour>
    </TTGlyph>
    <TTGlyph name="amacron" xMin="41" yMin="-13" xMax="519" yMax="705">
      <component glyphName="a" x="0" y="0" flags="0x1004"/>
      <component glyphName="macron" x="128" y="0" flags="0x1004"/>
    </TTGlyph>
    <TTGlyph name="ampersand" xMin="40" yMin="-18" xMax="708" yMax="712">
      <contour>
        <pt x="193" y="323" on="0"/>
        <pt x="134" y="244" on="0"/>
        <pt x="134" y="159" on="0"/>
        <pt x="170" y="97" on="0"/>
        <pt x="197" y="82" on="1"/>
        <pt x="248" y="52" on="0"/>
        <pt x="297" y="52" on="1"/>
        <pt x="400" y="52" on="0"/>
        <pt x="469" y="134" on="1"/>
        <pt x="239" y="344" on="1"/>
      </contour>
      <contour>
        <pt x="293" y="-12" on="1"/>
        <pt x="178" y="-12" on="0"/>
        <pt x="40" y="96" on="0"/>
        <pt x="40" y="198" on="1"/>
        <pt x="40" y="266" on="0"/>
        <pt x="125" y="368" on="0"/>
        <pt x="181" y="393" on="1"/>
        <pt x="144" y="434" on="0"/>
        <pt x="111" y="504" on="0"/>
        <pt x="111" y="553" on="1"/>
        <pt x="111" y="622" on="0"/>
        <pt x="216" y="712" on="0"/>
        <pt x="307" y="712" on="1"/>
        <pt x="356" y="712" on="0"/>
        <pt x="447" y="670" on="0"/>
        <pt x="473" y="645" on="1"/>
        <pt x="456" y="546" on="1"/>
        <pt x="445" y="542" on="0"/>
        <pt x="428" y="542" on="1"/>
        <pt x="409" y="543" on="1"/>
        <pt x="384" y="646" on="1"/>
        <pt x="355" y="654" on="0"/>
        <pt x="259" y="654" on="0"/>
        <pt x="211" y="594" on="0"/>
        <pt x="211" y="534" on="0"/>
        <pt x="236" y="482" on="0"/>
        <pt x="263" y="451" on="0"/>
        <pt x="296" y="418" on="1"/>
        <pt x="327" y="386" on="0"/>
        <pt x="506" y="189" on="1"/>
        <pt x="544" y="256" on="0"/>
        <pt x="544" y="391" on="1"/>
        <pt x="544" y="420" on="0"/>
        <pt x="542" y="438" on="1"/>
        <pt x="458" y="446" on="1"/>
        <pt x="458" y="474" on="0"/>
        <pt x="475" y="506" on="1"/>
        <pt x="705" y="506" on="1"/>
        <pt x="708" y="471" on="1"/>
        <pt x="662" y="455" on="0"/>
        <pt x="616" y="447" on="1"/>
        <pt x="615" y="389" on="0"/>
        <pt x="578" y="201" on="0"/>
        <pt x="547" y="153" on="1"/>
        <pt x="676" y="11" on="1"/>
        <pt x="660" y="-18" on="0"/>
        <pt x="636" y="-18" on="1"/>
        <pt x="506" y="94" on="1"/>
        <pt x="469" y="52" on="0"/>
        <pt x="342" y="-12" on="0"/>
      </contour>
    </TTGlyph>
    <TTGlyph name="approxequal" xMin="70" yMin="112" xMax="525" yMax="412">
      <contour>
        <pt x="201" y="412" on="1"/>
        <pt x="404" y="362" on="1"/>
        <pt x="422" y="372" on="0"/>
        <pt x="508" y="398" on="1"/>
        <pt x="525" y="369" on="1"/>
        <pt x="513" y="351" on="0"/>
        <pt x="416" y="287" on="0"/>
        <pt x="395" y="287" on="1"/>
        <pt x="191" y="337" on="1"/>
        <pt x="173" y="327" on="0"/>
        <pt x="87" y="301" on="1"/>
        <pt x="70" y="330" on="1"/>
        <pt x="82" y="348" on="0"/>
        <pt x="179" y="412" on="0"/>
      </contour>
      <contour>
        <pt x="201" y="237" on="1"/>
        <pt x="404" y="187" on="1"/>
        <pt x="422" y="197" on="0"/>
        <pt x="508" y="223" on="1"/>
        <pt x="525" y="194" on="1"/>
        <pt x="513" y="176" on="0"/>
        <pt x="416" y="112" on="0"/>
        <pt x="395" y="112" on="1"/>
        <pt x="191" y="162" on="1"/>
        <pt x="173" y="152" on="0"/>
        <pt x="87" y="126" on="1"/>
        <pt x="70" y="155" on="1"/>
        <pt x="82" y="173" on="0"/>
        <pt x="179" y="237" on="0"/>
      </contour>
    </TTGlyph>
    <TTGlyph name="aring" xMin="41" yMin="-13" xMax="519" yMax="803">
      <contour>
        <pt x="230" y="757" on="0"/>
        <pt x="197" y="718" on="0"/>
        <pt x="197" y="653" on="0"/>
        <pt x="230" y="615" on="0"/>
        <pt x="285" y="615" on="0"/>
        <pt x="318" y="653" on="0"/>
        <pt x="318" y="718" on="0"/>
        <pt x="285" y="757" on="0"/>
      </contour>
      <contour>
        <pt x="307" y="803" on="0"/>
        <pt x="378" y="739" on="0"/>
        <pt x="378" y="630" on="0"/>
        <pt x="308" y="571" on="0"/>
        <pt x="208" y="571" on="0"/>
        <pt x="136" y="631" on="0"/>
        <pt x="136" y="739" on="0"/>
        <pt x="209" y="803" on="0"/>
      </contour>
      <contour>
        <pt x="438" y="327" on="1"/>
        <pt x="433" y="69" on="1"/>
        <pt x="476" y="66" on="0"/>
        <pt x="519" y="55" on="1"/>
        <pt x="517" y="20" on="1"/>
        <pt x="501" y="12" on="0"/>
        <pt x="418" y="-7" on="0"/>
        <pt x="378" y="-7" on="1"/>
        <pt x="360" y="29" on="0"/>
        <pt x="358" y="62" on="1"/>
        <pt x="244" y="-13" on="0"/>
        <pt x="198" y="-13" on="1"/>
        <pt x="127" y="-13" on="0"/>
        <pt x="41" y="63" on="0"/>
        <pt x="41" y="131" on="1"/>
        <pt x="41" y="288" on="0"/>
        <pt x="233" y="293" on="1"/>
        <pt x="345" y="296" on="0"/>
        <pt x="346" y="296" on="1"/>
        <pt x="345" y="330" on="1"/>
        <pt x="343" y="399" on="0"/>
        <pt x="295" y="460" on="0"/>
        <pt x="233" y="460" on="1"/>
        <pt x="207" y="460" on="0"/>
        <pt x="177" y="448" on="1"/>
        <pt x="153" y="348" on="1"/>
        <pt x="148" y="347" on="0"/>
        <pt x="136" y="347" on="1"/>
        <pt x="95" y="350" on="1"/>
        <pt x="79" y="393" on="0"/>
        <pt x="78" y="469" on="1"/>
        <pt x="97" y="479" on="0"/>
        <pt x="233" y="520" on="0"/>
        <pt x="252" y="520" on="1"/>
        <pt x="354" y="520" on="0"/>
        <pt x="438" y="430" on="0"/>
      </contour>
      <contour>
        <pt x="220" y="55" on="1"/>
        <pt x="249" y="55" on="0"/>
        <pt x="354" y="120" on="1"/>
        <pt x="349" y="245" on="1"/>
        <pt x="281" y="239" on="0"/>
        <pt x="189" y="229" on="0"/>
        <pt x="133" y="186" on="0"/>
        <pt x="133" y="140" on="1"/>
        <pt x="133" y="55" on="0"/>
      </contour>
    </TTGlyph>
    <TTGlyph name="asciicircum" xMin="60" yMin="377" xMax="452" yMax="702">
      <contour>
        <pt x="223" y="700" on="1"/>
        <pt x="227" y="702" on="0"/>
        <pt x="285" y="702" on="0"/>
        <pt x="294" y="699" on="1"/>
        <pt x="452" y="396" on="1"/>
        <pt x="447" y="390" on="0"/>
        <pt x="413" y="377" on="0"/>
        <pt x="406" y="377" on="1"/>
        <pt x="366" y="428" on="0"/>
        <pt x="304" y="542" on="0"/>
        <pt x="256" y="638" on="1"/>
        <pt x="179" y="483" on="0"/>
        <pt x="127" y="405" on="0"/>
        <pt x="106" y="377" on="1"/>
        <pt x="99" y="377" on="0"/>
        <pt x="65" y="390" on="0"/>
        <pt x="60" y="396" on="1"/>
        <pt x="217" y="695" on="0"/>
      </contour>
    </TTGlyph>
    <TTGlyph name="asciitilde" xMin="50" yMin="196" xMax="515" yMax="343">
      <contour>
        <pt x="181" y="343" on="1"/>
        <pt x="394" y="271" on="1"/>
        <pt x="416" y="283" on="0"/>
        <pt x="498" y="308" on="1"/>
        <pt x="515" y="279" on="1"/>
        <pt x="503" y="261" on="0"/>
        <pt x="406" y="196" on="0"/>
        <pt x="385" y="196" on="1"/>
        <pt x="171" y="268" on="1"/>
        <pt x="149" y="256" on="0"/>
        <pt x="67" y="231" on="1"/>
        <pt x="50" y="260" on="1"/>
        <pt x="62" y="278" on="0"/>
        <pt x="159" y="343" on="0"/>
      </contour>
    </TTGlyph>
    <TTGlyph name="asterisk" xMin="35" yMin="408" xMax="385" yMax="736">
      <contour>
        <pt x="209" y="730" on="1"/>
        <pt x="232" y="736" on="0"/>
        <pt x="270" y="736" on="0"/>
        <pt x="282" y="733" on="1"/>
        <pt x="287" y="730" on="0"/>
        <pt x="291" y="709" on="1"/>
        <pt x="277" y="672" on="0"/>
        <pt x="232" y="593" on="1"/>
        <pt x="332" y="648" on="0"/>
        <pt x="346" y="652" on="1"/>
        <pt x="377" y="620" on="0"/>
        <pt x="385" y="590" on="1"/>
        <pt x="385" y="583" on="0"/>
        <pt x="369" y="571" on="1"/>
        <pt x="313" y="563" on="0"/>
        <pt x="238" y="563" on="1"/>
        <pt x="334" y="507" on="0"/>
        <pt x="347" y="494" on="1"/>
        <pt x="335" y="451" on="0"/>
        <pt x="313" y="429" on="1"/>
        <pt x="311" y="428" on="0"/>
        <pt x="309" y="428" on="1"/>
        <pt x="288" y="434" on="1"/>
        <pt x="267" y="460" on="0"/>
        <pt x="217" y="541" on="1"/>
        <pt x="215" y="435" on="0"/>
        <pt x="211" y="414" on="1"/>
        <pt x="188" y="408" on="0"/>
        <pt x="150" y="408" on="0"/>
        <pt x="138" y="411" on="1"/>
        <pt x="133" y="414" on="0"/>
        <pt x="129" y="435" on="1"/>
        <pt x="141" y="466" on="0"/>
        <pt x="186" y="549" on="1"/>
        <pt x="93" y="497" on="0"/>
        <pt x="74" y="492" on="1"/>
        <pt x="43" y="524" on="0"/>
        <pt x="35" y="554" on="1"/>
        <pt x="35" y="561" on="0"/>
        <pt x="51" y="573" on="1"/>
        <pt x="91" y="580" on="0"/>
        <pt x="179" y="580" on="1"/>
        <pt x="87" y="636" on="0"/>
        <pt x="73" y="650" on="1"/>
        <pt x="85" y="693" on="0"/>
        <pt x="107" y="715" on="1"/>
        <pt x="109" y="716" on="0"/>
        <pt x="111" y="716" on="1"/>
        <pt x="132" y="710" on="1"/>
        <pt x="156" y="681" on="0"/>
        <pt x="202" y="602" on="1"/>
        <pt x="204" y="710" on="0"/>
      </contour>
    </TTGlyph>
    <TTGlyph name="at" xMin="70" yMin="-160" xMax="855" yMax="665">
      <contour>
        <pt x="619" y="319" on="1"/>
        <pt x="615" y="89" on="1"/>
        <pt x="652" y="87" on="0"/>
        <pt x="683" y="75" on="1"/>
        <pt x="701" y="82" on="0"/>
        <pt x="742" y="118" on="0"/>
        <pt x="772" y="163" on="0"/>
        <pt x="796" y="246" on="0"/>
        <pt x="796" y="297" on="1"/>
        <pt x="796" y="439" on="0"/>
        <pt x="621" y="607" on="0"/>
        <pt x="468" y="607" on="1"/>
        <pt x="127" y="607" on="0"/>
        <pt x="127" y="263" on="1"/>
        <pt x="127" y="87" on="0"/>
        <pt x="315" y="-104" on="0"/>
        <pt x="467" y="-104" on="1"/>
        <pt x="600" y="-104" on="0"/>
        <pt x="696" y="-48" on="1"/>
        <pt x="714" y="-76" on="0"/>
        <pt x="714" y="-96" on="1"/>
        <pt x="619" y="-160" on="0"/>
        <pt x="468" y="-160" on="1"/>
        <pt x="282" y="-160" on="0"/>
        <pt x="70" y="63" on="0"/>
        <pt x="70" y="261" on="1"/>
        <pt x="70" y="665" on="0"/>
        <pt x="468" y="665" on="1"/>
        <pt x="651" y="665" on="0"/>
        <pt x="855" y="467" on="0"/>
        <pt x="855" y="299" on="1"/>
        <pt x="855" y="18" on="0"/>
        <pt x="566" y="18" on="1"/>
        <pt x="551" y="49" on="0"/>
        <pt x="549" y="83" on="1"/>
        <pt x="530" y="67" on="0"/>
        <pt x="438" y="17" on="0"/>
        <pt x="408" y="17" on="1"/>
        <pt x="349" y="17" on="0"/>
        <pt x="273" y="78" on="0"/>
        <pt x="273" y="144" on="1"/>
        <pt x="273" y="261" on="0"/>
        <pt x="370" y="280" on="1"/>
        <pt x="424" y="290" on="0"/>
        <pt x="539" y="290" on="1"/>
        <pt x="538" y="319" on="1"/>
        <pt x="536" y="381" on="0"/>
        <pt x="492" y="434" on="0"/>
        <pt x="439" y="434" on="1"/>
        <pt x="418" y="434" on="0"/>
        <pt x="389" y="423" on="1"/>
        <pt x="368" y="334" on="1"/>
        <pt x="335" y="334" on="0"/>
        <pt x="317" y="337" on="1"/>
        <pt x="303" y="375" on="0"/>
        <pt x="302" y="442" on="1"/>
        <pt x="319" y="451" on="0"/>
        <pt x="439" y="487" on="0"/>
        <pt x="456" y="487" on="1"/>
        <pt x="542" y="487" on="0"/>
        <pt x="619" y="409" on="0"/>
      </contour>
      <contour>
        <pt x="427" y="78" on="1"/>
        <pt x="444" y="78" on="0"/>
        <pt x="470" y="93" on="1"/>
        <pt x="510" y="117" on="0"/>
        <pt x="546" y="143" on="1"/>
        <pt x="541" y="245" on="1"/>
        <pt x="421" y="231" on="0"/>
        <pt x="409" y="228" on="1"/>
        <pt x="351" y="214" on="0"/>
        <pt x="351" y="152" on="1"/>
        <pt x="351" y="78" on="0"/>
      </contour>
    </TTGlyph>
    <TTGlyph name="atilde" xMin="41" yMin="-13" xMax="519" yMax="711">
      <contour>
        <pt x="185" y="636" on="1"/>
        <pt x="156" y="617" on="0"/>
        <pt x="101" y="599" on="1"/>
        <pt x="84" y="628" on="1"/>
        <pt x="111" y="665" on="0"/>
        <pt x="188" y="711" on="0"/>
        <pt x="195" y="711" on="1"/>
        <pt x="214" y="711" on="0"/>
        <pt x="321" y="665" on="0"/>
        <pt x="332" y="662" on="1"/>
        <pt x="389" y="693" on="0"/>
        <pt x="416" y="702" on="1"/>
        <pt x="433" y="673" on="1"/>
        <pt x="406" y="636" on="0"/>
        <pt x="356" y="606" on="1"/>
        <pt x="352" y="604" on="0"/>
        <pt x="344" y="598" on="1"/>
        <pt x="329" y="587" on="0"/>
        <pt x="322" y="587" on="1"/>
        <pt x="302" y="594" on="0"/>
        <pt x="271" y="607" on="1"/>
        <pt x="202" y="636" on="0"/>
      </contour>
      <contour>
        <pt x="438" y="327" on="1"/>
        <pt x="433" y="69" on="1"/>
        <pt x="476" y="66" on="0"/>
        <pt x="519" y="55" on="1"/>
        <pt x="517" y="20" on="1"/>
        <pt x="501" y="12" on="0"/>
        <pt x="418" y="-7" on="0"/>
        <pt x="378" y="-7" on="1"/>
        <pt x="360" y="29" on="0"/>
        <pt x="358" y="62" on="1"/>
        <pt x="244" y="-13" on="0"/>
        <pt x="198" y="-13" on="1"/>
        <pt x="127" y="-13" on="0"/>
        <pt x="41" y="63" on="0"/>
        <pt x="41" y="131" on="1"/>
        <pt x="41" y="288" on="0"/>
        <pt x="233" y="293" on="1"/>
        <pt x="345" y="296" on="0"/>
        <pt x="346" y="296" on="1"/>
        <pt x="345" y="330" on="1"/>
        <pt x="343" y="399" on="0"/>
        <pt x="295" y="460" on="0"/>
        <pt x="233" y="460" on="1"/>
        <pt x="207" y="460" on="0"/>
        <pt x="177" y="448" on="1"/>
        <pt x="153" y="348" on="1"/>
        <pt x="148" y="347" on="0"/>
        <pt x="136" y="347" on="1"/>
        <pt x="95" y="350" on="1"/>
        <pt x="79" y="393" on="0"/>
        <pt x="78" y="469" on="1"/>
        <pt x="97" y="479" on="0"/>
        <pt x="233" y="520" on="0"/>
        <pt x="252" y="520" on="1"/>
        <pt x="354" y="520" on="0"/>
        <pt x="438" y="430" on="0"/>
      </contour>
      <contour>
        <pt x="220" y="55" on="1"/>
        <pt x="249" y="55" on="0"/>
        <pt x="354" y="120" on="1"/>
        <pt x="349" y="245" on="1"/>
        <pt x="281" y="239" on="0"/>
        <pt x="189" y="229" on="0"/>
        <pt x="133" y="186" on="0"/>
        <pt x="133" y="140" on="1"/>
        <pt x="133" y="55" on="0"/>
      </contour>
    </TTGlyph>
    <TTGlyph name="b" xMin="7" yMin="-12" xMax="531" yMax="743">
      <contour>
        <pt x="330" y="445" on="1"/>
        <pt x="265" y="445" on="0"/>
        <pt x="187" y="403" on="1"/>
        <pt x="185" y="311" on="0"/>
        <pt x="182" y="154" on="0"/>
        <pt x="181" y="123" on="1"/>
        <pt x="206" y="98" on="0"/>
        <pt x="290" y="56" on="0"/>
        <pt x="321" y="56" on="1"/>
        <pt x="439" y="56" on="0"/>
        <pt x="439" y="250" on="1"/>
        <pt x="439" y="324" on="0"/>
        <pt x="405" y="409" on="0"/>
        <pt x="361" y="445" on="0"/>
      </contour>
      <contour>
        <pt x="159" y="743" on="1"/>
        <pt x="190" y="743" on="0"/>
        <pt x="203" y="741" on="1"/>
        <pt x="203" y="711" on="0"/>
        <pt x="190" y="661" on="1"/>
        <pt x="190" y="638" on="0"/>
        <pt x="189" y="596" on="1"/>
        <pt x="187" y="514" on="0"/>
        <pt x="187" y="457" on="1"/>
        <pt x="311" y="520" on="0"/>
        <pt x="348" y="520" on="1"/>
        <pt x="441" y="520" on="0"/>
        <pt x="531" y="375" on="0"/>
        <pt x="531" y="144" on="0"/>
        <pt x="430" y="-12" on="0"/>
        <pt x="334" y="-12" on="1"/>
        <pt x="295" y="-12" on="0"/>
        <pt x="202" y="32" on="0"/>
        <pt x="169" y="62" on="1"/>
        <pt x="165" y="25" on="0"/>
        <pt x="153" y="-6" on="1"/>
        <pt x="149" y="-7" on="0"/>
        <pt x="127" y="-7" on="0"/>
        <pt x="106" y="-4" on="1"/>
        <pt x="95" y="663" on="1"/>
        <pt x="45" y="666" on="0"/>
        <pt x="7" y="676" on="1"/>
        <pt x="11" y="728" on="1"/>
        <pt x="62" y="743" on="0"/>
      </contour>
    </TTGlyph>
    <TTGlyph name="backslash" xMin="30" yMin="-4" xMax="377" yMax="703">
      <contour>
        <pt x="377" y="-2" on="1"/>
        <pt x="361" y="-4" on="0"/>
        <pt x="325" y="-4" on="0"/>
        <pt x="304" y="0" on="1"/>
        <pt x="30" y="698" on="1"/>
        <pt x="62" y="703" on="0"/>
        <pt x="87" y="703" on="0"/>
        <pt x="117" y="700" on="1"/>
      </contour>
    </TTGlyph>
    <TTGlyph name="bar" xMin="100" yMin="-219" xMax="198" yMax="752">
      <contour>
        <pt x="187" y="-216" on="1"/>
        <pt x="180" y="-219" on="0"/>
        <pt x="122" y="-219" on="0"/>
        <pt x="112" y="-216" on="1"/>
        <pt x="101" y="715" on="0"/>
        <pt x="100" y="749" on="1"/>
        <pt x="112" y="752" on="0"/>
        <pt x="188" y="752" on="0"/>
        <pt x="198" y="750" on="1"/>
      </contour>
    </TTGlyph>
    <TTGlyph name="braceleft" xMin="31" yMin="-172" xMax="350" yMax="773">
      <contour>
        <pt x="223" y="656" on="1"/>
        <pt x="227" y="435" on="1"/>
        <pt x="227" y="374" on="0"/>
        <pt x="86" y="316" on="1"/>
        <pt x="86" y="285" on="1"/>
        <pt x="227" y="227" on="0"/>
        <pt x="227" y="166" on="1"/>
        <pt x="223" y="-55" on="1"/>
        <pt x="337" y="-113" on="0"/>
        <pt x="350" y="-124" on="1"/>
        <pt x="342" y="-147" on="0"/>
        <pt x="329" y="-172" on="1"/>
        <pt x="305" y="-170" on="0"/>
        <pt x="151" y="-120" on="1"/>
        <pt x="144" y="-115" on="0"/>
        <pt x="126" y="-72" on="0"/>
        <pt x="125" y="-63" on="1"/>
        <pt x="160" y="155" on="1"/>
        <pt x="157" y="160" on="0"/>
        <pt x="55" y="253" on="0"/>
        <pt x="36" y="269" on="1"/>
        <pt x="31" y="280" on="0"/>
        <pt x="31" y="304" on="1"/>
        <pt x="36" y="332" on="1"/>
        <pt x="55" y="348" on="0"/>
        <pt x="157" y="441" on="0"/>
        <pt x="160" y="446" on="1"/>
        <pt x="125" y="664" on="1"/>
        <pt x="126" y="673" on="0"/>
        <pt x="144" y="716" on="0"/>
        <pt x="151" y="721" on="1"/>
        <pt x="305" y="771" on="0"/>
        <pt x="329" y="773" on="1"/>
        <pt x="342" y="748" on="0"/>
        <pt x="350" y="725" on="1"/>
        <pt x="337" y="714" on="0"/>
      </contour>
    </TTGlyph>
    <TTGlyph name="braceright" xMin="29" yMin="-172" xMax="348" yMax="773">
      <contour>
        <pt x="156" y="-55" on="1"/>
        <pt x="152" y="166" on="1"/>
        <pt x="152" y="227" on="0"/>
        <pt x="293" y="285" on="1"/>
        <pt x="293" y="316" on="1"/>
        <pt x="152" y="374" on="0"/>
        <pt x="152" y="435" on="1"/>
        <pt x="156" y="656" on="1"/>
        <pt x="42" y="714" on="0"/>
        <pt x="29" y="725" on="1"/>
        <pt x="37" y="748" on="0"/>
        <pt x="50" y="773" on="1"/>
        <pt x="74" y="771" on="0"/>
        <pt x="228" y="721" on="1"/>
        <pt x="235" y="716" on="0"/>
        <pt x="253" y="673" on="0"/>
        <pt x="254" y="664" on="1"/>
        <pt x="219" y="446" on="1"/>
        <pt x="222" y="441" on="0"/>
        <pt x="324" y="348" on="0"/>
        <pt x="343" y="332" on="1"/>
        <pt x="348" y="318" on="0"/>
        <pt x="348" y="306" on="1"/>
        <pt x="348" y="281" on="0"/>
        <pt x="343" y="269" on="1"/>
        <pt x="324" y="253" on="0"/>
        <pt x="222" y="160" on="0"/>
        <pt x="219" y="155" on="1"/>
        <pt x="254" y="-63" on="1"/>
        <pt x="253" y="-72" on="0"/>
        <pt x="235" y="-115" on="0"/>
        <pt x="228" y="-120" on="1"/>
        <pt x="74" y="-170" on="0"/>
        <pt x="50" y="-172" on="1"/>
        <pt x="37" y="-147" on="0"/>
        <pt x="29" y="-124" on="1"/>
        <pt x="42" y="-113" on="0"/>
      </contour>
    </TTGlyph>
    <TTGlyph name="bracketleft" xMin="85" yMin="-206" xMax="333" yMax="773">
      <contour>
        <pt x="333" y="-136" on="1"/>
        <pt x="333" y="-167" on="0"/>
        <pt x="329" y="-188" on="1"/>
        <pt x="313" y="-193" on="0"/>
        <pt x="152" y="-206" on="0"/>
        <pt x="119" y="-206" on="1"/>
        <pt x="115" y="-202" on="0"/>
        <pt x="100" y="-158" on="0"/>
        <pt x="99" y="-142" on="1"/>
        <pt x="89" y="430" on="0"/>
        <pt x="85" y="709" on="1"/>
        <pt x="86" y="725" on="0"/>
        <pt x="102" y="770" on="0"/>
        <pt x="105" y="773" on="1"/>
        <pt x="139" y="773" on="0"/>
        <pt x="313" y="760" on="0"/>
        <pt x="329" y="755" on="1"/>
        <pt x="332" y="731" on="0"/>
        <pt x="332" y="703" on="1"/>
        <pt x="319" y="699" on="0"/>
        <pt x="182" y="683" on="1"/>
        <pt x="176" y="143" on="0"/>
        <pt x="176" y="-127" on="1"/>
      </contour>
    </TTGlyph>
    <TTGlyph name="bracketright" xMin="40" yMin="-206" xMax="288" yMax="773">
      <contour>
        <pt x="197" y="-127" on="1"/>
        <pt x="197" y="143" on="0"/>
        <pt x="191" y="683" on="1"/>
        <pt x="54" y="699" on="0"/>
        <pt x="41" y="703" on="1"/>
        <pt x="41" y="731" on="0"/>
        <pt x="44" y="755" on="1"/>
        <pt x="60" y="760" on="0"/>
        <pt x="234" y="773" on="0"/>
        <pt x="268" y="773" on="1"/>
        <pt x="271" y="770" on="0"/>
        <pt x="287" y="725" on="0"/>
        <pt x="288" y="709" on="1"/>
        <pt x="284" y="430" on="0"/>
        <pt x="274" y="-142" on="1"/>
        <pt x="273" y="-158" on="0"/>
        <pt x="258" y="-202" on="0"/>
        <pt x="254" y="-206" on="1"/>
        <pt x="221" y="-206" on="0"/>
        <pt x="60" y="-193" on="0"/>
        <pt x="44" y="-188" on="1"/>
        <pt x="40" y="-167" on="0"/>
        <pt x="40" y="-136" on="1"/>
        <pt x="152" y="-127" on="0"/>
      </contour>
    </TTGlyph>
    <TTGlyph name="breve" xMin="65" yMin="595" xMax="335" yMax="739">
      <contour>
        <pt x="335" y="737" on="1"/>
        <pt x="335" y="681" on="0"/>
        <pt x="261" y="595" on="0"/>
        <pt x="136" y="595" on="0"/>
        <pt x="65" y="681" on="0"/>
        <pt x="65" y="737" on="1"/>
        <pt x="117" y="739" on="1"/>
        <pt x="117" y="707" on="0"/>
        <pt x="157" y="658" on="0"/>
        <pt x="199" y="658" on="1"/>
        <pt x="272" y="658" on="0"/>
        <pt x="272" y="737" on="1"/>
      </contour>
    </TTGlyph>
    <TTGlyph name="brokenbar" xMin="100" yMin="-219" xMax="198" yMax="752">
      <contour>
        <pt x="105" y="381" on="1"/>
        <pt x="100" y="749" on="1"/>
        <pt x="112" y="752" on="0"/>
        <pt x="188" y="752" on="0"/>
        <pt x="198" y="750" on="1"/>
        <pt x="196" y="506" on="0"/>
        <pt x="194" y="382" on="1"/>
      </contour>
      <contour>
        <pt x="112" y="-216" on="1"/>
        <pt x="108" y="128" on="1"/>
        <pt x="191" y="128" on="1"/>
        <pt x="189" y="12" on="0"/>
        <pt x="187" y="-216" on="1"/>
        <pt x="179" y="-219" on="0"/>
        <pt x="122" y="-219" on="0"/>
      </contour>
    </TTGlyph>
    <TTGlyph name="bullet" xMin="91" yMin="173" xMax="307" yMax="388">
      <contour>
        <pt x="303" y="185" on="1"/>
        <pt x="262" y="173" on="0"/>
        <pt x="156" y="173" on="0"/>
        <pt x="105" y="179" on="1"/>
        <pt x="91" y="231" on="0"/>
        <pt x="91" y="344" on="0"/>
        <pt x="96" y="379" on="1"/>
        <pt x="150" y="388" on="0"/>
        <pt x="257" y="388" on="0"/>
        <pt x="296" y="383" on="1"/>
        <pt x="307" y="326" on="0"/>
        <pt x="307" y="220" on="0"/>
      </contour>
    </TTGlyph>
    <TTGlyph name="c" xMin="36" yMin="-12" xMax="444" yMax="520">
      <contour>
        <pt x="274" y="-12" on="1"/>
        <pt x="154" y="-12" on="0"/>
        <pt x="36" y="123" on="0"/>
        <pt x="36" y="248" on="1"/>
        <pt x="36" y="520" on="0"/>
        <pt x="278" y="520" on="1"/>
        <pt x="317" y="520" on="0"/>
        <pt x="401" y="497" on="0"/>
        <pt x="425" y="483" on="1"/>
        <pt x="422" y="390" on="0"/>
        <pt x="406" y="351" on="1"/>
        <pt x="388" y="346" on="0"/>
        <pt x="377" y="346" on="1"/>
        <pt x="360" y="346" on="1"/>
        <pt x="355" y="346" on="0"/>
        <pt x="348" y="347" on="1"/>
        <pt x="323" y="457" on="1"/>
        <pt x="290" y="460" on="0"/>
        <pt x="285" y="460" on="1"/>
        <pt x="213" y="460" on="0"/>
        <pt x="128" y="372" on="0"/>
        <pt x="128" y="164" on="0"/>
        <pt x="193" y="56" on="0"/>
        <pt x="286" y="56" on="1"/>
        <pt x="330" y="56" on="0"/>
        <pt x="424" y="98" on="1"/>
        <pt x="443" y="72" on="0"/>
        <pt x="444" y="52" on="1"/>
        <pt x="393" y="22" on="0"/>
        <pt x="295" y="-12" on="0"/>
      </contour>
    </TTGlyph>
    <TTGlyph name="caron" xMin="96" yMin="586" xMax="378" yMax="736">
      <contour>
        <pt x="378" y="700" on="1"/>
        <pt x="237" y="586" on="1"/>
        <pt x="96" y="700" on="1"/>
        <pt x="106" y="714" on="0"/>
        <pt x="129" y="736" on="1"/>
        <pt x="130" y="735" on="0"/>
        <pt x="159" y="722" on="0"/>
        <pt x="172" y="715" on="1"/>
        <pt x="211" y="694" on="0"/>
        <pt x="237" y="670" on="1"/>
        <pt x="272" y="703" on="0"/>
        <pt x="330" y="728" on="1"/>
        <pt x="344" y="735" on="0"/>
        <pt x="345" y="736" on="1"/>
        <pt x="369" y="714" on="0"/>
      </contour>
    </TTGlyph>
    <TTGlyph name="ccedilla" xMin="36" yMin="-218" xMax="444" yMax="520">
      <contour>
        <pt x="286" y="-123" on="1"/>
        <pt x="286" y="-104" on="0"/>
        <pt x="224" y="-82" on="1"/>
        <pt x="224" y="-56" on="0"/>
        <pt x="259" y="22" on="1"/>
        <pt x="265" y="25" on="0"/>
        <pt x="286" y="25" on="0"/>
        <pt x="294" y="22" on="1"/>
        <pt x="278" y="-32" on="0"/>
        <pt x="270" y="-52" on="1"/>
        <pt x="350" y="-86" on="0"/>
        <pt x="350" y="-143" on="0"/>
        <pt x="295" y="-206" on="0"/>
        <pt x="260" y="-218" on="1"/>
        <pt x="249" y="-205" on="1"/>
        <pt x="253" y="-194" on="0"/>
        <pt x="262" y="-176" on="1"/>
        <pt x="286" y="-130" on="0"/>
      </contour>
      <contour>
        <pt x="274" y="-12" on="1"/>
        <pt x="295" y="-12" on="0"/>
        <pt x="393" y="22" on="0"/>
        <pt x="444" y="52" on="1"/>
        <pt x="443" y="72" on="0"/>
        <pt x="424" y="98" on="1"/>
        <pt x="330" y="56" on="0"/>
        <pt x="286" y="56" on="1"/>
        <pt x="193" y="56" on="0"/>
        <pt x="128" y="164" on="0"/>
        <pt x="128" y="372" on="0"/>
        <pt x="213" y="460" on="0"/>
        <pt x="285" y="460" on="1"/>
        <pt x="290" y="460" on="0"/>
        <pt x="323" y="457" on="1"/>
        <pt x="348" y="347" on="1"/>
        <pt x="355" y="346" on="0"/>
        <pt x="360" y="346" on="1"/>
        <pt x="377" y="346" on="1"/>
        <pt x="388" y="346" on="0"/>
        <pt x="406" y="351" on="1"/>
        <pt x="422" y="390" on="0"/>
        <pt x="425" y="483" on="1"/>
        <pt x="401" y="497" on="0"/>
        <pt x="317" y="520" on="0"/>
        <pt x="278" y="520" on="1"/>
        <pt x="36" y="520" on="0"/>
        <pt x="36" y="248" on="1"/>
        <pt x="36" y="123" on="0"/>
        <pt x="154" y="-12" on="0"/>
      </contour>
    </TTGlyph>
    <TTGlyph name="cedilla" xMin="170" yMin="-218" xMax="296" yMax="25">
      <contour>
        <pt x="232" y="-123" on="1"/>
        <pt x="232" y="-104" on="0"/>
        <pt x="170" y="-82" on="1"/>
        <pt x="170" y="-56" on="0"/>
        <pt x="205" y="22" on="1"/>
        <pt x="211" y="25" on="0"/>
        <pt x="232" y="25" on="0"/>
        <pt x="240" y="22" on="1"/>
        <pt x="224" y="-32" on="0"/>
        <pt x="216" y="-52" on="1"/>
        <pt x="296" y="-86" on="0"/>
        <pt x="296" y="-143" on="0"/>
        <pt x="241" y="-206" on="0"/>
        <pt x="206" y="-218" on="1"/>
        <pt x="195" y="-205" on="1"/>
        <pt x="199" y="-194" on="0"/>
        <pt x="208" y="-176" on="1"/>
        <pt x="232" y="-130" on="0"/>
      </contour>
    </TTGlyph>
    <TTGlyph name="cent" xMin="50" yMin="-129" xMax="479" yMax="680">
      <contour>
        <pt x="316" y="-11" on="1"/>
        <pt x="315" y="-127" on="1"/>
        <pt x="309" y="-129" on="0"/>
        <pt x="278" y="-129" on="0"/>
        <pt x="268" y="-127" on="1"/>
        <pt x="268" y="-55" on="0"/>
        <pt x="266" y="-11" on="1"/>
        <pt x="50" y="6" on="0"/>
        <pt x="50" y="528" on="0"/>
        <pt x="260" y="551" on="1"/>
        <pt x="260" y="677" on="1"/>
        <pt x="269" y="680" on="0"/>
        <pt x="318" y="680" on="0"/>
        <pt x="324" y="678" on="1"/>
        <pt x="322" y="594" on="0"/>
        <pt x="322" y="552" on="1"/>
        <pt x="403" y="546" on="0"/>
        <pt x="459" y="514" on="1"/>
        <pt x="456" y="418" on="0"/>
        <pt x="439" y="373" on="1"/>
        <pt x="416" y="368" on="0"/>
        <pt x="377" y="368" on="1"/>
        <pt x="351" y="489" on="1"/>
        <pt x="315" y="492" on="0"/>
        <pt x="310" y="492" on="1"/>
        <pt x="234" y="492" on="0"/>
        <pt x="144" y="396" on="0"/>
        <pt x="144" y="293" on="1"/>
        <pt x="144" y="180" on="0"/>
        <pt x="174" y="120" on="1"/>
        <pt x="210" y="50" on="0"/>
        <pt x="312" y="50" on="1"/>
        <pt x="357" y="50" on="0"/>
        <pt x="458" y="95" on="1"/>
        <pt x="477" y="69" on="0"/>
        <pt x="479" y="46" on="1"/>
        <pt x="403" y="-1" on="0"/>
      </contour>
    </TTGlyph>
    <TTGlyph name="circumflex" xMin="96" yMin="586" xMax="378" yMax="736">
      <contour>
        <pt x="237" y="736" on="1"/>
        <pt x="378" y="622" on="1"/>
        <pt x="368" y="608" on="0"/>
        <pt x="345" y="586" on="1"/>
        <pt x="344" y="587" on="0"/>
        <pt x="315" y="600" on="0"/>
        <pt x="302" y="607" on="1"/>
        <pt x="263" y="628" on="0"/>
        <pt x="237" y="652" on="1"/>
        <pt x="202" y="619" on="0"/>
        <pt x="144" y="594" on="1"/>
        <pt x="130" y="587" on="0"/>
        <pt x="129" y="586" on="1"/>
        <pt x="105" y="608" on="0"/>
        <pt x="96" y="622" on="1"/>
      </contour>
    </TTGlyph>
    <TTGlyph name="colon" xMin="66" yMin="-4" xMax="173" yMax="443">
      <contour>
        <pt x="171" y="342" on="1"/>
        <pt x="145" y="336" on="0"/>
        <pt x="96" y="336" on="0"/>
        <pt x="72" y="339" on="1"/>
        <pt x="66" y="367" on="0"/>
        <pt x="66" y="424" on="0"/>
        <pt x="68" y="438" on="1"/>
        <pt x="90" y="443" on="0"/>
        <pt x="139" y="443" on="0"/>
        <pt x="167" y="441" on="1"/>
        <pt x="173" y="415" on="0"/>
        <pt x="173" y="366" on="0"/>
      </contour>
      <contour>
        <pt x="171" y="2" on="1"/>
        <pt x="145" y="-4" on="0"/>
        <pt x="96" y="-4" on="0"/>
        <pt x="72" y="-1" on="1"/>
        <pt x="66" y="27" on="0"/>
        <pt x="66" y="84" on="0"/>
        <pt x="68" y="98" on="1"/>
        <pt x="90" y="103" on="0"/>
        <pt x="139" y="103" on="0"/>
        <pt x="167" y="101" on="1"/>
        <pt x="173" y="75" on="0"/>
        <pt x="173" y="15" on="0"/>
      </contour>
    </TTGlyph>
    <TTGlyph name="comma" xMin="25" yMin="-134" xMax="155" yMax="104">
      <contour>
        <pt x="149" y="102" on="1"/>
        <pt x="155" y="74" on="0"/>
        <pt x="155" y="-14" on="0"/>
        <pt x="86" y="-116" on="0"/>
        <pt x="57" y="-134" on="1"/>
        <pt x="40" y="-127" on="0"/>
        <pt x="25" y="-111" on="1"/>
        <pt x="36" y="-78" on="0"/>
        <pt x="88" y="-18" on="1"/>
        <pt x="100" y="-4" on="0"/>
        <pt x="102" y="-2" on="1"/>
        <pt x="67" y="-2" on="0"/>
        <pt x="54" y="0" on="1"/>
        <pt x="48" y="20" on="0"/>
        <pt x="48" y="85" on="0"/>
        <pt x="50" y="99" on="1"/>
        <pt x="72" y="104" on="0"/>
        <pt x="121" y="104" on="0"/>
      </contour>
    </TTGlyph>
    <TTGlyph name="copyright" xMin="19" yMin="-14" xMax="805" yMax="749">
      <contour>
        <pt x="19" y="269" on="0"/>
        <pt x="19" y="467" on="0"/>
        <pt x="82" y="617" on="0"/>
        <pt x="137" y="661" on="1"/>
        <pt x="247" y="749" on="0"/>
        <pt x="412" y="749" on="1"/>
        <pt x="577" y="749" on="0"/>
        <pt x="688" y="656" on="1"/>
        <pt x="742" y="611" on="0"/>
        <pt x="805" y="463" on="0"/>
        <pt x="805" y="269" on="0"/>
        <pt x="742" y="118" on="0"/>
        <pt x="632" y="30" on="0"/>
        <pt x="494" y="-14" on="0"/>
        <pt x="330" y="-14" on="0"/>
        <pt x="192" y="30" on="0"/>
        <pt x="82" y="118" on="0"/>
      </contour>
      <contour>
        <pt x="110" y="364" on="1"/>
        <pt x="110" y="224" on="0"/>
        <pt x="265" y="42" on="0"/>
        <pt x="554" y="42" on="0"/>
        <pt x="715" y="226" on="0"/>
        <pt x="715" y="521" on="0"/>
        <pt x="564" y="688" on="0"/>
        <pt x="412" y="688" on="1"/>
        <pt x="331" y="688" on="0"/>
        <pt x="271" y="664" on="1"/>
        <pt x="110" y="601" on="0"/>
      </contour>
      <contour>
        <pt x="418" y="144" on="1"/>
        <pt x="329" y="144" on="0"/>
        <pt x="221" y="254" on="0"/>
        <pt x="221" y="480" on="0"/>
        <pt x="322" y="595" on="0"/>
        <pt x="421" y="595" on="1"/>
        <pt x="458" y="595" on="0"/>
        <pt x="528" y="573" on="0"/>
        <pt x="544" y="562" on="1"/>
        <pt x="560" y="551" on="1"/>
        <pt x="560" y="515" on="0"/>
        <pt x="552" y="463" on="1"/>
        <pt x="538" y="461" on="0"/>
        <pt x="516" y="461" on="1"/>
        <pt x="497" y="538" on="1"/>
        <pt x="464" y="545" on="0"/>
        <pt x="432" y="545" on="1"/>
        <pt x="376" y="545" on="0"/>
        <pt x="328" y="527" on="1"/>
        <pt x="295" y="472" on="0"/>
        <pt x="295" y="380" on="1"/>
        <pt x="295" y="194" on="0"/>
        <pt x="416" y="194" on="1"/>
        <pt x="469" y="194" on="0"/>
        <pt x="503" y="212" on="1"/>
        <pt x="516" y="287" on="1"/>
        <pt x="552" y="285" on="1"/>
        <pt x="561" y="217" on="0"/>
        <pt x="561" y="177" on="1"/>
        <pt x="548" y="167" on="0"/>
        <pt x="462" y="144" on="0"/>
      </contour>
    </TTGlyph>
    <TTGlyph name="cuatro" xMin="26" yMin="-4" xMax="524" yMax="670">
      <contour>
        <pt x="110" y="227" on="1"/>
        <pt x="253" y="227" on="0"/>
        <pt x="339" y="229" on="1"/>
        <pt x="329" y="591" on="1"/>
      </contour>
      <contour>
        <pt x="414" y="229" on="1"/>
        <pt x="456" y="227" on="0"/>
        <pt x="523" y="227" on="1"/>
        <pt x="524" y="224" on="0"/>
        <pt x="524" y="185" on="0"/>
        <pt x="513" y="166" on="1"/>
        <pt x="413" y="166" on="1"/>
        <pt x="406" y="-1" on="1"/>
        <pt x="388" y="-4" on="0"/>
        <pt x="360" y="-4" on="0"/>
        <pt x="348" y="0" on="1"/>
        <pt x="340" y="166" on="1"/>
        <pt x="37" y="166" on="1"/>
        <pt x="26" y="189" on="0"/>
        <pt x="26" y="221" on="1"/>
        <pt x="292" y="670" on="1"/>
        <pt x="423" y="670" on="1"/>
      </contour>
    </TTGlyph>
    <TTGlyph name="currency" xMin="26" yMin="88" xMax="576" yMax="604">
      <contour>
        <pt x="172" y="516" on="1"/>
        <pt x="223" y="556" on="0"/>
        <pt x="382" y="556" on="0"/>
        <pt x="431" y="519" on="1"/>
        <pt x="509" y="597" on="0"/>
        <pt x="520" y="604" on="1"/>
        <pt x="559" y="582" on="0"/>
        <pt x="575" y="555" on="1"/>
        <pt x="565" y="532" on="1"/>
        <pt x="534" y="517" on="0"/>
        <pt x="471" y="473" on="1"/>
        <pt x="498" y="428" on="0"/>
        <pt x="498" y="280" on="0"/>
        <pt x="460" y="227" on="1"/>
        <pt x="547" y="169" on="0"/>
        <pt x="566" y="160" on="1"/>
        <pt x="576" y="144" on="0"/>
        <pt x="576" y="137" on="1"/>
        <pt x="564" y="116" on="0"/>
        <pt x="521" y="88" on="1"/>
        <pt x="504" y="99" on="0"/>
        <pt x="419" y="186" on="1"/>
        <pt x="371" y="152" on="0"/>
        <pt x="236" y="152" on="0"/>
        <pt x="188" y="180" on="1"/>
        <pt x="103" y="95" on="0"/>
        <pt x="92" y="88" on="1"/>
        <pt x="53" y="110" on="0"/>
        <pt x="37" y="137" on="1"/>
        <pt x="47" y="160" on="1"/>
        <pt x="82" y="176" on="0"/>
        <pt x="141" y="219" on="1"/>
        <pt x="101" y="270" on="0"/>
        <pt x="101" y="421" on="0"/>
        <pt x="132" y="471" on="1"/>
        <pt x="63" y="518" on="0"/>
        <pt x="36" y="532" on="1"/>
        <pt x="26" y="548" on="0"/>
        <pt x="26" y="555" on="1"/>
        <pt x="40" y="580" on="0"/>
        <pt x="81" y="604" on="1"/>
        <pt x="96" y="594" on="0"/>
      </contour>
      <contour>
        <pt x="302" y="212" on="1"/>
        <pt x="407" y="212" on="0"/>
        <pt x="407" y="351" on="1"/>
        <pt x="407" y="424" on="0"/>
        <pt x="364" y="496" on="0"/>
        <pt x="256" y="496" on="0"/>
        <pt x="223" y="480" on="1"/>
        <pt x="192" y="419" on="0"/>
        <pt x="192" y="288" on="0"/>
        <pt x="248" y="212" on="0"/>
      </contour>
    </TTGlyph>
    <TTGlyph name="d" xMin="36" yMin="-12" xMax="550" yMax="742">
      <contour>
        <pt x="380" y="463" on="1"/>
        <pt x="377" y="663" on="1"/>
        <pt x="322" y="666" on="0"/>
        <pt x="289" y="675" on="1"/>
        <pt x="293" y="727" on="1"/>
        <pt x="344" y="742" on="0"/>
        <pt x="441" y="742" on="1"/>
        <pt x="472" y="742" on="0"/>
        <pt x="485" y="740" on="1"/>
        <pt x="485" y="722" on="0"/>
        <pt x="474" y="663" on="0"/>
        <pt x="472" y="660" on="1"/>
        <pt x="463" y="69" on="1"/>
        <pt x="504" y="67" on="0"/>
        <pt x="550" y="55" on="1"/>
        <pt x="548" y="20" on="1"/>
        <pt x="479" y="-12" on="0"/>
        <pt x="426" y="-12" on="1"/>
        <pt x="415" y="-12" on="0"/>
        <pt x="409" y="-11" on="1"/>
        <pt x="401" y="4" on="0"/>
        <pt x="389" y="58" on="1"/>
        <pt x="274" y="-7" on="0"/>
        <pt x="228" y="-12" on="1"/>
        <pt x="132" y="-12" on="0"/>
        <pt x="36" y="134" on="0"/>
        <pt x="36" y="363" on="0"/>
        <pt x="133" y="520" on="0"/>
        <pt x="228" y="520" on="1"/>
        <pt x="302" y="520" on="0"/>
      </contour>
      <contour>
        <pt x="245" y="452" on="1"/>
        <pt x="128" y="452" on="0"/>
        <pt x="128" y="260" on="1"/>
        <pt x="128" y="185" on="0"/>
        <pt x="152" y="130" on="1"/>
        <pt x="164" y="100" on="0"/>
        <pt x="211" y="64" on="0"/>
        <pt x="273" y="64" on="0"/>
        <pt x="356" y="92" on="0"/>
        <pt x="386" y="110" on="1"/>
        <pt x="380" y="395" on="1"/>
        <pt x="353" y="418" on="0"/>
        <pt x="275" y="452" on="0"/>
      </contour>
    </TTGlyph>
    <TTGlyph name="dagger" xMin="40" yMin="-229" xMax="473" yMax="716">
      <contour>
        <pt x="273" y="464" on="1"/>
        <pt x="324" y="336" on="0"/>
        <pt x="324" y="320" on="1"/>
        <pt x="268" y="-229" on="1"/>
        <pt x="252" y="-229" on="0"/>
        <pt x="243" y="-225" on="1"/>
        <pt x="191" y="321" on="1"/>
        <pt x="192" y="354" on="0"/>
        <pt x="235" y="463" on="1"/>
        <pt x="91" y="435" on="0"/>
        <pt x="66" y="435" on="1"/>
        <pt x="40" y="481" on="0"/>
        <pt x="40" y="517" on="1"/>
        <pt x="42" y="525" on="0"/>
        <pt x="65" y="533" on="1"/>
        <pt x="122" y="527" on="0"/>
        <pt x="239" y="504" on="1"/>
        <pt x="208" y="659" on="0"/>
        <pt x="208" y="690" on="1"/>
        <pt x="254" y="716" on="0"/>
        <pt x="290" y="716" on="1"/>
        <pt x="298" y="714" on="0"/>
        <pt x="306" y="691" on="1"/>
        <pt x="300" y="631" on="0"/>
        <pt x="275" y="505" on="1"/>
        <pt x="381" y="525" on="0"/>
        <pt x="448" y="533" on="1"/>
        <pt x="470" y="525" on="0"/>
        <pt x="473" y="517" on="1"/>
        <pt x="473" y="485" on="0"/>
        <pt x="447" y="435" on="1"/>
        <pt x="414" y="435" on="0"/>
      </contour>
    </TTGlyph>
    <TTGlyph name="daggerdbl" xMin="40" yMin="-40" xMax="473" yMax="713">
      <contour>
        <pt x="290" y="713" on="1"/>
        <pt x="298" y="711" on="0"/>
        <pt x="306" y="688" on="1"/>
        <pt x="300" y="628" on="0"/>
        <pt x="275" y="502" on="1"/>
        <pt x="381" y="522" on="0"/>
        <pt x="448" y="530" on="1"/>
        <pt x="470" y="522" on="0"/>
        <pt x="473" y="514" on="1"/>
        <pt x="473" y="482" on="0"/>
        <pt x="447" y="432" on="1"/>
        <pt x="422" y="432" on="0"/>
        <pt x="270" y="461" on="1"/>
        <pt x="301" y="354" on="1"/>
        <pt x="275" y="206" on="1"/>
        <pt x="381" y="226" on="0"/>
        <pt x="448" y="234" on="1"/>
        <pt x="470" y="226" on="0"/>
        <pt x="473" y="218" on="1"/>
        <pt x="473" y="186" on="0"/>
        <pt x="447" y="136" on="1"/>
        <pt x="420" y="136" on="0"/>
        <pt x="276" y="164" on="1"/>
        <pt x="306" y="5" on="0"/>
        <pt x="306" y="-14" on="1"/>
        <pt x="260" y="-40" on="0"/>
        <pt x="224" y="-40" on="1"/>
        <pt x="216" y="-38" on="0"/>
        <pt x="208" y="-15" on="1"/>
        <pt x="213" y="37" on="0"/>
        <pt x="237" y="164" on="1"/>
        <pt x="93" y="136" on="0"/>
        <pt x="66" y="136" on="1"/>
        <pt x="40" y="182" on="0"/>
        <pt x="40" y="218" on="1"/>
        <pt x="42" y="226" on="0"/>
        <pt x="65" y="234" on="1"/>
        <pt x="124" y="227" on="0"/>
        <pt x="240" y="205" on="1"/>
        <pt x="212" y="352" on="1"/>
        <pt x="243" y="462" on="1"/>
        <pt x="97" y="432" on="0"/>
        <pt x="66" y="432" on="1"/>
        <pt x="40" y="478" on="0"/>
        <pt x="40" y="514" on="1"/>
        <pt x="42" y="522" on="0"/>
        <pt x="65" y="530" on="1"/>
        <pt x="122" y="524" on="0"/>
        <pt x="239" y="501" on="1"/>
        <pt x="208" y="656" on="0"/>
        <pt x="208" y="687" on="1"/>
        <pt x="254" y="713" on="0"/>
      </contour>
    </TTGlyph>
    <TTGlyph name="degree" xMin="95" yMin="512" xMax="321" yMax="749">
      <contour>
        <pt x="95" y="693" on="0"/>
        <pt x="157" y="749" on="0"/>
        <pt x="261" y="749" on="0"/>
        <pt x="321" y="691" on="0"/>
        <pt x="321" y="577" on="0"/>
        <pt x="261" y="512" on="0"/>
        <pt x="210" y="512" on="1"/>
        <pt x="95" y="512" on="0"/>
        <pt x="95" y="639" on="1"/>
      </contour>
      <contour>
        <pt x="209" y="550" on="1"/>
        <pt x="267" y="550" on="0"/>
        <pt x="267" y="634" on="1"/>
        <pt x="267" y="670" on="0"/>
        <pt x="234" y="706" on="0"/>
        <pt x="182" y="706" on="0"/>
        <pt x="146" y="672" on="0"/>
        <pt x="146" y="634" on="1"/>
        <pt x="146" y="550" on="0"/>
      </contour>
    </TTGlyph>
    <TTGlyph name="dieresis" xMin="208" yMin="602" xMax="458" yMax="686">
      <contour>
        <pt x="292" y="606" on="1"/>
        <pt x="272" y="602" on="0"/>
        <pt x="227" y="602" on="0"/>
        <pt x="213" y="604" on="1"/>
        <pt x="208" y="622" on="0"/>
        <pt x="208" y="659" on="0"/>
        <pt x="210" y="683" on="1"/>
        <pt x="225" y="686" on="0"/>
        <pt x="277" y="686" on="0"/>
        <pt x="289" y="685" on="1"/>
        <pt x="293" y="663" on="0"/>
        <pt x="293" y="616" on="0"/>
      </contour>
      <contour>
        <pt x="457" y="606" on="1"/>
        <pt x="437" y="602" on="0"/>
        <pt x="392" y="602" on="0"/>
        <pt x="378" y="604" on="1"/>
        <pt x="373" y="622" on="0"/>
        <pt x="373" y="659" on="0"/>
        <pt x="375" y="683" on="1"/>
        <pt x="390" y="686" on="0"/>
        <pt x="442" y="686" on="0"/>
        <pt x="454" y="685" on="1"/>
        <pt x="458" y="663" on="0"/>
        <pt x="458" y="616" on="0"/>
      </contour>
    </TTGlyph>
    <TTGlyph name="dinbat1" xMin="20" yMin="-14" xMax="555" yMax="515">
      <contour>
        <pt x="276" y="448" on="1"/>
        <pt x="283" y="449" on="1"/>
        <pt x="291" y="450" on="0"/>
        <pt x="403" y="515" on="0"/>
        <pt x="460" y="515" on="0"/>
        <pt x="488" y="474" on="0"/>
        <pt x="488" y="421" on="0"/>
        <pt x="478" y="402" on="1"/>
        <pt x="465" y="374" on="0"/>
        <pt x="447" y="365" on="1"/>
        <pt x="437" y="381" on="0"/>
        <pt x="399" y="408" on="0"/>
        <pt x="378" y="408" on="1"/>
        <pt x="310" y="408" on="0"/>
        <pt x="310" y="328" on="1"/>
        <pt x="310" y="294" on="0"/>
        <pt x="382" y="238" on="0"/>
        <pt x="420" y="238" on="1"/>
        <pt x="434" y="238" on="0"/>
        <pt x="473" y="277" on="0"/>
        <pt x="499" y="277" on="1"/>
        <pt x="555" y="277" on="0"/>
        <pt x="555" y="183" on="1"/>
        <pt x="555" y="121" on="0"/>
        <pt x="503" y="18" on="0"/>
        <pt x="475" y="-10" on="1"/>
        <pt x="471" y="-14" on="0"/>
        <pt x="460" y="-14" on="1"/>
        <pt x="455" y="-12" on="0"/>
        <pt x="455" y="119" on="0"/>
        <pt x="460" y="135" on="1"/>
        <pt x="460" y="140" on="0"/>
        <pt x="448" y="150" on="0"/>
        <pt x="438" y="150" on="0"/>
        <pt x="420" y="128" on="0"/>
        <pt x="394" y="128" on="0"/>
        <pt x="360" y="169" on="0"/>
        <pt x="356" y="169" on="1"/>
        <pt x="349" y="169" on="0"/>
        <pt x="314" y="112" on="0"/>
        <pt x="310" y="101" on="1"/>
        <pt x="311" y="93" on="0"/>
        <pt x="361" y="45" on="0"/>
        <pt x="363" y="40" on="1"/>
        <pt x="362" y="35" on="0"/>
        <pt x="316" y="-13" on="0"/>
        <pt x="306" y="-13" on="0"/>
        <pt x="298" y="-6" on="0"/>
        <pt x="289" y="4" on="0"/>
        <pt x="287" y="6" on="1"/>
        <pt x="278" y="-6" on="0"/>
        <pt x="267" y="-13" on="1"/>
        <pt x="258" y="-12" on="0"/>
        <pt x="214" y="31" on="0"/>
        <pt x="212" y="40" on="1"/>
        <pt x="212" y="43" on="0"/>
        <pt x="265" y="93" on="0"/>
        <pt x="265" y="107" on="0"/>
        <pt x="226" y="167" on="0"/>
        <pt x="220" y="169" on="1"/>
        <pt x="214" y="168" on="0"/>
        <pt x="183" y="128" on="0"/>
        <pt x="155" y="128" on="0"/>
        <pt x="137" y="150" on="0"/>
        <pt x="128" y="150" on="0"/>
        <pt x="115" y="140" on="0"/>
        <pt x="115" y="136" on="1"/>
        <pt x="120" y="62" on="1"/>
        <pt x="120" y="-12" on="0"/>
        <pt x="115" y="-14" on="1"/>
        <pt x="104" y="-14" on="0"/>
        <pt x="100" y="-10" on="1"/>
        <pt x="72" y="18" on="0"/>
        <pt x="20" y="121" on="0"/>
        <pt x="20" y="234" on="0"/>
        <pt x="50" y="277" on="0"/>
        <pt x="102" y="277" on="0"/>
        <pt x="141" y="238" on="0"/>
        <pt x="155" y="238" on="1"/>
        <pt x="193" y="238" on="0"/>
        <pt x="265" y="293" on="0"/>
        <pt x="265" y="327" on="1"/>
        <pt x="265" y="354" on="0"/>
        <pt x="212" y="354" on="1"/>
        <pt x="179" y="354" on="0"/>
        <pt x="140" y="392" on="0"/>
        <pt x="140" y="450" on="0"/>
        <pt x="154" y="466" on="1"/>
        <pt x="174" y="488" on="0"/>
        <pt x="201" y="488" on="1"/>
        <pt x="234" y="488" on="0"/>
        <pt x="252" y="462" on="1"/>
        <pt x="263" y="448" on="0"/>
      </contour>
      <contour>
        <pt x="192" y="447" on="0"/>
        <pt x="179" y="431" on="0"/>
        <pt x="179" y="411" on="0"/>
        <pt x="192" y="398" on="0"/>
        <pt x="213" y="398" on="0"/>
        <pt x="228" y="411" on="0"/>
        <pt x="228" y="431" on="0"/>
        <pt x="213" y="447" on="0"/>
      </contour>
    </TTGlyph>
    <TTGlyph name="dingbat2" xMin="20" yMin="-15" xMax="1142" yMax="525">
      <contour>
        <pt x="106" y="381" on="1"/>
        <pt x="106" y="427" on="0"/>
        <pt x="169" y="506" on="0"/>
        <pt x="252" y="506" on="0"/>
        <pt x="317" y="463" on="0"/>
        <pt x="317" y="389" on="0"/>
        <pt x="295" y="346" on="0"/>
        <pt x="295" y="342" on="1"/>
        <pt x="314" y="310" on="0"/>
        <pt x="375" y="310" on="1"/>
        <pt x="410" y="310" on="0"/>
        <pt x="410" y="320" on="1"/>
        <pt x="410" y="321" on="0"/>
        <pt x="404" y="330" on="1"/>
        <pt x="388" y="357" on="0"/>
        <pt x="388" y="379" on="1"/>
        <pt x="388" y="450" on="0"/>
        <pt x="504" y="525" on="0"/>
        <pt x="656" y="525" on="0"/>
        <pt x="858" y="444" on="0"/>
        <pt x="858" y="420" on="1"/>
        <pt x="857" y="413" on="0"/>
        <pt x="834" y="413" on="0"/>
        <pt x="650" y="453" on="0"/>
        <pt x="578" y="453" on="0"/>
        <pt x="529" y="428" on="0"/>
        <pt x="529" y="400" on="1"/>
        <pt x="529" y="374" on="0"/>
        <pt x="572" y="364" on="1"/>
        <pt x="610" y="355" on="0"/>
        <pt x="670" y="348" on="0"/>
        <pt x="691" y="345" on="0"/>
        <pt x="730" y="338" on="1"/>
        <pt x="830" y="318" on="0"/>
        <pt x="838" y="318" on="0"/>
        <pt x="842" y="319" on="0"/>
        <pt x="846" y="323" on="0"/>
        <pt x="848" y="328" on="0"/>
        <pt x="857" y="346" on="1"/>
        <pt x="875" y="379" on="0"/>
        <pt x="974" y="412" on="0"/>
        <pt x="1068" y="412" on="0"/>
        <pt x="1142" y="396" on="0"/>
        <pt x="1142" y="385" on="1"/>
        <pt x="1142" y="371" on="0"/>
        <pt x="1099" y="358" on="0"/>
        <pt x="1038" y="350" on="0"/>
        <pt x="976" y="334" on="0"/>
        <pt x="933" y="285" on="0"/>
        <pt x="933" y="213" on="0"/>
        <pt x="971" y="161" on="0"/>
        <pt x="1026" y="129" on="0"/>
        <pt x="1081" y="104" on="0"/>
        <pt x="1119" y="83" on="0"/>
        <pt x="1119" y="73" on="1"/>
        <pt x="1119" y="52" on="0"/>
        <pt x="1094" y="52" on="1"/>
        <pt x="1018" y="52" on="0"/>
        <pt x="909" y="108" on="0"/>
        <pt x="845" y="183" on="1"/>
        <pt x="813" y="183" on="0"/>
        <pt x="692" y="157" on="0"/>
        <pt x="684" y="156" on="1"/>
        <pt x="595" y="139" on="0"/>
        <pt x="582" y="126" on="1"/>
        <pt x="578" y="122" on="0"/>
        <pt x="578" y="117" on="1"/>
        <pt x="578" y="91" on="0"/>
        <pt x="696" y="47" on="0"/>
        <pt x="765" y="47" on="0"/>
        <pt x="878" y="60" on="0"/>
        <pt x="883" y="60" on="1"/>
        <pt x="896" y="60" on="0"/>
        <pt x="896" y="47" on="1"/>
        <pt x="896" y="19" on="0"/>
        <pt x="765" y="-15" on="0"/>
        <pt x="601" y="-15" on="0"/>
        <pt x="495" y="17" on="0"/>
        <pt x="435" y="62" on="0"/>
        <pt x="402" y="105" on="0"/>
        <pt x="402" y="136" on="0"/>
        <pt x="412" y="180" on="0"/>
        <pt x="412" y="184" on="1"/>
        <pt x="412" y="194" on="0"/>
        <pt x="380" y="203" on="0"/>
        <pt x="314" y="210" on="0"/>
        <pt x="265" y="223" on="0"/>
        <pt x="188" y="271" on="0"/>
        <pt x="180" y="271" on="1"/>
        <pt x="157" y="271" on="0"/>
        <pt x="112" y="140" on="0"/>
        <pt x="112" y="80" on="1"/>
        <pt x="112" y="54" on="0"/>
        <pt x="123" y="23" on="0"/>
        <pt x="123" y="21" on="1"/>
        <pt x="123" y="6" on="0"/>
        <pt x="101" y="6" on="1"/>
        <pt x="63" y="6" on="0"/>
        <pt x="20" y="85" on="0"/>
        <pt x="20" y="207" on="0"/>
        <pt x="48" y="286" on="0"/>
        <pt x="80" y="321" on="0"/>
        <pt x="108" y="347" on="0"/>
        <pt x="108" y="352" on="1"/>
        <pt x="106" y="368" on="0"/>
      </contour>
      <contour>
        <pt x="191" y="445" on="0"/>
        <pt x="171" y="424" on="0"/>
        <pt x="171" y="393" on="0"/>
        <pt x="191" y="373" on="0"/>
        <pt x="222" y="373" on="0"/>
        <pt x="243" y="393" on="0"/>
        <pt x="243" y="424" on="0"/>
        <pt x="222" y="445" on="0"/>
      </contour>
    </TTGlyph>
    <TTGlyph name="divide" xMin="45" yMin="3" xMax="520" yMax="505">
      <contour>
        <pt x="335" y="440" on="1"/>
        <pt x="333" y="404" on="1"/>
        <pt x="307" y="398" on="0"/>
        <pt x="258" y="398" on="0"/>
        <pt x="234" y="401" on="1"/>
        <pt x="228" y="429" on="0"/>
        <pt x="228" y="486" on="0"/>
        <pt x="230" y="500" on="1"/>
        <pt x="252" y="505" on="0"/>
        <pt x="301" y="505" on="0"/>
        <pt x="329" y="503" on="1"/>
        <pt x="335" y="477" on="0"/>
      </contour>
      <contour>
        <pt x="335" y="45" on="1"/>
        <pt x="333" y="9" on="1"/>
        <pt x="307" y="3" on="0"/>
        <pt x="258" y="3" on="0"/>
        <pt x="234" y="6" on="1"/>
        <pt x="228" y="34" on="0"/>
        <pt x="228" y="91" on="0"/>
        <pt x="230" y="105" on="1"/>
        <pt x="252" y="110" on="0"/>
        <pt x="301" y="110" on="0"/>
        <pt x="329" y="108" on="1"/>
        <pt x="335" y="82" on="0"/>
      </contour>
      <contour>
        <pt x="518" y="290" on="1"/>
        <pt x="520" y="280" on="0"/>
        <pt x="520" y="261" on="1"/>
        <pt x="518" y="231" on="1"/>
        <pt x="454" y="219" on="0"/>
        <pt x="398" y="219" on="1"/>
        <pt x="48" y="226" on="1"/>
        <pt x="45" y="240" on="0"/>
        <pt x="45" y="253" on="1"/>
        <pt x="48" y="285" on="1"/>
        <pt x="112" y="297" on="0"/>
        <pt x="169" y="297" on="1"/>
      </contour>
    </TTGlyph>
    <TTGlyph name="dollar" xMin="60" yMin="-129" xMax="448" yMax="680">
      <contour>
        <pt x="151" y="69" on="1"/>
        <pt x="199" y="48" on="0"/>
        <pt x="295" y="48" on="0"/>
        <pt x="358" y="93" on="0"/>
        <pt x="358" y="163" on="0"/>
        <pt x="301" y="210" on="0"/>
        <pt x="219" y="246" on="0"/>
        <pt x="137" y="287" on="0"/>
        <pt x="80" y="353" on="0"/>
        <pt x="80" y="396" on="1"/>
        <pt x="80" y="463" on="0"/>
        <pt x="159" y="544" on="0"/>
        <pt x="225" y="551" on="1"/>
        <pt x="225" y="677" on="1"/>
        <pt x="234" y="680" on="0"/>
        <pt x="285" y="680" on="0"/>
        <pt x="291" y="678" on="1"/>
        <pt x="286" y="551" on="1"/>
        <pt x="365" y="544" on="0"/>
        <pt x="424" y="514" on="1"/>
        <pt x="425" y="503" on="0"/>
        <pt x="425" y="410" on="0"/>
        <pt x="416" y="378" on="1"/>
        <pt x="395" y="369" on="0"/>
        <pt x="355" y="369" on="1"/>
        <pt x="320" y="481" on="1"/>
        <pt x="296" y="492" on="0"/>
        <pt x="217" y="492" on="0"/>
        <pt x="168" y="448" on="0"/>
        <pt x="168" y="386" on="0"/>
        <pt x="226" y="338" on="0"/>
        <pt x="308" y="301" on="0"/>
        <pt x="390" y="260" on="0"/>
        <pt x="448" y="192" on="0"/>
        <pt x="448" y="149" on="1"/>
        <pt x="448" y="80" on="0"/>
        <pt x="355" y="-3" on="0"/>
        <pt x="281" y="-11" on="1"/>
        <pt x="281" y="-127" on="1"/>
        <pt x="275" y="-129" on="0"/>
        <pt x="244" y="-129" on="0"/>
        <pt x="234" y="-127" on="1"/>
        <pt x="230" y="-12" on="1"/>
        <pt x="129" y="-7" on="0"/>
        <pt x="60" y="42" on="1"/>
        <pt x="60" y="109" on="0"/>
        <pt x="73" y="170" on="1"/>
        <pt x="91" y="173" on="0"/>
        <pt x="139" y="173" on="1"/>
      </contour>
    </TTGlyph>
    <TTGlyph name="dos" xMin="26" yMin="0" xMax="447" yMax="680">
      <contour>
        <pt x="447" y="0" on="1"/>
        <pt x="37" y="0" on="1"/>
        <pt x="26" y="18" on="0"/>
        <pt x="26" y="58" on="1"/>
        <pt x="283" y="349" on="0"/>
        <pt x="318" y="427" on="1"/>
        <pt x="336" y="466" on="0"/>
        <pt x="336" y="570" on="0"/>
        <pt x="271" y="620" on="0"/>
        <pt x="202" y="620" on="1"/>
        <pt x="167" y="620" on="0"/>
        <pt x="149" y="614" on="1"/>
        <pt x="125" y="490" on="1"/>
        <pt x="67" y="495" on="1"/>
        <pt x="51" y="537" on="0"/>
        <pt x="50" y="613" on="1"/>
        <pt x="119" y="680" on="0"/>
        <pt x="237" y="680" on="1"/>
        <pt x="330" y="680" on="0"/>
        <pt x="421" y="588" on="0"/>
        <pt x="421" y="438" on="0"/>
        <pt x="332" y="304" on="0"/>
        <pt x="138" y="76" on="1"/>
        <pt x="135" y="73" on="0"/>
        <pt x="133" y="71" on="1"/>
        <pt x="136" y="59" on="1"/>
        <pt x="371" y="60" on="1"/>
        <pt x="376" y="128" on="0"/>
        <pt x="383" y="154" on="1"/>
        <pt x="435" y="150" on="1"/>
        <pt x="447" y="73" on="0"/>
      </contour>
    </TTGlyph>
    <TTGlyph name="dotaccent" xMin="28" yMin="627" xMax="135" yMax="734">
      <contour>
        <pt x="133" y="633" on="1"/>
        <pt x="107" y="627" on="0"/>
        <pt x="58" y="627" on="0"/>
        <pt x="34" y="630" on="1"/>
        <pt x="28" y="658" on="0"/>
        <pt x="28" y="715" on="0"/>
        <pt x="30" y="729" on="1"/>
        <pt x="52" y="734" on="0"/>
        <pt x="101" y="734" on="0"/>
        <pt x="129" y="732" on="1"/>
        <pt x="135" y="706" on="0"/>
        <pt x="135" y="646" on="0"/>
      </contour>
    </TTGlyph>
    <TTGlyph name="dotlessi" xMin="30" yMin="0" xMax="288" yMax="513">
      <contour>
        <pt x="34" y="498" on="1"/>
        <pt x="119" y="513" on="0"/>
        <pt x="213" y="513" on="0"/>
        <pt x="226" y="511" on="1"/>
        <pt x="226" y="487" on="0"/>
        <pt x="214" y="429" on="0"/>
        <pt x="213" y="430" on="1"/>
        <pt x="204" y="68" on="1"/>
        <pt x="288" y="60" on="1"/>
        <pt x="288" y="32" on="0"/>
        <pt x="271" y="0" on="1"/>
        <pt x="41" y="0" on="1"/>
        <pt x="38" y="35" on="1"/>
        <pt x="84" y="51" on="0"/>
        <pt x="128" y="59" on="1"/>
        <pt x="122" y="309" on="0"/>
        <pt x="118" y="434" on="1"/>
        <pt x="60" y="434" on="0"/>
        <pt x="30" y="446" on="1"/>
      </contour>
    </TTGlyph>
    <TTGlyph name="e" xMin="40" yMin="-12" xMax="467" yMax="520">
      <contour>
        <pt x="290" y="56" on="1"/>
        <pt x="334" y="56" on="0"/>
        <pt x="428" y="98" on="1"/>
        <pt x="447" y="72" on="0"/>
        <pt x="448" y="52" on="1"/>
        <pt x="397" y="22" on="0"/>
        <pt x="299" y="-12" on="0"/>
        <pt x="278" y="-12" on="1"/>
        <pt x="162" y="-12" on="0"/>
        <pt x="40" y="127" on="0"/>
        <pt x="40" y="377" on="0"/>
        <pt x="159" y="520" on="0"/>
        <pt x="278" y="520" on="1"/>
        <pt x="370" y="520" on="0"/>
        <pt x="467" y="388" on="0"/>
        <pt x="467" y="277" on="1"/>
        <pt x="459" y="263" on="0"/>
        <pt x="454" y="258" on="1"/>
        <pt x="132" y="263" on="1"/>
        <pt x="133" y="162" on="0"/>
        <pt x="202" y="56" on="0"/>
      </contour>
      <contour>
        <pt x="376" y="386" on="0"/>
        <pt x="328" y="459" on="0"/>
        <pt x="216" y="459" on="0"/>
        <pt x="172" y="438" on="1"/>
        <pt x="142" y="378" on="0"/>
        <pt x="134" y="315" on="1"/>
        <pt x="213" y="316" on="0"/>
        <pt x="376" y="320" on="1"/>
      </contour>
    </TTGlyph>
    <TTGlyph name="eacute" xMin="40" yMin="-12" xMax="467" yMax="736">
      <contour>
        <pt x="189" y="622" on="1"/>
        <pt x="329" y="736" on="1"/>
        <pt x="368" y="706" on="0"/>
        <pt x="371" y="675" on="1"/>
        <pt x="347" y="652" on="0"/>
        <pt x="276" y="605" on="0"/>
        <pt x="229" y="581" on="1"/>
        <pt x="211" y="594" on="0"/>
      </contour>
      <contour>
        <pt x="290" y="56" on="1"/>
        <pt x="334" y="56" on="0"/>
        <pt x="428" y="98" on="1"/>
        <pt x="447" y="72" on="0"/>
        <pt x="448" y="52" on="1"/>
        <pt x="397" y="22" on="0"/>
        <pt x="299" y="-12" on="0"/>
        <pt x="278" y="-12" on="1"/>
        <pt x="162" y="-12" on="0"/>
        <pt x="40" y="127" on="0"/>
        <pt x="40" y="377" on="0"/>
        <pt x="159" y="520" on="0"/>
        <pt x="278" y="520" on="1"/>
        <pt x="370" y="520" on="0"/>
        <pt x="467" y="388" on="0"/>
        <pt x="467" y="277" on="1"/>
        <pt x="459" y="263" on="0"/>
        <pt x="454" y="258" on="1"/>
        <pt x="132" y="263" on="1"/>
        <pt x="133" y="162" on="0"/>
        <pt x="202" y="56" on="0"/>
      </contour>
      <contour>
        <pt x="376" y="386" on="0"/>
        <pt x="328" y="459" on="0"/>
        <pt x="216" y="459" on="0"/>
        <pt x="172" y="438" on="1"/>
        <pt x="142" y="378" on="0"/>
        <pt x="134" y="315" on="1"/>
        <pt x="213" y="316" on="0"/>
        <pt x="376" y="320" on="1"/>
      </contour>
    </TTGlyph>
    <TTGlyph name="ebreve" xMin="40" yMin="-12" xMax="467" yMax="739">
      <contour>
        <pt x="389" y="737" on="1"/>
        <pt x="389" y="681" on="0"/>
        <pt x="315" y="595" on="0"/>
        <pt x="190" y="595" on="0"/>
        <pt x="119" y="681" on="0"/>
        <pt x="119" y="737" on="1"/>
        <pt x="171" y="739" on="1"/>
        <pt x="171" y="707" on="0"/>
        <pt x="211" y="658" on="0"/>
        <pt x="253" y="658" on="1"/>
        <pt x="326" y="658" on="0"/>
        <pt x="326" y="737" on="1"/>
      </contour>
      <contour>
        <pt x="290" y="56" on="1"/>
        <pt x="334" y="56" on="0"/>
        <pt x="428" y="98" on="1"/>
        <pt x="447" y="72" on="0"/>
        <pt x="448" y="52" on="1"/>
        <pt x="397" y="22" on="0"/>
        <pt x="299" y="-12" on="0"/>
        <pt x="278" y="-12" on="1"/>
        <pt x="162" y="-12" on="0"/>
        <pt x="40" y="127" on="0"/>
        <pt x="40" y="377" on="0"/>
        <pt x="159" y="520" on="0"/>
        <pt x="278" y="520" on="1"/>
        <pt x="370" y="520" on="0"/>
        <pt x="467" y="388" on="0"/>
        <pt x="467" y="277" on="1"/>
        <pt x="459" y="263" on="0"/>
        <pt x="454" y="258" on="1"/>
        <pt x="132" y="263" on="1"/>
        <pt x="133" y="162" on="0"/>
        <pt x="202" y="56" on="0"/>
      </contour>
      <contour>
        <pt x="376" y="386" on="0"/>
        <pt x="328" y="459" on="0"/>
        <pt x="216" y="459" on="0"/>
        <pt x="172" y="438" on="1"/>
        <pt x="142" y="378" on="0"/>
        <pt x="134" y="315" on="1"/>
        <pt x="213" y="316" on="0"/>
        <pt x="376" y="320" on="1"/>
      </contour>
    </TTGlyph>
    <TTGlyph name="ecircumflex" xMin="40" yMin="-12" xMax="467" yMax="736">
      <contour>
        <pt x="261" y="736" on="1"/>
        <pt x="402" y="622" on="1"/>
        <pt x="396" y="613" on="0"/>
        <pt x="369" y="586" on="1"/>
        <pt x="368" y="587" on="0"/>
        <pt x="339" y="600" on="0"/>
        <pt x="326" y="607" on="1"/>
        <pt x="287" y="628" on="0"/>
        <pt x="261" y="652" on="1"/>
        <pt x="226" y="619" on="0"/>
        <pt x="168" y="594" on="1"/>
        <pt x="154" y="587" on="0"/>
        <pt x="153" y="586" on="1"/>
        <pt x="129" y="608" on="0"/>
        <pt x="120" y="622" on="1"/>
      </contour>
      <contour>
        <pt x="290" y="56" on="1"/>
        <pt x="334" y="56" on="0"/>
        <pt x="428" y="98" on="1"/>
        <pt x="447" y="72" on="0"/>
        <pt x="448" y="52" on="1"/>
        <pt x="397" y="22" on="0"/>
        <pt x="299" y="-12" on="0"/>
        <pt x="278" y="-12" on="1"/>
        <pt x="162" y="-12" on="0"/>
        <pt x="40" y="127" on="0"/>
        <pt x="40" y="377" on="0"/>
        <pt x="159" y="520" on="0"/>
        <pt x="278" y="520" on="1"/>
        <pt x="370" y="520" on="0"/>
        <pt x="467" y="388" on="0"/>
        <pt x="467" y="277" on="1"/>
        <pt x="459" y="263" on="0"/>
        <pt x="454" y="258" on="1"/>
        <pt x="132" y="263" on="1"/>
        <pt x="133" y="162" on="0"/>
        <pt x="202" y="56" on="0"/>
      </contour>
      <contour>
        <pt x="376" y="386" on="0"/>
        <pt x="328" y="459" on="0"/>
        <pt x="216" y="459" on="0"/>
        <pt x="172" y="438" on="1"/>
        <pt x="142" y="378" on="0"/>
        <pt x="134" y="315" on="1"/>
        <pt x="213" y="316" on="0"/>
        <pt x="376" y="320" on="1"/>
      </contour>
    </TTGlyph>
    <TTGlyph name="edieresis" xMin="40" yMin="-12" xMax="467" yMax="686">
      <contour>
        <pt x="213" y="606" on="1"/>
        <pt x="193" y="602" on="0"/>
        <pt x="148" y="602" on="0"/>
        <pt x="134" y="604" on="1"/>
        <pt x="129" y="622" on="0"/>
        <pt x="129" y="659" on="0"/>
        <pt x="131" y="683" on="1"/>
        <pt x="146" y="686" on="0"/>
        <pt x="198" y="686" on="0"/>
        <pt x="210" y="685" on="1"/>
        <pt x="214" y="663" on="0"/>
        <pt x="214" y="616" on="0"/>
      </contour>
      <contour>
        <pt x="378" y="606" on="1"/>
        <pt x="358" y="602" on="0"/>
        <pt x="313" y="602" on="0"/>
        <pt x="299" y="604" on="1"/>
        <pt x="294" y="622" on="0"/>
        <pt x="294" y="659" on="0"/>
        <pt x="296" y="683" on="1"/>
        <pt x="311" y="686" on="0"/>
        <pt x="363" y="686" on="0"/>
        <pt x="375" y="685" on="1"/>
        <pt x="379" y="663" on="0"/>
        <pt x="379" y="616" on="0"/>
      </contour>
      <contour>
        <pt x="290" y="56" on="1"/>
        <pt x="334" y="56" on="0"/>
        <pt x="428" y="98" on="1"/>
        <pt x="447" y="72" on="0"/>
        <pt x="448" y="52" on="1"/>
        <pt x="397" y="22" on="0"/>
        <pt x="299" y="-12" on="0"/>
        <pt x="278" y="-12" on="1"/>
        <pt x="162" y="-12" on="0"/>
        <pt x="40" y="127" on="0"/>
        <pt x="40" y="377" on="0"/>
        <pt x="159" y="520" on="0"/>
        <pt x="278" y="520" on="1"/>
        <pt x="370" y="520" on="0"/>
        <pt x="467" y="388" on="0"/>
        <pt x="467" y="277" on="1"/>
        <pt x="459" y="263" on="0"/>
        <pt x="454" y="258" on="1"/>
        <pt x="132" y="263" on="1"/>
        <pt x="133" y="162" on="0"/>
        <pt x="202" y="56" on="0"/>
      </contour>
      <contour>
        <pt x="376" y="386" on="0"/>
        <pt x="328" y="459" on="0"/>
        <pt x="216" y="459" on="0"/>
        <pt x="172" y="438" on="1"/>
        <pt x="142" y="378" on="0"/>
        <pt x="134" y="315" on="1"/>
        <pt x="213" y="316" on="0"/>
        <pt x="376" y="320" on="1"/>
      </contour>
    </TTGlyph>
    <TTGlyph name="egrave" xMin="40" yMin="-12" xMax="467" yMax="736">
      <contour>
        <pt x="331" y="622" on="1"/>
        <pt x="308" y="595" on="0"/>
        <pt x="291" y="581" on="1"/>
        <pt x="203" y="623" on="0"/>
        <pt x="149" y="675" on="1"/>
        <pt x="150" y="689" on="0"/>
        <pt x="171" y="719" on="0"/>
        <pt x="191" y="736" on="1"/>
      </contour>
      <contour>
        <pt x="290" y="56" on="1"/>
        <pt x="334" y="56" on="0"/>
        <pt x="428" y="98" on="1"/>
        <pt x="447" y="72" on="0"/>
        <pt x="448" y="52" on="1"/>
        <pt x="397" y="22" on="0"/>
        <pt x="299" y="-12" on="0"/>
        <pt x="278" y="-12" on="1"/>
        <pt x="162" y="-12" on="0"/>
        <pt x="40" y="127" on="0"/>
        <pt x="40" y="377" on="0"/>
        <pt x="159" y="520" on="0"/>
        <pt x="278" y="520" on="1"/>
        <pt x="370" y="520" on="0"/>
        <pt x="467" y="388" on="0"/>
        <pt x="467" y="277" on="1"/>
        <pt x="459" y="263" on="0"/>
        <pt x="454" y="258" on="1"/>
        <pt x="132" y="263" on="1"/>
        <pt x="133" y="162" on="0"/>
        <pt x="202" y="56" on="0"/>
      </contour>
      <contour>
        <pt x="376" y="386" on="0"/>
        <pt x="328" y="459" on="0"/>
        <pt x="216" y="459" on="0"/>
        <pt x="172" y="438" on="1"/>
        <pt x="142" y="378" on="0"/>
        <pt x="134" y="315" on="1"/>
        <pt x="213" y="316" on="0"/>
        <pt x="376" y="320" on="1"/>
      </contour>
    </TTGlyph>
    <TTGlyph name="eight" xMin="45" yMin="-12" xMax="486" yMax="750">
      <contour>
        <pt x="486" y="194" on="1"/>
        <pt x="486" y="106" on="0"/>
        <pt x="378" y="-12" on="0"/>
        <pt x="268" y="-12" on="1"/>
        <pt x="189" y="-12" on="0"/>
        <pt x="122" y="30" on="1"/>
        <pt x="88" y="51" on="0"/>
        <pt x="45" y="133" on="0"/>
        <pt x="45" y="188" on="1"/>
        <pt x="45" y="305" on="0"/>
        <pt x="179" y="396" on="1"/>
        <pt x="176" y="398" on="1"/>
        <pt x="113" y="428" on="0"/>
        <pt x="61" y="503" on="0"/>
        <pt x="61" y="656" on="0"/>
        <pt x="172" y="750" on="0"/>
        <pt x="367" y="750" on="0"/>
        <pt x="476" y="653" on="0"/>
        <pt x="476" y="502" on="0"/>
        <pt x="410" y="419" on="0"/>
        <pt x="345" y="382" on="1"/>
        <pt x="486" y="297" on="0"/>
      </contour>
      <contour>
        <pt x="361" y="64" on="1"/>
        <pt x="394" y="128" on="0"/>
        <pt x="394" y="248" on="0"/>
        <pt x="323" y="323" on="0"/>
        <pt x="232" y="370" on="1"/>
        <pt x="185" y="335" on="0"/>
        <pt x="137" y="253" on="0"/>
        <pt x="137" y="145" on="0"/>
        <pt x="163" y="86" on="0"/>
        <pt x="184" y="72" on="1"/>
        <pt x="224" y="46" on="0"/>
        <pt x="261" y="46" on="1"/>
        <pt x="325" y="46" on="0"/>
        <pt x="352" y="60" on="1"/>
      </contour>
      <contour>
        <pt x="384" y="581" on="1"/>
        <pt x="384" y="689" on="0"/>
        <pt x="268" y="689" on="1"/>
        <pt x="216" y="689" on="0"/>
        <pt x="178" y="673" on="1"/>
        <pt x="153" y="628" on="0"/>
        <pt x="153" y="580" on="1"/>
        <pt x="153" y="472" on="0"/>
        <pt x="261" y="425" on="1"/>
        <pt x="267" y="423" on="0"/>
        <pt x="294" y="409" on="1"/>
        <pt x="384" y="465" on="0"/>
      </contour>
    </TTGlyph>
</ttFont>
